<svg xmlns="http://www.w3.org/2000/svg" xmlns:xlink="http://www.w3.org/1999/xlink" width="1600" height="900" version="1.1"><path fill="#000" d="M0,0 l1600,0 l0,900 l-1600,0 Z M0,0" transform="matrix(1,0,0,-1,0,900)"/><path fill="#FFF" fill-opacity="0" stroke="#0F0" stroke-width="2" d="M0,0 l1600,0 l0,900 l-1600,0 Z M0,0" transform="matrix(1,0,0,-1,0,900)"/><path fill="#000C00" fill-opacity=".25" stroke="#0F0" stroke-width="2" d="M0,0 l800,0 l0,900 l-800,0 Z M0,0" transform="matrix(1,0,0,-1,0,900)"/><path fill="#000C00" fill-opacity=".25" stroke="#0F0" stroke-width="2" d="M0,0 l800,0 l0,900 l-800,0 Z M0,0" transform="matrix(-1.0,-1.2246467991473532e-16,-1.2246467991473532e-16,1.0,1600.0,1.1368683772161603e-13)"/><path fill="#01F" fill-opacity=".25" stroke="#0FF" stroke-width="2" d="M0,0 l800,0 l0,450 l-800,0 Z M0,0" transform="matrix(1,0,0,-1,0,900)"/><path fill="#01F" fill-opacity=".25" stroke="#0FF" stroke-width="2" d="M0,0 l800,0 l0,450 l-800,0 Z M0,0" transform="matrix(-1.0,-1.2246467991473532e-16,-1.2246467991473532e-16,1.0,1600.0,1.1368683772161603e-13)"/><path fill="#001D00" fill-opacity=".25" stroke="#0F0" stroke-width="2" d="M0,0 l400,0 l0,450 l-400,0 Z M0,0" transform="matrix(1,0,0,-1,0,900)"/><path fill="#001D00" fill-opacity=".25" stroke="#0F0" stroke-width="2" d="M0,0 l400,0 l0,450 l-400,0 Z M0,0" transform="matrix(-1.0,-1.2246467991473532e-16,-1.2246467991473532e-16,1.0,1600.0,1.1368683772161603e-13)"/><path fill="#0027FF" fill-opacity=".25" stroke="#0FF" stroke-width="2" d="M0,0 l400,0 l0,225 l-400,0 Z M0,0" transform="matrix(1,0,0,-1,0,900)"/><path fill="#0027FF" fill-opacity=".25" stroke="#0FF" stroke-width="2" d="M0,0 l400,0 l0,225 l-400,0 Z M0,0" transform="matrix(-1.0,-1.2246467991473532e-16,-1.2246467991473532e-16,1.0,1600.0,1.1368683772161603e-13)"/><path fill="#002E00" fill-opacity=".25" stroke="#0F0" stroke-width="2" d="M0,0 l200,0 l0,225 l-200,0 Z M0,0" transform="matrix(1,0,0,-1,0,900)"/><path fill="#002E00" fill-opacity=".25" stroke="#0F0" stroke-width="2" d="M0,0 l200,0 l0,225 l-200,0 Z M0,0" transform="matrix(-1.0,-1.2246467991473532e-16,-1.2246467991473532e-16,1.0,1600.0,1.1368683772161603e-13)"/><path fill="#003EFF" fill-opacity=".25" stroke="#0FF" stroke-width="2" d="M0,0 l200,0 l0,112.5 l-200,0 Z M0,0" transform="matrix(1,0,0,-1,0,900)"/><path fill="#003EFF" fill-opacity=".25" stroke="#0FF" stroke-width="2" d="M0,0 l200,0 l0,112.5 l-200,0 Z M0,0" transform="matrix(-1.0,-1.2246467991473532e-16,-1.2246467991473532e-16,1.0,1600.0,1.1368683772161603e-13)"/><path fill="#003F00" fill-opacity=".25" stroke="#0F0" stroke-width="2" d="M0,0 l100,0 l0,112.5 l-100,0 Z M0,0" transform="matrix(1,0,0,-1,0,900)"/><path fill="#003F00" fill-opacity=".25" stroke="#0F0" stroke-width="2" d="M0,0 l100,0 l0,112.5 l-100,0 Z M0,0" transform="matrix(-1.0,-1.2246467991473532e-16,-1.2246467991473532e-16,1.0,1600.0,1.1368683772161603e-13)"/><path fill="#05F" fill-opacity=".25" stroke="#0FF" stroke-width="2" d="M0,0 l100,0 l0,56.25 l-100,0 Z M0,0" transform="matrix(1,0,0,-1,0,900)"/><path fill="#05F" fill-opacity=".25" stroke="#0FF" stroke-width="2" d="M0,0 l100,0 l0,56.25 l-100,0 Z M0,0" transform="matrix(-1.0,-1.2246467991473532e-16,-1.2246467991473532e-16,1.0,1600.0,1.1368683772161603e-13)"/><path fill="#005000" fill-opacity=".25" stroke="#0F0" stroke-width="2" d="M0,0 l50,0 l0,56.25 l-50,0 Z M0,0" transform="matrix(1,0,0,-1,0,900)"/><path fill="#005000" fill-opacity=".25" stroke="#0F0" stroke-width="2" d="M0,0 l50,0 l0,56.25 l-50,0 Z M0,0" transform="matrix(-1.0,-1.2246467991473532e-16,-1.2246467991473532e-16,1.0,1600.0,1.1368683772161603e-13)"/><path fill="#006BFF" fill-opacity=".25" stroke="#0FF" stroke-width="2" d="M0,0 l50,0 l0,28.13 l-50,0 Z M0,0" transform="matrix(1,0,0,-1,0,900)"/><path fill="#006BFF" fill-opacity=".25" stroke="#0FF" stroke-width="2" d="M0,0 l50,0 l0,28.13 l-50,0 Z M0,0" transform="matrix(-1.0,-1.2246467991473532e-16,-1.2246467991473532e-16,1.0,1600.0,1.1368683772161603e-13)"/><path fill="#006100" fill-opacity=".25" stroke="#0F0" stroke-width="2" d="M0,0 l25,0 l0,28.13 l-25,0 Z M0,0" transform="matrix(1,0,0,-1,0,900)"/><path fill="#006100" fill-opacity=".25" stroke="#0F0" stroke-width="2" d="M0,0 l25,0 l0,28.13 l-25,0 Z M0,0" transform="matrix(-1.0,-1.2246467991473532e-16,-1.2246467991473532e-16,1.0,1600.0,1.1368683772161603e-13)"/><path fill="#0082FF" fill-opacity=".25" stroke="#0FF" stroke-width="2" d="M0,0 l25,0 l0,14.06 l-25,0 Z M0,0" transform="matrix(1,0,0,-1,0,900)"/><path fill="#0082FF" fill-opacity=".25" stroke="#0FF" stroke-width="2" d="M0,0 l25,0 l0,14.06 l-25,0 Z M0,0" transform="matrix(-1.0,-1.2246467991473532e-16,-1.2246467991473532e-16,1.0,1600.0,1.1368683772161603e-13)"/><path fill="#007200" fill-opacity=".25" stroke="#0F0" stroke-width="2" d="M0,0 l12.5,0 l0,14.06 l-12.5,0 Z M0,0" transform="matrix(1,0,0,-1,0,900)"/><path fill="#007200" fill-opacity=".25" stroke="#0F0" stroke-width="2" d="M0,0 l12.5,0 l0,14.06 l-12.5,0 Z M0,0" transform="matrix(-1.0,-1.2246467991473532e-16,-1.2246467991473532e-16,1.0,1600.0,1.1368683772161603e-13)"/><path fill="#09F" fill-opacity=".25" stroke="#0FF" stroke-width="2" d="M0,0 l12.5,0 l0,7.03 l-12.5,0 Z M0,0" transform="matrix(1,0,0,-1,0,900)"/><path fill="#09F" fill-opacity=".25" stroke="#0FF" stroke-width="2" d="M0,0 l12.5,0 l0,7.03 l-12.5,0 Z M0,0" transform="matrix(-1.0,-1.2246467991473532e-16,-1.2246467991473532e-16,1.0,1600.0,1.1368683772161603e-13)"/><path fill="#008300" fill-opacity=".25" stroke="#0F0" stroke-width="2" d="M0,0 l6.25,0 l0,7.03 l-6.25,0 Z M0,0" transform="matrix(1,0,0,-1,0,900)"/><path fill="#008300" fill-opacity=".25" stroke="#0F0" stroke-width="2" d="M0,0 l6.25,0 l0,7.03 l-6.25,0 Z M0,0" transform="matrix(-1.0,-1.2246467991473532e-16,-1.2246467991473532e-16,1.0,1600.0,1.1368683772161603e-13)"/><path fill="#00AFFF" fill-opacity=".25" stroke="#0FF" stroke-width="2" d="M0,0 l6.25,0 l0,3.52 l-6.25,0 Z M0,0" transform="matrix(1,0,0,-1,0,900)"/><path fill="#00AFFF" fill-opacity=".25" stroke="#0FF" stroke-width="2" d="M0,0 l6.25,0 l0,3.52 l-6.25,0 Z M0,0" transform="matrix(-1.0,-1.2246467991473532e-16,-1.2246467991473532e-16,1.0,1600.0,1.1368683772161603e-13)"/><path fill="#009400" fill-opacity=".25" stroke="#0F0" stroke-width="2" d="M0,0 l3.13,0 l0,3.52 l-3.13,0 Z M0,0" transform="matrix(1,0,0,-1,0,900)"/><path fill="#009400" fill-opacity=".25" stroke="#0F0" stroke-width="2" d="M0,0 l3.13,0 l0,3.52 l-3.13,0 Z M0,0" transform="matrix(-1.0,-1.2246467991473532e-16,-1.2246467991473532e-16,1.0,1600.0,1.1368683772161603e-13)"/><path fill="#00C6FF" fill-opacity=".25" stroke="#0FF" stroke-width="2" d="M0,0 l3.13,0 l0,1.76 l-3.13,0 Z M0,0" transform="matrix(1,0,0,-1,0,900)"/><path fill="#00C6FF" fill-opacity=".25" stroke="#0FF" stroke-width="2" d="M0,0 l3.13,0 l0,1.76 l-3.13,0 Z M0,0" transform="matrix(-1.0,-1.2246467991473532e-16,-1.2246467991473532e-16,1.0,1600.0,1.1368683772161603e-13)"/><path fill="#00A500" fill-opacity=".25" stroke="#0F0" stroke-width="2" d="M0,0 l1.56,0 l0,1.76 l-1.56,0 Z M0,0" transform="matrix(1,0,0,-1,0,900)"/><path fill="#00A500" fill-opacity=".25" stroke="#0F0" stroke-width="2" d="M0,0 l1.56,0 l0,1.76 l-1.56,0 Z M0,0" transform="matrix(-1.0,-1.2246467991473532e-16,-1.2246467991473532e-16,1.0,1600.0,1.1368683772161603e-13)"/><path fill="#0DF" fill-opacity=".25" stroke="#0FF" stroke-width="2" d="M0,0 l1.56,0 l0,0.88 l-1.56,0 Z M0,0" transform="matrix(1,0,0,-1,0,900)"/><path fill="#0DF" fill-opacity=".25" stroke="#0FF" stroke-width="2" d="M0,0 l1.56,0 l0,0.88 l-1.56,0 Z M0,0" transform="matrix(-1.0,-1.2246467991473532e-16,-1.2246467991473532e-16,1.0,1600.0,1.1368683772161603e-13)"/><path fill="#00B600" fill-opacity=".25" stroke="#0F0" stroke-width="2" d="M0,0 l0.78,0 l0,0.88 l-0.78,0 Z M0,0" transform="matrix(1,0,0,-1,0,900)"/><path fill="#00B600" fill-opacity=".25" stroke="#0F0" stroke-width="2" d="M0,0 l0.78,0 l0,0.88 l-0.78,0 Z M0,0" transform="matrix(-1.0,-1.2246467991473532e-16,-1.2246467991473532e-16,1.0,1600.0,1.1368683772161603e-13)"/><path fill="#00F3FF" fill-opacity=".25" stroke="#0FF" stroke-width="2" d="M0,0 l0.78,0 l0,0.44 l-0.78,0 Z M0,0" transform="matrix(1,0,0,-1,0,900)"/><path fill="#00F3FF" fill-opacity=".25" stroke="#0FF" stroke-width="2" d="M0,0 l0.78,0 l0,0.44 l-0.78,0 Z M0,0" transform="matrix(-1.0,-1.2246467991473532e-16,-1.2246467991473532e-16,1.0,1600.0,1.1368683772161603e-13)"/><path fill="#00C700" fill-opacity=".25" stroke="#0F0" stroke-width="2" d="M0,0 l0.39,0 l0,0.44 l-0.39,0 Z M0,0" transform="matrix(1,0,0,-1,0,900)"/><path fill="#00C700" fill-opacity=".25" stroke="#0F0" stroke-width="2" d="M0,0 l0.39,0 l0,0.44 l-0.39,0 Z M0,0" transform="matrix(-1.0,-1.2246467991473532e-16,-1.2246467991473532e-16,1.0,1600.0,1.1368683772161603e-13)"/><path fill="#0FF" fill-opacity=".25" stroke="#0FF" stroke-width="2" d="M0,0 l0.39,0 l0,0.22 l-0.39,0 Z M0,0" transform="matrix(1,0,0,-1,0,900)"/><path fill="#0FF" fill-opacity=".25" stroke="#0FF" stroke-width="2" d="M0,0 l0.39,0 l0,0.22 l-0.39,0 Z M0,0" transform="matrix(-1.0,-1.2246467991473532e-16,-1.2246467991473532e-16,1.0,1600.0,1.1368683772161603e-13)"/><path fill="#00D800" fill-opacity=".25" stroke="#0F0" stroke-width="2" d="M0,0 l0.2,0 l0,0.22 l-0.2,0 Z M0,0" transform="matrix(1,0,0,-1,0,900)"/><path fill="#00D800" fill-opacity=".25" stroke="#0F0" stroke-width="2" d="M0,0 l0.2,0 l0,0.22 l-0.2,0 Z M0,0" transform="matrix(-1.0,-1.2246467991473532e-16,-1.2246467991473532e-16,1.0,1600.0,1.1368683772161603e-13)"/><path fill="#0FF" fill-opacity=".25" stroke="#0FF" stroke-width="2" d="M0,0 l0.2,0 l0,0.11 l-0.2,0 Z M0,0" transform="matrix(1,0,0,-1,0,900)"/><path fill="#0FF" fill-opacity=".25" stroke="#0FF" stroke-width="2" d="M0,0 l0.2,0 l0,0.11 l-0.2,0 Z M0,0" transform="matrix(-1.0,-1.2246467991473532e-16,-1.2246467991473532e-16,1.0,1600.0,1.1368683772161603e-13)"/><path fill="#00E900" fill-opacity=".25" stroke="#0F0" stroke-width="2" d="M0,0 l0.1,0 l0,0.11 l-0.1,0 Z M0,0" transform="matrix(1,0,0,-1,0,900)"/><path fill="#00E900" fill-opacity=".25" stroke="#0F0" stroke-width="2" d="M0,0 l0.1,0 l0,0.11 l-0.1,0 Z M0,0" transform="matrix(-1.0,-1.2246467991473532e-16,-1.2246467991473532e-16,1.0,1600.0,1.1368683772161603e-13)"/><path fill="#0FF" fill-opacity=".25" stroke="#0FF" stroke-width="2" d="M0,0 l0.1,0 l0,0.05 l-0.1,0 Z M0,0" transform="matrix(1,0,0,-1,0,900)"/><path fill="#0FF" fill-opacity=".25" stroke="#0FF" stroke-width="2" d="M0,0 l0.1,0 l0,0.05 l-0.1,0 Z M0,0" transform="matrix(-1.0,-1.2246467991473532e-16,-1.2246467991473532e-16,1.0,1600.0,1.1368683772161603e-13)"/><path fill="#00FA00" fill-opacity=".25" stroke="#0F0" stroke-width="2" d="M0,0 l0.05,0 l0,0.05 l-0.05,0 Z M0,0" transform="matrix(1,0,0,-1,0,900)"/><path fill="#00FA00" fill-opacity=".25" stroke="#0F0" stroke-width="2" d="M0,0 l0.05,0 l0,0.05 l-0.05,0 Z M0,0" transform="matrix(-1.0,-1.2246467991473532e-16,-1.2246467991473532e-16,1.0,1600.0,1.1368683772161603e-13)"/><path fill="#0FF" fill-opacity=".25" stroke="#0FF" stroke-width="2" d="M0,0 l0.05,0 l0,0.03 l-0.05,0 Z M0,0" transform="matrix(1,0,0,-1,0,900)"/><path fill="#0FF" fill-opacity=".25" stroke="#0FF" stroke-width="2" d="M0,0 l0.05,0 l0,0.03 l-0.05,0 Z M0,0" transform="matrix(-1.0,-1.2246467991473532e-16,-1.2246467991473532e-16,1.0,1600.0,1.1368683772161603e-13)"/><path fill="#0F0" fill-opacity=".25" stroke="#0F0" stroke-width="2" d="M0,0 l0.02,0 l0,0.03 l-0.02,0 Z M0,0" transform="matrix(1,0,0,-1,0,900)"/><path fill="#0F0" fill-opacity=".25" stroke="#0F0" stroke-width="2" d="M0,0 l0.02,0 l0,0.03 l-0.02,0 Z M0,0" transform="matrix(-1.0,-1.2246467991473532e-16,-1.2246467991473532e-16,1.0,1600.0,1.1368683772161603e-13)"/><path fill="#0FF" fill-opacity=".25" stroke="#0FF" stroke-width="2" d="M0,0 l0.02,0 l0,0.01 l-0.02,0 Z M0,0" transform="matrix(1,0,0,-1,0,900)"/><path fill="#0FF" fill-opacity=".25" stroke="#0FF" stroke-width="2" d="M0,0 l0.02,0 l0,0.01 l-0.02,0 Z M0,0" transform="matrix(-1.0,-1.2246467991473532e-16,-1.2246467991473532e-16,1.0,1600.0,1.1368683772161603e-13)"/><path fill="#0F0" fill-opacity=".25" stroke="#0F0" stroke-width="2" d="M0,0 l0.01,0 l0,0.01 l-0.01,0 Z M0,0" transform="matrix(1,0,0,-1,0,900)"/><path fill="#0F0" fill-opacity=".25" stroke="#0F0" stroke-width="2" d="M0,0 l0.01,0 l0,0.01 l-0.01,0 Z M0,0" transform="matrix(-1.0,-1.2246467991473532e-16,-1.2246467991473532e-16,1.0,1600.0,1.1368683772161603e-13)"/><path fill="#0FF" fill-opacity=".25" stroke="#0FF" stroke-width="2" d="M0,0 l0.01,0 l0,0.01 l-0.01,0 Z M0,0" transform="matrix(1,0,0,-1,0,900)"/><path fill="#0FF" fill-opacity=".25" stroke="#0FF" stroke-width="2" d="M0,0 l0.01,0 l0,0.01 l-0.01,0 Z M0,0" transform="matrix(-1.0,-1.2246467991473532e-16,-1.2246467991473532e-16,1.0,1600.0,1.1368683772161603e-13)"/></svg>