<svg xmlns="http://www.w3.org/2000/svg" xmlns:xlink="http://www.w3.org/1999/xlink" width="1000" height="750" version="1.1"><path fill="#000" d="M0,0 l1000,0 l0,750 l-1000,0 Z M0,0" transform="matrix(1,0,0,-1,0,750)"/><path fill="#FFF" fill-opacity="0" stroke="#0F0" stroke-width="2" d="M0,0 l1000,0 l0,750 l-1000,0 Z M0,0" transform="matrix(1,0,0,-1,0,750)"/><path fill="#000C00" stroke="#0F0" stroke-width="2" d="M0,0 l800,0 l0,750 l-800,0 Z M0,0" transform="matrix(1,0,0,-1,0,750)"/><path fill="#FF0C00" stroke="#0F0" stroke-width="2" d="M0,0 l800,0 l0,750 l-800,0 Z M0,0" transform="matrix(0.7071067811865476,-0.7071067811865475,-0.7071067811865475,-0.7071067811865476,0,750)"/><path fill="#010" stroke="#0F0" stroke-width="2" d="M0,0 l800,0 l0,600 l-800,0 Z M0,0" transform="matrix(1,0,0,-1,0,750)"/><path fill="#010" stroke="#0F0" stroke-width="2" d="M0,0 l800,0 l0,600 l-800,0 Z M0,0" transform="matrix(-1.0,-1.2246467991473532e-16,-1.2246467991473532e-16,1.0,0,750)"/><path fill="#001D00" stroke="#0F0" stroke-width="2" d="M0,0 l640,0 l0,600 l-640,0 Z M0,0" transform="matrix(1,0,0,-1,0,750)"/><path fill="#FF1D00" stroke="#0F0" stroke-width="2" d="M0,0 l640,0 l0,600 l-640,0 Z M0,0" transform="matrix(0.7071067811865476,-0.7071067811865475,-0.7071067811865475,-0.7071067811865476,0,750)"/><path fill="#002700" stroke="#0F0" stroke-width="2" d="M0,0 l640,0 l0,480 l-640,0 Z M0,0" transform="matrix(1,0,0,-1,0,750)"/><path fill="#002700" stroke="#0F0" stroke-width="2" d="M0,0 l640,0 l0,480 l-640,0 Z M0,0" transform="matrix(-1.0,-1.2246467991473532e-16,-1.2246467991473532e-16,1.0,0,750)"/><path fill="#002E00" stroke="#0F0" stroke-width="2" d="M0,0 l512,0 l0,480 l-512,0 Z M0,0" transform="matrix(1,0,0,-1,0,750)"/><path fill="#FF2E00" stroke="#0F0" stroke-width="2" d="M0,0 l512,0 l0,480 l-512,0 Z M0,0" transform="matrix(0.7071067811865476,-0.7071067811865475,-0.7071067811865475,-0.7071067811865476,0,750)"/><path fill="#003E00" stroke="#0F0" stroke-width="2" d="M0,0 l512,0 l0,384 l-512,0 Z M0,0" transform="matrix(1,0,0,-1,0,750)"/><path fill="#003E00" stroke="#0F0" stroke-width="2" d="M0,0 l512,0 l0,384 l-512,0 Z M0,0" transform="matrix(-1.0,-1.2246467991473532e-16,-1.2246467991473532e-16,1.0,0,750)"/><path fill="#003F00" stroke="#0F0" stroke-width="2" d="M0,0 l409.6,0 l0,384 l-409.6,0 Z M0,0" transform="matrix(1,0,0,-1,0,750)"/><path fill="#FF3F00" stroke="#0F0" stroke-width="2" d="M0,0 l409.6,0 l0,384 l-409.6,0 Z M0,0" transform="matrix(0.7071067811865476,-0.7071067811865475,-0.7071067811865475,-0.7071067811865476,0,750)"/><path fill="#050" stroke="#0F0" stroke-width="2" d="M0,0 l409.6,0 l0,307.2 l-409.6,0 Z M0,0" transform="matrix(1,0,0,-1,0,750)"/><path fill="#050" stroke="#0F0" stroke-width="2" d="M0,0 l409.6,0 l0,307.2 l-409.6,0 Z M0,0" transform="matrix(-1.0,-1.2246467991473532e-16,-1.2246467991473532e-16,1.0,0,750)"/><path fill="#005000" stroke="#0F0" stroke-width="2" d="M0,0 l327.68,0 l0,307.2 l-327.68,0 Z M0,0" transform="matrix(1,0,0,-1,0,750)"/><path fill="#FF5000" stroke="#0F0" stroke-width="2" d="M0,0 l327.68,0 l0,307.2 l-327.68,0 Z M0,0" transform="matrix(0.7071067811865476,-0.7071067811865475,-0.7071067811865475,-0.7071067811865476,0,750)"/><path fill="#006B00" stroke="#0F0" stroke-width="2" d="M0,0 l327.68,0 l0,245.76 l-327.68,0 Z M0,0" transform="matrix(1,0,0,-1,0,750)"/><path fill="#006B00" stroke="#0F0" stroke-width="2" d="M0,0 l327.68,0 l0,245.76 l-327.68,0 Z M0,0" transform="matrix(-1.0,-1.2246467991473532e-16,-1.2246467991473532e-16,1.0,0,750)"/><path fill="#006100" stroke="#0F0" stroke-width="2" d="M0,0 l262.14,0 l0,245.76 l-262.14,0 Z M0,0" transform="matrix(1,0,0,-1,0,750)"/><path fill="#FF6100" stroke="#0F0" stroke-width="2" d="M0,0 l262.14,0 l0,245.76 l-262.14,0 Z M0,0" transform="matrix(0.7071067811865476,-0.7071067811865475,-0.7071067811865475,-0.7071067811865476,0,750)"/><path fill="#008200" stroke="#0F0" stroke-width="2" d="M0,0 l262.14,0 l0,196.61 l-262.14,0 Z M0,0" transform="matrix(1,0,0,-1,0,750)"/><path fill="#008200" stroke="#0F0" stroke-width="2" d="M0,0 l262.14,0 l0,196.61 l-262.14,0 Z M0,0" transform="matrix(-1.0,-1.2246467991473532e-16,-1.2246467991473532e-16,1.0,0,750)"/><path fill="#007200" stroke="#0F0" stroke-width="2" d="M0,0 l209.72,0 l0,196.61 l-209.72,0 Z M0,0" transform="matrix(1,0,0,-1,0,750)"/><path fill="#FF7200" stroke="#0F0" stroke-width="2" d="M0,0 l209.72,0 l0,196.61 l-209.72,0 Z M0,0" transform="matrix(0.7071067811865476,-0.7071067811865475,-0.7071067811865475,-0.7071067811865476,0,750)"/><path fill="#090" stroke="#0F0" stroke-width="2" d="M0,0 l209.72,0 l0,157.29 l-209.72,0 Z M0,0" transform="matrix(1,0,0,-1,0,750)"/><path fill="#090" stroke="#0F0" stroke-width="2" d="M0,0 l209.72,0 l0,157.29 l-209.72,0 Z M0,0" transform="matrix(-1.0,-1.2246467991473532e-16,-1.2246467991473532e-16,1.0,0,750)"/><path fill="#008300" stroke="#0F0" stroke-width="2" d="M0,0 l167.77,0 l0,157.29 l-167.77,0 Z M0,0" transform="matrix(1,0,0,-1,0,750)"/><path fill="#FF8300" stroke="#0F0" stroke-width="2" d="M0,0 l167.77,0 l0,157.29 l-167.77,0 Z M0,0" transform="matrix(0.7071067811865476,-0.7071067811865475,-0.7071067811865475,-0.7071067811865476,0,750)"/><path fill="#00AF00" stroke="#0F0" stroke-width="2" d="M0,0 l167.77,0 l0,125.83 l-167.77,0 Z M0,0" transform="matrix(1,0,0,-1,0,750)"/><path fill="#00AF00" stroke="#0F0" stroke-width="2" d="M0,0 l167.77,0 l0,125.83 l-167.77,0 Z M0,0" transform="matrix(-1.0,-1.2246467991473532e-16,-1.2246467991473532e-16,1.0,0,750)"/><path fill="#009400" stroke="#0F0" stroke-width="2" d="M0,0 l134.22,0 l0,125.83 l-134.22,0 Z M0,0" transform="matrix(1,0,0,-1,0,750)"/><path fill="#FF9400" stroke="#0F0" stroke-width="2" d="M0,0 l134.22,0 l0,125.83 l-134.22,0 Z M0,0" transform="matrix(0.7071067811865476,-0.7071067811865475,-0.7071067811865475,-0.7071067811865476,0,750)"/><path fill="#00C600" stroke="#0F0" stroke-width="2" d="M0,0 l134.22,0 l0,100.66 l-134.22,0 Z M0,0" transform="matrix(1,0,0,-1,0,750)"/><path fill="#00C600" stroke="#0F0" stroke-width="2" d="M0,0 l134.22,0 l0,100.66 l-134.22,0 Z M0,0" transform="matrix(-1.0,-1.2246467991473532e-16,-1.2246467991473532e-16,1.0,0,750)"/><path fill="#00A500" stroke="#0F0" stroke-width="2" d="M0,0 l107.37,0 l0,100.66 l-107.37,0 Z M0,0" transform="matrix(1,0,0,-1,0,750)"/><path fill="orange" stroke="#0F0" stroke-width="2" d="M0,0 l107.37,0 l0,100.66 l-107.37,0 Z M0,0" transform="matrix(0.7071067811865476,-0.7071067811865475,-0.7071067811865475,-0.7071067811865476,0,750)"/><path fill="#0D0" stroke="#0F0" stroke-width="2" d="M0,0 l107.37,0 l0,80.53 l-107.37,0 Z M0,0" transform="matrix(1,0,0,-1,0,750)"/><path fill="#0D0" stroke="#0F0" stroke-width="2" d="M0,0 l107.37,0 l0,80.53 l-107.37,0 Z M0,0" transform="matrix(-1.0,-1.2246467991473532e-16,-1.2246467991473532e-16,1.0,0,750)"/><path fill="#00B600" stroke="#0F0" stroke-width="2" d="M0,0 l85.9,0 l0,80.53 l-85.9,0 Z M0,0" transform="matrix(1,0,0,-1,0,750)"/><path fill="#FFB600" stroke="#0F0" stroke-width="2" d="M0,0 l85.9,0 l0,80.53 l-85.9,0 Z M0,0" transform="matrix(0.7071067811865476,-0.7071067811865475,-0.7071067811865475,-0.7071067811865476,0,750)"/><path fill="#00F300" stroke="#0F0" stroke-width="2" d="M0,0 l85.9,0 l0,64.42 l-85.9,0 Z M0,0" transform="matrix(1,0,0,-1,0,750)"/><path fill="#00F300" stroke="#0F0" stroke-width="2" d="M0,0 l85.9,0 l0,64.42 l-85.9,0 Z M0,0" transform="matrix(-1.0,-1.2246467991473532e-16,-1.2246467991473532e-16,1.0,0,750)"/><path fill="#00C700" stroke="#0F0" stroke-width="2" d="M0,0 l68.72,0 l0,64.42 l-68.72,0 Z M0,0" transform="matrix(1,0,0,-1,0,750)"/><path fill="#FFC700" stroke="#0F0" stroke-width="2" d="M0,0 l68.72,0 l0,64.42 l-68.72,0 Z M0,0" transform="matrix(0.7071067811865476,-0.7071067811865475,-0.7071067811865475,-0.7071067811865476,0,750)"/><path fill="#0F0" stroke="#0F0" stroke-width="2" d="M0,0 l68.72,0 l0,51.54 l-68.72,0 Z M0,0" transform="matrix(1,0,0,-1,0,750)"/><path fill="#0F0" stroke="#0F0" stroke-width="2" d="M0,0 l68.72,0 l0,51.54 l-68.72,0 Z M0,0" transform="matrix(-1.0,-1.2246467991473532e-16,-1.2246467991473532e-16,1.0,0,750)"/><path fill="#00D800" stroke="#0F0" stroke-width="2" d="M0,0 l54.98,0 l0,51.54 l-54.98,0 Z M0,0" transform="matrix(1,0,0,-1,0,750)"/><path fill="#FFD800" stroke="#0F0" stroke-width="2" d="M0,0 l54.98,0 l0,51.54 l-54.98,0 Z M0,0" transform="matrix(0.7071067811865476,-0.7071067811865475,-0.7071067811865475,-0.7071067811865476,0,750)"/><path fill="#0F0" stroke="#0F0" stroke-width="2" d="M0,0 l54.98,0 l0,41.23 l-54.98,0 Z M0,0" transform="matrix(1,0,0,-1,0,750)"/><path fill="#0F0" stroke="#0F0" stroke-width="2" d="M0,0 l54.98,0 l0,41.23 l-54.98,0 Z M0,0" transform="matrix(-1.0,-1.2246467991473532e-16,-1.2246467991473532e-16,1.0,0,750)"/><path fill="#00E900" stroke="#0F0" stroke-width="2" d="M0,0 l43.98,0 l0,41.23 l-43.98,0 Z M0,0" transform="matrix(1,0,0,-1,0,750)"/><path fill="#FFE900" stroke="#0F0" stroke-width="2" d="M0,0 l43.98,0 l0,41.23 l-43.98,0 Z M0,0" transform="matrix(0.7071067811865476,-0.7071067811865475,-0.7071067811865475,-0.7071067811865476,0,750)"/><path fill="#0F0" stroke="#0F0" stroke-width="2" d="M0,0 l43.98,0 l0,32.99 l-43.98,0 Z M0,0" transform="matrix(1,0,0,-1,0,750)"/><path fill="#0F0" stroke="#0F0" stroke-width="2" d="M0,0 l43.98,0 l0,32.99 l-43.98,0 Z M0,0" transform="matrix(-1.0,-1.2246467991473532e-16,-1.2246467991473532e-16,1.0,0,750)"/><path fill="#00FA00" stroke="#0F0" stroke-width="2" d="M0,0 l35.18,0 l0,32.99 l-35.18,0 Z M0,0" transform="matrix(1,0,0,-1,0,750)"/><path fill="#FFFA00" stroke="#0F0" stroke-width="2" d="M0,0 l35.18,0 l0,32.99 l-35.18,0 Z M0,0" transform="matrix(0.7071067811865476,-0.7071067811865475,-0.7071067811865475,-0.7071067811865476,0,750)"/><path fill="#0F0" stroke="#0F0" stroke-width="2" d="M0,0 l35.18,0 l0,26.39 l-35.18,0 Z M0,0" transform="matrix(1,0,0,-1,0,750)"/><path fill="#0F0" stroke="#0F0" stroke-width="2" d="M0,0 l35.18,0 l0,26.39 l-35.18,0 Z M0,0" transform="matrix(-1.0,-1.2246467991473532e-16,-1.2246467991473532e-16,1.0,0,750)"/></svg>