<svg xmlns="http://www.w3.org/2000/svg" xmlns:xlink="http://www.w3.org/1999/xlink" width="1600" height="900" version="1.1"><path fill="#000" d="M0,0 l1600,0 l0,900 l-1600,0 Z M0,0" transform="matrix(1,0,0,-1,0,900)"/><path fill="#FFF" fill-opacity="0" stroke="#0F0" stroke-width="2" d="M0,0 l1600,0 l0,900 l-1600,0 Z M0,0" transform="matrix(1,0,0,-1,0,900)"/><path fill="#000C00" fill-opacity=".25" stroke="#0F0" stroke-width="2" d="M0,0 l914.29,0 l0,900 l-914.29,0 Z M0,0" transform="matrix(1,0,0,-1,0,900)"/><path fill="#000C00" fill-opacity=".25" stroke="#0F0" stroke-width="2" d="M0,0 l914.29,0 l0,900 l-914.29,0 Z M0,0" transform="matrix(-1.0,-1.2246467991473532e-16,-1.2246467991473532e-16,1.0,1600.0,1.1368683772161603e-13)"/><path fill="#01F" fill-opacity=".25" stroke="#0FF" stroke-width="2" d="M0,0 l914.29,0 l0,514.29 l-914.29,0 Z M0,0" transform="matrix(1,0,0,-1,0,900)"/><path fill="#01F" fill-opacity=".25" stroke="#0FF" stroke-width="2" d="M0,0 l914.29,0 l0,514.29 l-914.29,0 Z M0,0" transform="matrix(-1.0,-1.2246467991473532e-16,-1.2246467991473532e-16,1.0,1600.0,1.1368683772161603e-13)"/><path fill="#001D00" fill-opacity=".25" stroke="#0F0" stroke-width="2" d="M0,0 l522.45,0 l0,514.29 l-522.45,0 Z M0,0" transform="matrix(1,0,0,-1,0,900)"/><path fill="#001D00" fill-opacity=".25" stroke="#0F0" stroke-width="2" d="M0,0 l522.45,0 l0,514.29 l-522.45,0 Z M0,0" transform="matrix(-1.0,-1.2246467991473532e-16,-1.2246467991473532e-16,1.0,1600.0,1.1368683772161603e-13)"/><path fill="#0027FF" fill-opacity=".25" stroke="#0FF" stroke-width="2" d="M0,0 l522.45,0 l0,293.88 l-522.45,0 Z M0,0" transform="matrix(1,0,0,-1,0,900)"/><path fill="#0027FF" fill-opacity=".25" stroke="#0FF" stroke-width="2" d="M0,0 l522.45,0 l0,293.88 l-522.45,0 Z M0,0" transform="matrix(-1.0,-1.2246467991473532e-16,-1.2246467991473532e-16,1.0,1600.0,1.1368683772161603e-13)"/><path fill="#002E00" fill-opacity=".25" stroke="#0F0" stroke-width="2" d="M0,0 l298.54,0 l0,293.88 l-298.54,0 Z M0,0" transform="matrix(1,0,0,-1,0,900)"/><path fill="#002E00" fill-opacity=".25" stroke="#0F0" stroke-width="2" d="M0,0 l298.54,0 l0,293.88 l-298.54,0 Z M0,0" transform="matrix(-1.0,-1.2246467991473532e-16,-1.2246467991473532e-16,1.0,1600.0,1.1368683772161603e-13)"/><path fill="#003EFF" fill-opacity=".25" stroke="#0FF" stroke-width="2" d="M0,0 l298.54,0 l0,167.93 l-298.54,0 Z M0,0" transform="matrix(1,0,0,-1,0,900)"/><path fill="#003EFF" fill-opacity=".25" stroke="#0FF" stroke-width="2" d="M0,0 l298.54,0 l0,167.93 l-298.54,0 Z M0,0" transform="matrix(-1.0,-1.2246467991473532e-16,-1.2246467991473532e-16,1.0,1600.0,1.1368683772161603e-13)"/><path fill="#003F00" fill-opacity=".25" stroke="#0F0" stroke-width="2" d="M0,0 l170.6,0 l0,167.93 l-170.6,0 Z M0,0" transform="matrix(1,0,0,-1,0,900)"/><path fill="#003F00" fill-opacity=".25" stroke="#0F0" stroke-width="2" d="M0,0 l170.6,0 l0,167.93 l-170.6,0 Z M0,0" transform="matrix(-1.0,-1.2246467991473532e-16,-1.2246467991473532e-16,1.0,1600.0,1.1368683772161603e-13)"/><path fill="#05F" fill-opacity=".25" stroke="#0FF" stroke-width="2" d="M0,0 l170.6,0 l0,95.96 l-170.6,0 Z M0,0" transform="matrix(1,0,0,-1,0,900)"/><path fill="#05F" fill-opacity=".25" stroke="#0FF" stroke-width="2" d="M0,0 l170.6,0 l0,95.96 l-170.6,0 Z M0,0" transform="matrix(-1.0,-1.2246467991473532e-16,-1.2246467991473532e-16,1.0,1600.0,1.1368683772161603e-13)"/><path fill="#005000" fill-opacity=".25" stroke="#0F0" stroke-width="2" d="M0,0 l97.48,0 l0,95.96 l-97.48,0 Z M0,0" transform="matrix(1,0,0,-1,0,900)"/><path fill="#005000" fill-opacity=".25" stroke="#0F0" stroke-width="2" d="M0,0 l97.48,0 l0,95.96 l-97.48,0 Z M0,0" transform="matrix(-1.0,-1.2246467991473532e-16,-1.2246467991473532e-16,1.0,1600.0,1.1368683772161603e-13)"/><path fill="#006BFF" fill-opacity=".25" stroke="#0FF" stroke-width="2" d="M0,0 l97.48,0 l0,54.83 l-97.48,0 Z M0,0" transform="matrix(1,0,0,-1,0,900)"/><path fill="#006BFF" fill-opacity=".25" stroke="#0FF" stroke-width="2" d="M0,0 l97.48,0 l0,54.83 l-97.48,0 Z M0,0" transform="matrix(-1.0,-1.2246467991473532e-16,-1.2246467991473532e-16,1.0,1600.0,1.1368683772161603e-13)"/><path fill="#006100" fill-opacity=".25" stroke="#0F0" stroke-width="2" d="M0,0 l55.7,0 l0,54.83 l-55.7,0 Z M0,0" transform="matrix(1,0,0,-1,0,900)"/><path fill="#006100" fill-opacity=".25" stroke="#0F0" stroke-width="2" d="M0,0 l55.7,0 l0,54.83 l-55.7,0 Z M0,0" transform="matrix(-1.0,-1.2246467991473532e-16,-1.2246467991473532e-16,1.0,1600.0,1.1368683772161603e-13)"/><path fill="#0082FF" fill-opacity=".25" stroke="#0FF" stroke-width="2" d="M0,0 l55.7,0 l0,31.33 l-55.7,0 Z M0,0" transform="matrix(1,0,0,-1,0,900)"/><path fill="#0082FF" fill-opacity=".25" stroke="#0FF" stroke-width="2" d="M0,0 l55.7,0 l0,31.33 l-55.7,0 Z M0,0" transform="matrix(-1.0,-1.2246467991473532e-16,-1.2246467991473532e-16,1.0,1600.0,1.1368683772161603e-13)"/><path fill="#007200" fill-opacity=".25" stroke="#0F0" stroke-width="2" d="M0,0 l31.83,0 l0,31.33 l-31.83,0 Z M0,0" transform="matrix(1,0,0,-1,0,900)"/><path fill="#007200" fill-opacity=".25" stroke="#0F0" stroke-width="2" d="M0,0 l31.83,0 l0,31.33 l-31.83,0 Z M0,0" transform="matrix(-1.0,-1.2246467991473532e-16,-1.2246467991473532e-16,1.0,1600.0,1.1368683772161603e-13)"/><path fill="#09F" fill-opacity=".25" stroke="#0FF" stroke-width="2" d="M0,0 l31.83,0 l0,17.91 l-31.83,0 Z M0,0" transform="matrix(1,0,0,-1,0,900)"/><path fill="#09F" fill-opacity=".25" stroke="#0FF" stroke-width="2" d="M0,0 l31.83,0 l0,17.91 l-31.83,0 Z M0,0" transform="matrix(-1.0,-1.2246467991473532e-16,-1.2246467991473532e-16,1.0,1600.0,1.1368683772161603e-13)"/><path fill="#008300" fill-opacity=".25" stroke="#0F0" stroke-width="2" d="M0,0 l18.19,0 l0,17.91 l-18.19,0 Z M0,0" transform="matrix(1,0,0,-1,0,900)"/><path fill="#008300" fill-opacity=".25" stroke="#0F0" stroke-width="2" d="M0,0 l18.19,0 l0,17.91 l-18.19,0 Z M0,0" transform="matrix(-1.0,-1.2246467991473532e-16,-1.2246467991473532e-16,1.0,1600.0,1.1368683772161603e-13)"/><path fill="#00AFFF" fill-opacity=".25" stroke="#0FF" stroke-width="2" d="M0,0 l18.19,0 l0,10.23 l-18.19,0 Z M0,0" transform="matrix(1,0,0,-1,0,900)"/><path fill="#00AFFF" fill-opacity=".25" stroke="#0FF" stroke-width="2" d="M0,0 l18.19,0 l0,10.23 l-18.19,0 Z M0,0" transform="matrix(-1.0,-1.2246467991473532e-16,-1.2246467991473532e-16,1.0,1600.0,1.1368683772161603e-13)"/><path fill="#009400" fill-opacity=".25" stroke="#0F0" stroke-width="2" d="M0,0 l10.39,0 l0,10.23 l-10.39,0 Z M0,0" transform="matrix(1,0,0,-1,0,900)"/><path fill="#009400" fill-opacity=".25" stroke="#0F0" stroke-width="2" d="M0,0 l10.39,0 l0,10.23 l-10.39,0 Z M0,0" transform="matrix(-1.0,-1.2246467991473532e-16,-1.2246467991473532e-16,1.0,1600.0,1.1368683772161603e-13)"/><path fill="#00C6FF" fill-opacity=".25" stroke="#0FF" stroke-width="2" d="M0,0 l10.39,0 l0,5.85 l-10.39,0 Z M0,0" transform="matrix(1,0,0,-1,0,900)"/><path fill="#00C6FF" fill-opacity=".25" stroke="#0FF" stroke-width="2" d="M0,0 l10.39,0 l0,5.85 l-10.39,0 Z M0,0" transform="matrix(-1.0,-1.2246467991473532e-16,-1.2246467991473532e-16,1.0,1600.0,1.1368683772161603e-13)"/><path fill="#00A500" fill-opacity=".25" stroke="#0F0" stroke-width="2" d="M0,0 l5.94,0 l0,5.85 l-5.94,0 Z M0,0" transform="matrix(1,0,0,-1,0,900)"/><path fill="#00A500" fill-opacity=".25" stroke="#0F0" stroke-width="2" d="M0,0 l5.94,0 l0,5.85 l-5.94,0 Z M0,0" transform="matrix(-1.0,-1.2246467991473532e-16,-1.2246467991473532e-16,1.0,1600.0,1.1368683772161603e-13)"/><path fill="#0DF" fill-opacity=".25" stroke="#0FF" stroke-width="2" d="M0,0 l5.94,0 l0,3.34 l-5.94,0 Z M0,0" transform="matrix(1,0,0,-1,0,900)"/><path fill="#0DF" fill-opacity=".25" stroke="#0FF" stroke-width="2" d="M0,0 l5.94,0 l0,3.34 l-5.94,0 Z M0,0" transform="matrix(-1.0,-1.2246467991473532e-16,-1.2246467991473532e-16,1.0,1600.0,1.1368683772161603e-13)"/><path fill="#00B600" fill-opacity=".25" stroke="#0F0" stroke-width="2" d="M0,0 l3.39,0 l0,3.34 l-3.39,0 Z M0,0" transform="matrix(1,0,0,-1,0,900)"/><path fill="#00B600" fill-opacity=".25" stroke="#0F0" stroke-width="2" d="M0,0 l3.39,0 l0,3.34 l-3.39,0 Z M0,0" transform="matrix(-1.0,-1.2246467991473532e-16,-1.2246467991473532e-16,1.0,1600.0,1.1368683772161603e-13)"/><path fill="#00F3FF" fill-opacity=".25" stroke="#0FF" stroke-width="2" d="M0,0 l3.39,0 l0,1.91 l-3.39,0 Z M0,0" transform="matrix(1,0,0,-1,0,900)"/><path fill="#00F3FF" fill-opacity=".25" stroke="#0FF" stroke-width="2" d="M0,0 l3.39,0 l0,1.91 l-3.39,0 Z M0,0" transform="matrix(-1.0,-1.2246467991473532e-16,-1.2246467991473532e-16,1.0,1600.0,1.1368683772161603e-13)"/><path fill="#00C700" fill-opacity=".25" stroke="#0F0" stroke-width="2" d="M0,0 l1.94,0 l0,1.91 l-1.94,0 Z M0,0" transform="matrix(1,0,0,-1,0,900)"/><path fill="#00C700" fill-opacity=".25" stroke="#0F0" stroke-width="2" d="M0,0 l1.94,0 l0,1.91 l-1.94,0 Z M0,0" transform="matrix(-1.0,-1.2246467991473532e-16,-1.2246467991473532e-16,1.0,1600.0,1.1368683772161603e-13)"/><path fill="#0FF" fill-opacity=".25" stroke="#0FF" stroke-width="2" d="M0,0 l1.94,0 l0,1.09 l-1.94,0 Z M0,0" transform="matrix(1,0,0,-1,0,900)"/><path fill="#0FF" fill-opacity=".25" stroke="#0FF" stroke-width="2" d="M0,0 l1.94,0 l0,1.09 l-1.94,0 Z M0,0" transform="matrix(-1.0,-1.2246467991473532e-16,-1.2246467991473532e-16,1.0,1600.0,1.1368683772161603e-13)"/><path fill="#00D800" fill-opacity=".25" stroke="#0F0" stroke-width="2" d="M0,0 l1.11,0 l0,1.09 l-1.11,0 Z M0,0" transform="matrix(1,0,0,-1,0,900)"/><path fill="#00D800" fill-opacity=".25" stroke="#0F0" stroke-width="2" d="M0,0 l1.11,0 l0,1.09 l-1.11,0 Z M0,0" transform="matrix(-1.0,-1.2246467991473532e-16,-1.2246467991473532e-16,1.0,1600.0,1.1368683772161603e-13)"/><path fill="#0FF" fill-opacity=".25" stroke="#0FF" stroke-width="2" d="M0,0 l1.11,0 l0,0.62 l-1.11,0 Z M0,0" transform="matrix(1,0,0,-1,0,900)"/><path fill="#0FF" fill-opacity=".25" stroke="#0FF" stroke-width="2" d="M0,0 l1.11,0 l0,0.62 l-1.11,0 Z M0,0" transform="matrix(-1.0,-1.2246467991473532e-16,-1.2246467991473532e-16,1.0,1600.0,1.1368683772161603e-13)"/><path fill="#00E900" fill-opacity=".25" stroke="#0F0" stroke-width="2" d="M0,0 l0.63,0 l0,0.62 l-0.63,0 Z M0,0" transform="matrix(1,0,0,-1,0,900)"/><path fill="#00E900" fill-opacity=".25" stroke="#0F0" stroke-width="2" d="M0,0 l0.63,0 l0,0.62 l-0.63,0 Z M0,0" transform="matrix(-1.0,-1.2246467991473532e-16,-1.2246467991473532e-16,1.0,1600.0,1.1368683772161603e-13)"/><path fill="#0FF" fill-opacity=".25" stroke="#0FF" stroke-width="2" d="M0,0 l0.63,0 l0,0.36 l-0.63,0 Z M0,0" transform="matrix(1,0,0,-1,0,900)"/><path fill="#0FF" fill-opacity=".25" stroke="#0FF" stroke-width="2" d="M0,0 l0.63,0 l0,0.36 l-0.63,0 Z M0,0" transform="matrix(-1.0,-1.2246467991473532e-16,-1.2246467991473532e-16,1.0,1600.0,1.1368683772161603e-13)"/><path fill="#00FA00" fill-opacity=".25" stroke="#0F0" stroke-width="2" d="M0,0 l0.36,0 l0,0.36 l-0.36,0 Z M0,0" transform="matrix(1,0,0,-1,0,900)"/><path fill="#00FA00" fill-opacity=".25" stroke="#0F0" stroke-width="2" d="M0,0 l0.36,0 l0,0.36 l-0.36,0 Z M0,0" transform="matrix(-1.0,-1.2246467991473532e-16,-1.2246467991473532e-16,1.0,1600.0,1.1368683772161603e-13)"/><path fill="#0FF" fill-opacity=".25" stroke="#0FF" stroke-width="2" d="M0,0 l0.36,0 l0,0.2 l-0.36,0 Z M0,0" transform="matrix(1,0,0,-1,0,900)"/><path fill="#0FF" fill-opacity=".25" stroke="#0FF" stroke-width="2" d="M0,0 l0.36,0 l0,0.2 l-0.36,0 Z M0,0" transform="matrix(-1.0,-1.2246467991473532e-16,-1.2246467991473532e-16,1.0,1600.0,1.1368683772161603e-13)"/><path fill="#0F0" fill-opacity=".25" stroke="#0F0" stroke-width="2" d="M0,0 l0.21,0 l0,0.2 l-0.21,0 Z M0,0" transform="matrix(1,0,0,-1,0,900)"/><path fill="#0F0" fill-opacity=".25" stroke="#0F0" stroke-width="2" d="M0,0 l0.21,0 l0,0.2 l-0.21,0 Z M0,0" transform="matrix(-1.0,-1.2246467991473532e-16,-1.2246467991473532e-16,1.0,1600.0,1.1368683772161603e-13)"/><path fill="#0FF" fill-opacity=".25" stroke="#0FF" stroke-width="2" d="M0,0 l0.21,0 l0,0.12 l-0.21,0 Z M0,0" transform="matrix(1,0,0,-1,0,900)"/><path fill="#0FF" fill-opacity=".25" stroke="#0FF" stroke-width="2" d="M0,0 l0.21,0 l0,0.12 l-0.21,0 Z M0,0" transform="matrix(-1.0,-1.2246467991473532e-16,-1.2246467991473532e-16,1.0,1600.0,1.1368683772161603e-13)"/><path fill="#0F0" fill-opacity=".25" stroke="#0F0" stroke-width="2" d="M0,0 l0.12,0 l0,0.12 l-0.12,0 Z M0,0" transform="matrix(1,0,0,-1,0,900)"/><path fill="#0F0" fill-opacity=".25" stroke="#0F0" stroke-width="2" d="M0,0 l0.12,0 l0,0.12 l-0.12,0 Z M0,0" transform="matrix(-1.0,-1.2246467991473532e-16,-1.2246467991473532e-16,1.0,1600.0,1.1368683772161603e-13)"/><path fill="#0FF" fill-opacity=".25" stroke="#0FF" stroke-width="2" d="M0,0 l0.12,0 l0,0.07 l-0.12,0 Z M0,0" transform="matrix(1,0,0,-1,0,900)"/><path fill="#0FF" fill-opacity=".25" stroke="#0FF" stroke-width="2" d="M0,0 l0.12,0 l0,0.07 l-0.12,0 Z M0,0" transform="matrix(-1.0,-1.2246467991473532e-16,-1.2246467991473532e-16,1.0,1600.0,1.1368683772161603e-13)"/></svg>