<svg xmlns="http://www.w3.org/2000/svg" xmlns:xlink="http://www.w3.org/1999/xlink" width="1600" height="900" version="1.1"><path fill="#000" d="M0,0 l1600,0 l0,900 l-1600,0 Z M0,0" transform="matrix(1,0,0,-1,0,900)"/><path fill="#FFF" fill-opacity="0" stroke="#0F0" stroke-width="2" d="M0,0 l1600,0 l0,900 l-1600,0 Z M0,0" transform="matrix(1,0,0,-1,0,900)"/><path fill="#000C00" fill-opacity=".25" stroke="#0F0" stroke-width="2" d="M0,0 l1280,0 l0,900 l-1280,0 Z M0,0" transform="matrix(1,0,0,-1,0,900)"/><path fill="#000C00" fill-opacity=".25" stroke="#0F0" stroke-width="2" d="M0,0 l1280,0 l0,900 l-1280,0 Z M0,0" transform="matrix(-1.0,-1.2246467991473532e-16,-1.2246467991473532e-16,1.0,1600.0,1.1368683772161603e-13)"/><path fill="#01F" fill-opacity=".25" stroke="#0FF" stroke-width="2" d="M0,0 l1280,0 l0,720 l-1280,0 Z M0,0" transform="matrix(1,0,0,-1,0,900)"/><path fill="#01F" fill-opacity=".25" stroke="#0FF" stroke-width="2" d="M0,0 l1280,0 l0,720 l-1280,0 Z M0,0" transform="matrix(-1.0,-1.2246467991473532e-16,-1.2246467991473532e-16,1.0,1600.0,1.1368683772161603e-13)"/><path fill="#001D00" fill-opacity=".25" stroke="#0F0" stroke-width="2" d="M0,0 l1024,0 l0,720 l-1024,0 Z M0,0" transform="matrix(1,0,0,-1,0,900)"/><path fill="#001D00" fill-opacity=".25" stroke="#0F0" stroke-width="2" d="M0,0 l1024,0 l0,720 l-1024,0 Z M0,0" transform="matrix(-1.0,-1.2246467991473532e-16,-1.2246467991473532e-16,1.0,1600.0,1.1368683772161603e-13)"/><path fill="#0027FF" fill-opacity=".25" stroke="#0FF" stroke-width="2" d="M0,0 l1024,0 l0,576 l-1024,0 Z M0,0" transform="matrix(1,0,0,-1,0,900)"/><path fill="#0027FF" fill-opacity=".25" stroke="#0FF" stroke-width="2" d="M0,0 l1024,0 l0,576 l-1024,0 Z M0,0" transform="matrix(-1.0,-1.2246467991473532e-16,-1.2246467991473532e-16,1.0,1600.0,1.1368683772161603e-13)"/><path fill="#002E00" fill-opacity=".25" stroke="#0F0" stroke-width="2" d="M0,0 l819.2,0 l0,576 l-819.2,0 Z M0,0" transform="matrix(1,0,0,-1,0,900)"/><path fill="#002E00" fill-opacity=".25" stroke="#0F0" stroke-width="2" d="M0,0 l819.2,0 l0,576 l-819.2,0 Z M0,0" transform="matrix(-1.0,-1.2246467991473532e-16,-1.2246467991473532e-16,1.0,1600.0,1.1368683772161603e-13)"/><path fill="#003EFF" fill-opacity=".25" stroke="#0FF" stroke-width="2" d="M0,0 l819.2,0 l0,460.8 l-819.2,0 Z M0,0" transform="matrix(1,0,0,-1,0,900)"/><path fill="#003EFF" fill-opacity=".25" stroke="#0FF" stroke-width="2" d="M0,0 l819.2,0 l0,460.8 l-819.2,0 Z M0,0" transform="matrix(-1.0,-1.2246467991473532e-16,-1.2246467991473532e-16,1.0,1600.0,1.1368683772161603e-13)"/><path fill="#003F00" fill-opacity=".25" stroke="#0F0" stroke-width="2" d="M0,0 l655.36,0 l0,460.8 l-655.36,0 Z M0,0" transform="matrix(1,0,0,-1,0,900)"/><path fill="#003F00" fill-opacity=".25" stroke="#0F0" stroke-width="2" d="M0,0 l655.36,0 l0,460.8 l-655.36,0 Z M0,0" transform="matrix(-1.0,-1.2246467991473532e-16,-1.2246467991473532e-16,1.0,1600.0,1.1368683772161603e-13)"/><path fill="#05F" fill-opacity=".25" stroke="#0FF" stroke-width="2" d="M0,0 l655.36,0 l0,368.64 l-655.36,0 Z M0,0" transform="matrix(1,0,0,-1,0,900)"/><path fill="#05F" fill-opacity=".25" stroke="#0FF" stroke-width="2" d="M0,0 l655.36,0 l0,368.64 l-655.36,0 Z M0,0" transform="matrix(-1.0,-1.2246467991473532e-16,-1.2246467991473532e-16,1.0,1600.0,1.1368683772161603e-13)"/><path fill="#005000" fill-opacity=".25" stroke="#0F0" stroke-width="2" d="M0,0 l524.29,0 l0,368.64 l-524.29,0 Z M0,0" transform="matrix(1,0,0,-1,0,900)"/><path fill="#005000" fill-opacity=".25" stroke="#0F0" stroke-width="2" d="M0,0 l524.29,0 l0,368.64 l-524.29,0 Z M0,0" transform="matrix(-1.0,-1.2246467991473532e-16,-1.2246467991473532e-16,1.0,1600.0,1.1368683772161603e-13)"/><path fill="#006BFF" fill-opacity=".25" stroke="#0FF" stroke-width="2" d="M0,0 l524.29,0 l0,294.91 l-524.29,0 Z M0,0" transform="matrix(1,0,0,-1,0,900)"/><path fill="#006BFF" fill-opacity=".25" stroke="#0FF" stroke-width="2" d="M0,0 l524.29,0 l0,294.91 l-524.29,0 Z M0,0" transform="matrix(-1.0,-1.2246467991473532e-16,-1.2246467991473532e-16,1.0,1600.0,1.1368683772161603e-13)"/><path fill="#006100" fill-opacity=".25" stroke="#0F0" stroke-width="2" d="M0,0 l419.43,0 l0,294.91 l-419.43,0 Z M0,0" transform="matrix(1,0,0,-1,0,900)"/><path fill="#006100" fill-opacity=".25" stroke="#0F0" stroke-width="2" d="M0,0 l419.43,0 l0,294.91 l-419.43,0 Z M0,0" transform="matrix(-1.0,-1.2246467991473532e-16,-1.2246467991473532e-16,1.0,1600.0,1.1368683772161603e-13)"/><path fill="#0082FF" fill-opacity=".25" stroke="#0FF" stroke-width="2" d="M0,0 l419.43,0 l0,235.93 l-419.43,0 Z M0,0" transform="matrix(1,0,0,-1,0,900)"/><path fill="#0082FF" fill-opacity=".25" stroke="#0FF" stroke-width="2" d="M0,0 l419.43,0 l0,235.93 l-419.43,0 Z M0,0" transform="matrix(-1.0,-1.2246467991473532e-16,-1.2246467991473532e-16,1.0,1600.0,1.1368683772161603e-13)"/><path fill="#007200" fill-opacity=".25" stroke="#0F0" stroke-width="2" d="M0,0 l335.54,0 l0,235.93 l-335.54,0 Z M0,0" transform="matrix(1,0,0,-1,0,900)"/><path fill="#007200" fill-opacity=".25" stroke="#0F0" stroke-width="2" d="M0,0 l335.54,0 l0,235.93 l-335.54,0 Z M0,0" transform="matrix(-1.0,-1.2246467991473532e-16,-1.2246467991473532e-16,1.0,1600.0,1.1368683772161603e-13)"/><path fill="#09F" fill-opacity=".25" stroke="#0FF" stroke-width="2" d="M0,0 l335.54,0 l0,188.74 l-335.54,0 Z M0,0" transform="matrix(1,0,0,-1,0,900)"/><path fill="#09F" fill-opacity=".25" stroke="#0FF" stroke-width="2" d="M0,0 l335.54,0 l0,188.74 l-335.54,0 Z M0,0" transform="matrix(-1.0,-1.2246467991473532e-16,-1.2246467991473532e-16,1.0,1600.0,1.1368683772161603e-13)"/><path fill="#008300" fill-opacity=".25" stroke="#0F0" stroke-width="2" d="M0,0 l268.44,0 l0,188.74 l-268.44,0 Z M0,0" transform="matrix(1,0,0,-1,0,900)"/><path fill="#008300" fill-opacity=".25" stroke="#0F0" stroke-width="2" d="M0,0 l268.44,0 l0,188.74 l-268.44,0 Z M0,0" transform="matrix(-1.0,-1.2246467991473532e-16,-1.2246467991473532e-16,1.0,1600.0,1.1368683772161603e-13)"/><path fill="#00AFFF" fill-opacity=".25" stroke="#0FF" stroke-width="2" d="M0,0 l268.44,0 l0,150.99 l-268.44,0 Z M0,0" transform="matrix(1,0,0,-1,0,900)"/><path fill="#00AFFF" fill-opacity=".25" stroke="#0FF" stroke-width="2" d="M0,0 l268.44,0 l0,150.99 l-268.44,0 Z M0,0" transform="matrix(-1.0,-1.2246467991473532e-16,-1.2246467991473532e-16,1.0,1600.0,1.1368683772161603e-13)"/><path fill="#009400" fill-opacity=".25" stroke="#0F0" stroke-width="2" d="M0,0 l214.75,0 l0,150.99 l-214.75,0 Z M0,0" transform="matrix(1,0,0,-1,0,900)"/><path fill="#009400" fill-opacity=".25" stroke="#0F0" stroke-width="2" d="M0,0 l214.75,0 l0,150.99 l-214.75,0 Z M0,0" transform="matrix(-1.0,-1.2246467991473532e-16,-1.2246467991473532e-16,1.0,1600.0,1.1368683772161603e-13)"/><path fill="#00C6FF" fill-opacity=".25" stroke="#0FF" stroke-width="2" d="M0,0 l214.75,0 l0,120.8 l-214.75,0 Z M0,0" transform="matrix(1,0,0,-1,0,900)"/><path fill="#00C6FF" fill-opacity=".25" stroke="#0FF" stroke-width="2" d="M0,0 l214.75,0 l0,120.8 l-214.75,0 Z M0,0" transform="matrix(-1.0,-1.2246467991473532e-16,-1.2246467991473532e-16,1.0,1600.0,1.1368683772161603e-13)"/><path fill="#00A500" fill-opacity=".25" stroke="#0F0" stroke-width="2" d="M0,0 l171.8,0 l0,120.8 l-171.8,0 Z M0,0" transform="matrix(1,0,0,-1,0,900)"/><path fill="#00A500" fill-opacity=".25" stroke="#0F0" stroke-width="2" d="M0,0 l171.8,0 l0,120.8 l-171.8,0 Z M0,0" transform="matrix(-1.0,-1.2246467991473532e-16,-1.2246467991473532e-16,1.0,1600.0,1.1368683772161603e-13)"/><path fill="#0DF" fill-opacity=".25" stroke="#0FF" stroke-width="2" d="M0,0 l171.8,0 l0,96.64 l-171.8,0 Z M0,0" transform="matrix(1,0,0,-1,0,900)"/><path fill="#0DF" fill-opacity=".25" stroke="#0FF" stroke-width="2" d="M0,0 l171.8,0 l0,96.64 l-171.8,0 Z M0,0" transform="matrix(-1.0,-1.2246467991473532e-16,-1.2246467991473532e-16,1.0,1600.0,1.1368683772161603e-13)"/><path fill="#00B600" fill-opacity=".25" stroke="#0F0" stroke-width="2" d="M0,0 l137.44,0 l0,96.64 l-137.44,0 Z M0,0" transform="matrix(1,0,0,-1,0,900)"/><path fill="#00B600" fill-opacity=".25" stroke="#0F0" stroke-width="2" d="M0,0 l137.44,0 l0,96.64 l-137.44,0 Z M0,0" transform="matrix(-1.0,-1.2246467991473532e-16,-1.2246467991473532e-16,1.0,1600.0,1.1368683772161603e-13)"/><path fill="#00F3FF" fill-opacity=".25" stroke="#0FF" stroke-width="2" d="M0,0 l137.44,0 l0,77.31 l-137.44,0 Z M0,0" transform="matrix(1,0,0,-1,0,900)"/><path fill="#00F3FF" fill-opacity=".25" stroke="#0FF" stroke-width="2" d="M0,0 l137.44,0 l0,77.31 l-137.44,0 Z M0,0" transform="matrix(-1.0,-1.2246467991473532e-16,-1.2246467991473532e-16,1.0,1600.0,1.1368683772161603e-13)"/><path fill="#00C700" fill-opacity=".25" stroke="#0F0" stroke-width="2" d="M0,0 l109.95,0 l0,77.31 l-109.95,0 Z M0,0" transform="matrix(1,0,0,-1,0,900)"/><path fill="#00C700" fill-opacity=".25" stroke="#0F0" stroke-width="2" d="M0,0 l109.95,0 l0,77.31 l-109.95,0 Z M0,0" transform="matrix(-1.0,-1.2246467991473532e-16,-1.2246467991473532e-16,1.0,1600.0,1.1368683772161603e-13)"/><path fill="#0FF" fill-opacity=".25" stroke="#0FF" stroke-width="2" d="M0,0 l109.95,0 l0,61.85 l-109.95,0 Z M0,0" transform="matrix(1,0,0,-1,0,900)"/><path fill="#0FF" fill-opacity=".25" stroke="#0FF" stroke-width="2" d="M0,0 l109.95,0 l0,61.85 l-109.95,0 Z M0,0" transform="matrix(-1.0,-1.2246467991473532e-16,-1.2246467991473532e-16,1.0,1600.0,1.1368683772161603e-13)"/><path fill="#00D800" fill-opacity=".25" stroke="#0F0" stroke-width="2" d="M0,0 l87.96,0 l0,61.85 l-87.96,0 Z M0,0" transform="matrix(1,0,0,-1,0,900)"/><path fill="#00D800" fill-opacity=".25" stroke="#0F0" stroke-width="2" d="M0,0 l87.96,0 l0,61.85 l-87.96,0 Z M0,0" transform="matrix(-1.0,-1.2246467991473532e-16,-1.2246467991473532e-16,1.0,1600.0,1.1368683772161603e-13)"/><path fill="#0FF" fill-opacity=".25" stroke="#0FF" stroke-width="2" d="M0,0 l87.96,0 l0,49.48 l-87.96,0 Z M0,0" transform="matrix(1,0,0,-1,0,900)"/><path fill="#0FF" fill-opacity=".25" stroke="#0FF" stroke-width="2" d="M0,0 l87.96,0 l0,49.48 l-87.96,0 Z M0,0" transform="matrix(-1.0,-1.2246467991473532e-16,-1.2246467991473532e-16,1.0,1600.0,1.1368683772161603e-13)"/><path fill="#00E900" fill-opacity=".25" stroke="#0F0" stroke-width="2" d="M0,0 l70.37,0 l0,49.48 l-70.37,0 Z M0,0" transform="matrix(1,0,0,-1,0,900)"/><path fill="#00E900" fill-opacity=".25" stroke="#0F0" stroke-width="2" d="M0,0 l70.37,0 l0,49.48 l-70.37,0 Z M0,0" transform="matrix(-1.0,-1.2246467991473532e-16,-1.2246467991473532e-16,1.0,1600.0,1.1368683772161603e-13)"/><path fill="#0FF" fill-opacity=".25" stroke="#0FF" stroke-width="2" d="M0,0 l70.37,0 l0,39.58 l-70.37,0 Z M0,0" transform="matrix(1,0,0,-1,0,900)"/><path fill="#0FF" fill-opacity=".25" stroke="#0FF" stroke-width="2" d="M0,0 l70.37,0 l0,39.58 l-70.37,0 Z M0,0" transform="matrix(-1.0,-1.2246467991473532e-16,-1.2246467991473532e-16,1.0,1600.0,1.1368683772161603e-13)"/><path fill="#00FA00" fill-opacity=".25" stroke="#0F0" stroke-width="2" d="M0,0 l56.29,0 l0,39.58 l-56.29,0 Z M0,0" transform="matrix(1,0,0,-1,0,900)"/><path fill="#00FA00" fill-opacity=".25" stroke="#0F0" stroke-width="2" d="M0,0 l56.29,0 l0,39.58 l-56.29,0 Z M0,0" transform="matrix(-1.0,-1.2246467991473532e-16,-1.2246467991473532e-16,1.0,1600.0,1.1368683772161603e-13)"/><path fill="#0FF" fill-opacity=".25" stroke="#0FF" stroke-width="2" d="M0,0 l56.29,0 l0,31.67 l-56.29,0 Z M0,0" transform="matrix(1,0,0,-1,0,900)"/><path fill="#0FF" fill-opacity=".25" stroke="#0FF" stroke-width="2" d="M0,0 l56.29,0 l0,31.67 l-56.29,0 Z M0,0" transform="matrix(-1.0,-1.2246467991473532e-16,-1.2246467991473532e-16,1.0,1600.0,1.1368683772161603e-13)"/><path fill="#0F0" fill-opacity=".25" stroke="#0F0" stroke-width="2" d="M0,0 l45.04,0 l0,31.67 l-45.04,0 Z M0,0" transform="matrix(1,0,0,-1,0,900)"/><path fill="#0F0" fill-opacity=".25" stroke="#0F0" stroke-width="2" d="M0,0 l45.04,0 l0,31.67 l-45.04,0 Z M0,0" transform="matrix(-1.0,-1.2246467991473532e-16,-1.2246467991473532e-16,1.0,1600.0,1.1368683772161603e-13)"/><path fill="#0FF" fill-opacity=".25" stroke="#0FF" stroke-width="2" d="M0,0 l45.04,0 l0,25.33 l-45.04,0 Z M0,0" transform="matrix(1,0,0,-1,0,900)"/><path fill="#0FF" fill-opacity=".25" stroke="#0FF" stroke-width="2" d="M0,0 l45.04,0 l0,25.33 l-45.04,0 Z M0,0" transform="matrix(-1.0,-1.2246467991473532e-16,-1.2246467991473532e-16,1.0,1600.0,1.1368683772161603e-13)"/><path fill="#0F0" fill-opacity=".25" stroke="#0F0" stroke-width="2" d="M0,0 l36.03,0 l0,25.33 l-36.03,0 Z M0,0" transform="matrix(1,0,0,-1,0,900)"/><path fill="#0F0" fill-opacity=".25" stroke="#0F0" stroke-width="2" d="M0,0 l36.03,0 l0,25.33 l-36.03,0 Z M0,0" transform="matrix(-1.0,-1.2246467991473532e-16,-1.2246467991473532e-16,1.0,1600.0,1.1368683772161603e-13)"/><path fill="#0FF" fill-opacity=".25" stroke="#0FF" stroke-width="2" d="M0,0 l36.03,0 l0,20.27 l-36.03,0 Z M0,0" transform="matrix(1,0,0,-1,0,900)"/><path fill="#0FF" fill-opacity=".25" stroke="#0FF" stroke-width="2" d="M0,0 l36.03,0 l0,20.27 l-36.03,0 Z M0,0" transform="matrix(-1.0,-1.2246467991473532e-16,-1.2246467991473532e-16,1.0,1600.0,1.1368683772161603e-13)"/></svg>