<svg xmlns="http://www.w3.org/2000/svg" xmlns:xlink="http://www.w3.org/1999/xlink" width="650" height="900" version="1.1"><path fill="#0050FF" d="M0,0 l650,0 l0,900 l-650,0 Z M0,0" transform="matrix(1,0,0,-1,0,900)"/><path fill="#0050FF" d="M85,50 l480,0 l0,800 l-480,0 Z M85,50" transform="matrix(1,0,0,-1,0,900)"/><path fill="#0050FF" stroke="#FFF" stroke-dasharray="2 2" stroke-opacity=".25" stroke-width="1" d="M565,0 l0,900" transform="matrix(1,0,0,-1,0,900)"/><path fill="#0050FF" stroke="#FFF" stroke-dasharray="2 2" stroke-opacity=".25" stroke-width="1" d="M85,0 l0,900" transform="matrix(1,0,0,-1,0,900)"/><path fill="#0050FF" stroke="#FFF" stroke-dasharray="2 2" stroke-opacity=".25" stroke-width="1" d="M0,250 l650,0" transform="matrix(1,0,0,-1,0,900)"/><path fill="#0050FF" stroke="#FFF" stroke-dasharray="2 2" stroke-opacity=".25" stroke-width="1" d="M0,50 l650,0" transform="matrix(1,0,0,-1,0,900)"/><path fill="#0050FF" stroke="#FFF" stroke-dasharray="2 2" stroke-opacity=".25" stroke-width="1" d="M0,850 l650,0" transform="matrix(1,0,0,-1,0,900)"/><path fill="#0050FF" stroke="#FFF" stroke-dasharray="2 2" stroke-opacity=".25" stroke-width="1" d="M0,670.8 l650,0" transform="matrix(1,0,0,-1,0,900)"/><path fill="#0050FF" stroke="#FFF" stroke-dasharray="2 2" stroke-opacity=".25" stroke-width="1" d="M0,810 l650,0" transform="matrix(1,0,0,-1,0,900)"/><path fill="#FFF" stroke="#226" stroke-linejoin="round" stroke-width="1" d="M155,80 c-9,-38,7,-84,72,-87 l97,-5 c66,-3,88,-41,75,-87 l-2,-7 c-6,-21,-17,-49,-30,-63 c-54,-27,-102,-34,-179,-34 l-49,0 c-109,0,-135,45,-123,94 l2,8 c15,61,70,99,163,111 l-21,38 l-8,-15 c-104,-11,-163,-54,-185,-131 l-2,-7 c-18,-64,29,-145,149,-145 l47,0 c215,0,270,77,288,151 l2,8 c15,61,-14,120,-105,126 l-99,7 c-38,3,-47,17,-41,40 c7,30,33,70,72,93 l-63,2 l2,-14 c-30,-19,-53,-48,-62,-83 Z M422,497 c51,-40,72,-104,52,-172 l-2,-7 c-23,-81,-85,-115,-183,-115 c-41,0,-75,7,-111,24 c-34,33,-35,83,-25,123 l2,7 c27,95,96,137,207,137 c144,0,192,-16,229,-16 c17,0,26,17,31,33 c2,7,2,10,2,15 c-96,9,-170,15,-258,15 c-146,0,-234,-70,-261,-169 l-3,-11 c-28,-101,44,-200,179,-200 c132,0,203,42,235,148 l3,10 c21,68,5,122,-40,164 l6,17 Z M422,497" transform="matrix(0.8,0.0,0.0,-0.8,85.0,650.0)"/><path fill="#000" stroke="#000" stroke-width="1" d="M155,80 l9,35" transform="matrix(0.8,0.0,0.0,-0.8,85.0,650.0)"/><path fill="#000" stroke="#000" stroke-width="1" d="M162,113 l4,0 l0,4 l-4,0 Z M162,113" transform="matrix(0.8,0.0,0.0,-0.8,85.0,650.0)"/><path fill="#000" stroke="#000" stroke-width="1" d="M155,80 l-9,-38" transform="matrix(0.8,0.0,0.0,-0.8,85.0,650.0)"/><path fill="#000" stroke="#000" stroke-width="1" d="M144,40 l4,0 l0,4 l-4,0 Z M144,40" transform="matrix(0.8,0.0,0.0,-0.8,85.0,650.0)"/><path fill="#FFF" stroke="#000" stroke-width="1" d="M157.83,77.17 c1.56,1.56,1.56,4.09,0,5.66 c-1.56,1.56,-4.09,1.56,-5.66,0 c-1.56,-1.56,-1.56,-4.09,0,-5.66 c1.56,-1.56,4.09,-1.56,5.66,0 Z M157.83,77.17" transform="matrix(0.8,0.0,0.0,-0.8,85.0,650.0)"/><path fill="#000" stroke="#000" stroke-width="1" d="M227,-7 l-65,3" transform="matrix(0.8,0.0,0.0,-0.8,85.0,650.0)"/><path fill="#000" stroke="#000" stroke-width="1" d="M160,-6 l4,0 l0,4 l-4,0 Z M160,-6" transform="matrix(0.8,0.0,0.0,-0.8,85.0,650.0)"/><path fill="#FFF" stroke="#000" stroke-width="1" d="M229.83,-9.83 c1.56,1.56,1.56,4.09,0,5.66 c-1.56,1.56,-4.09,1.56,-5.66,0 c-1.56,-1.56,-1.56,-4.09,0,-5.66 c1.56,-1.56,4.09,-1.56,5.66,-0.0 Z M229.83,-9.83" transform="matrix(0.8,0.0,0.0,-0.8,85.0,650.0)"/><path fill="#000" stroke="#000" stroke-width="1" d="M324,-12 l66,-3" transform="matrix(0.8,0.0,0.0,-0.8,85.0,650.0)"/><path fill="#000" stroke="#000" stroke-width="1" d="M388,-17 l4,0 l0,4 l-4,0 Z M388,-17" transform="matrix(0.8,0.0,0.0,-0.8,85.0,650.0)"/><path fill="#FFF" stroke="#000" stroke-width="1" d="M326.83,-14.83 c1.56,1.56,1.56,4.09,0,5.66 c-1.56,1.56,-4.09,1.56,-5.66,0 c-1.56,-1.56,-1.56,-4.09,0,-5.66 c1.56,-1.56,4.09,-1.56,5.66,-0.0 Z M326.83,-14.83" transform="matrix(0.8,0.0,0.0,-0.8,85.0,650.0)"/><path fill="#000" stroke="#000" stroke-width="1" d="M399,-99 l13,46" transform="matrix(0.8,0.0,0.0,-0.8,85.0,650.0)"/><path fill="#000" stroke="#000" stroke-width="1" d="M410,-55 l4,0 l0,4 l-4,0 Z M410,-55" transform="matrix(0.8,0.0,0.0,-0.8,85.0,650.0)"/><path fill="#FFF" stroke="#000" stroke-width="1" d="M401.83,-101.83 c1.56,1.56,1.56,4.09,0,5.66 c-1.56,1.56,-4.09,1.56,-5.66,0 c-1.56,-1.56,-1.56,-4.09,0,-5.66 c1.56,-1.56,4.09,-1.56,5.66,0 Z M401.83,-101.83" transform="matrix(0.8,0.0,0.0,-0.8,85.0,650.0)"/><path fill="#000" stroke="#000" stroke-width="1" d="M397,-106 l-6,-21" transform="matrix(0.8,0.0,0.0,-0.8,85.0,650.0)"/><path fill="#000" stroke="#000" stroke-width="1" d="M389,-129 l4,0 l0,4 l-4,0 Z M389,-129" transform="matrix(0.8,0.0,0.0,-0.8,85.0,650.0)"/><path fill="#FFF" stroke="#000" stroke-width="1" d="M399.83,-108.83 c1.56,1.56,1.56,4.09,0,5.66 c-1.56,1.56,-4.09,1.56,-5.66,0 c-1.56,-1.56,-1.56,-4.09,0,-5.66 c1.56,-1.56,4.09,-1.56,5.66,0 Z M399.83,-108.83" transform="matrix(0.8,0.0,0.0,-0.8,85.0,650.0)"/><path fill="#000" stroke="#000" stroke-width="1" d="M367,-169 l13,14" transform="matrix(0.8,0.0,0.0,-0.8,85.0,650.0)"/><path fill="#000" stroke="#000" stroke-width="1" d="M378,-157 l4,0 l0,4 l-4,0 Z M378,-157" transform="matrix(0.8,0.0,0.0,-0.8,85.0,650.0)"/><path fill="#000" stroke="#000" stroke-width="1" d="M367,-169 l-54,-27" transform="matrix(0.8,0.0,0.0,-0.8,85.0,650.0)"/><path fill="#000" stroke="#000" stroke-width="1" d="M311,-198 l4,0 l0,4 l-4,0 Z M311,-198" transform="matrix(0.8,0.0,0.0,-0.8,85.0,650.0)"/><path fill="#FFF" stroke="#000" stroke-width="1" d="M363,-173 l8,0 l0,8 l-8,0 Z M363,-173" transform="matrix(0.8,0.0,0.0,-0.8,85.0,650.0)"/><path fill="#000" stroke="#000" stroke-width="1" d="M188,-203 l77,0" transform="matrix(0.8,0.0,0.0,-0.8,85.0,650.0)"/><path fill="#000" stroke="#000" stroke-width="1" d="M263,-205 l4,0 l0,4 l-4,0 Z M263,-205" transform="matrix(0.8,0.0,0.0,-0.8,85.0,650.0)"/><path fill="#FFF" stroke="#000" stroke-width="1" d="M190.83,-205.83 c1.56,1.56,1.56,4.09,0,5.66 c-1.56,1.56,-4.09,1.56,-5.66,0 c-1.56,-1.56,-1.56,-4.09,0,-5.66 c1.56,-1.56,4.09,-1.56,5.66,0 Z M190.83,-205.83" transform="matrix(0.8,0.0,0.0,-0.8,85.0,650.0)"/><path fill="#000" stroke="#000" stroke-width="1" d="M139,-203 l-109,0" transform="matrix(0.8,0.0,0.0,-0.8,85.0,650.0)"/><path fill="#000" stroke="#000" stroke-width="1" d="M28,-205 l4,0 l0,4 l-4,0 Z M28,-205" transform="matrix(0.8,0.0,0.0,-0.8,85.0,650.0)"/><path fill="#FFF" stroke="#000" stroke-width="1" d="M141.83,-205.83 c1.56,1.56,1.56,4.09,0,5.66 c-1.56,1.56,-4.09,1.56,-5.66,0 c-1.56,-1.56,-1.56,-4.09,0,-5.66 c1.56,-1.56,4.09,-1.56,5.66,0 Z M141.83,-205.83" transform="matrix(0.8,0.0,0.0,-0.8,85.0,650.0)"/><path fill="#000" stroke="#000" stroke-width="1" d="M16,-109 l-12,-49" transform="matrix(0.8,0.0,0.0,-0.8,85.0,650.0)"/><path fill="#000" stroke="#000" stroke-width="1" d="M2,-160 l4,0 l0,4 l-4,0 Z M2,-160" transform="matrix(0.8,0.0,0.0,-0.8,85.0,650.0)"/><path fill="#FFF" stroke="#000" stroke-width="1" d="M18.83,-111.83 c1.56,1.56,1.56,4.09,0,5.66 c-1.56,1.56,-4.09,1.56,-5.66,0 c-1.56,-1.56,-1.56,-4.09,-0.0,-5.66 c1.56,-1.56,4.09,-1.56,5.66,0 Z M18.83,-111.83" transform="matrix(0.8,0.0,0.0,-0.8,85.0,650.0)"/><path fill="#000" stroke="#000" stroke-width="1" d="M18,-101 l15,61" transform="matrix(0.8,0.0,0.0,-0.8,85.0,650.0)"/><path fill="#000" stroke="#000" stroke-width="1" d="M31,-42 l4,0 l0,4 l-4,0 Z M31,-42" transform="matrix(0.8,0.0,0.0,-0.8,85.0,650.0)"/><path fill="#FFF" stroke="#000" stroke-width="1" d="M20.83,-103.83 c1.56,1.56,1.56,4.09,0,5.66 c-1.56,1.56,-4.09,1.56,-5.66,0 c-1.56,-1.56,-1.56,-4.09,-0.0,-5.66 c1.56,-1.56,4.09,-1.56,5.66,0 Z M20.83,-103.83" transform="matrix(0.8,0.0,0.0,-0.8,85.0,650.0)"/><path fill="#000" stroke="#000" stroke-width="1" d="M181,10 l-93,-12" transform="matrix(0.8,0.0,0.0,-0.8,85.0,650.0)"/><path fill="#000" stroke="#000" stroke-width="1" d="M86,-4 l4,0 l0,4 l-4,0 Z M86,-4" transform="matrix(0.8,0.0,0.0,-0.8,85.0,650.0)"/><path fill="#FFF" stroke="#000" stroke-width="1" d="M177,6 l8,0 l0,8 l-8,0 Z M177,6" transform="matrix(0.8,0.0,0.0,-0.8,85.0,650.0)"/><path fill="#FFF" stroke="#000" stroke-width="1" d="M156,44 l8,0 l0,8 l-8,0 Z M156,44" transform="matrix(0.8,0.0,0.0,-0.8,85.0,650.0)"/><path fill="#000" stroke="#000" stroke-width="1" d="M152,33 l-104,-11" transform="matrix(0.8,0.0,0.0,-0.8,85.0,650.0)"/><path fill="#000" stroke="#000" stroke-width="1" d="M46,20 l4,0 l0,4 l-4,0 Z M46,20" transform="matrix(0.8,0.0,0.0,-0.8,85.0,650.0)"/><path fill="#FFF" stroke="#000" stroke-width="1" d="M148,29 l8,0 l0,8 l-8,0 Z M148,29" transform="matrix(0.8,0.0,0.0,-0.8,85.0,650.0)"/><path fill="#000" stroke="#000" stroke-width="1" d="M-33,-98 l22,77" transform="matrix(0.8,0.0,0.0,-0.8,85.0,650.0)"/><path fill="#000" stroke="#000" stroke-width="1" d="M-13,-23 l4,0 l0,4 l-4,0 Z M-13,-23" transform="matrix(0.8,0.0,0.0,-0.8,85.0,650.0)"/><path fill="#FFF" stroke="#000" stroke-width="1" d="M-30.17,-100.83 c1.56,1.56,1.56,4.09,0,5.66 c-1.56,1.56,-4.09,1.56,-5.66,0 c-1.56,-1.56,-1.56,-4.09,0,-5.66 c1.56,-1.56,4.09,-1.56,5.66,0 Z M-30.17,-100.83" transform="matrix(0.8,0.0,0.0,-0.8,85.0,650.0)"/><path fill="#000" stroke="#000" stroke-width="1" d="M-35,-105 l-18,-64" transform="matrix(0.8,0.0,0.0,-0.8,85.0,650.0)"/><path fill="#000" stroke="#000" stroke-width="1" d="M-55,-171 l4,0 l0,4 l-4,0 Z M-55,-171" transform="matrix(0.8,0.0,0.0,-0.8,85.0,650.0)"/><path fill="#FFF" stroke="#000" stroke-width="1" d="M-32.17,-107.83 c1.56,1.56,1.56,4.09,0,5.66 c-1.56,1.56,-4.09,1.56,-5.66,0 c-1.56,-1.56,-1.56,-4.09,0,-5.66 c1.56,-1.56,4.09,-1.56,5.66,0 Z M-32.17,-107.83" transform="matrix(0.8,0.0,0.0,-0.8,85.0,650.0)"/><path fill="#000" stroke="#000" stroke-width="1" d="M114,-250 l-120,0" transform="matrix(0.8,0.0,0.0,-0.8,85.0,650.0)"/><path fill="#000" stroke="#000" stroke-width="1" d="M-8,-252 l4,0 l0,4 l-4,0 Z M-8,-252" transform="matrix(0.8,0.0,0.0,-0.8,85.0,650.0)"/><path fill="#FFF" stroke="#000" stroke-width="1" d="M116.83,-252.83 c1.56,1.56,1.56,4.09,0,5.66 c-1.56,1.56,-4.09,1.56,-5.66,0 c-1.56,-1.56,-1.56,-4.09,0,-5.66 c1.56,-1.56,4.09,-1.56,5.66,0 Z M116.83,-252.83" transform="matrix(0.8,0.0,0.0,-0.8,85.0,650.0)"/><path fill="#000" stroke="#000" stroke-width="1" d="M161,-250 l215,0" transform="matrix(0.8,0.0,0.0,-0.8,85.0,650.0)"/><path fill="#000" stroke="#000" stroke-width="1" d="M374,-252 l4,0 l0,4 l-4,0 Z M374,-252" transform="matrix(0.8,0.0,0.0,-0.8,85.0,650.0)"/><path fill="#FFF" stroke="#000" stroke-width="1" d="M163.83,-252.83 c1.56,1.56,1.56,4.09,0,5.66 c-1.56,1.56,-4.09,1.56,-5.66,0 c-1.56,-1.56,-1.56,-4.09,0,-5.66 c1.56,-1.56,4.09,-1.56,5.66,0 Z M163.83,-252.83" transform="matrix(0.8,0.0,0.0,-0.8,85.0,650.0)"/><path fill="#000" stroke="#000" stroke-width="1" d="M449,-99 l-18,-74" transform="matrix(0.8,0.0,0.0,-0.8,85.0,650.0)"/><path fill="#000" stroke="#000" stroke-width="1" d="M429,-175 l4,0 l0,4 l-4,0 Z M429,-175" transform="matrix(0.8,0.0,0.0,-0.8,85.0,650.0)"/><path fill="#FFF" stroke="#000" stroke-width="1" d="M451.83,-101.83 c1.56,1.56,1.56,4.09,0,5.66 c-1.56,1.56,-4.09,1.56,-5.66,0 c-1.56,-1.56,-1.56,-4.09,0,-5.66 c1.56,-1.56,4.09,-1.56,5.66,0 Z M451.83,-101.83" transform="matrix(0.8,0.0,0.0,-0.8,85.0,650.0)"/><path fill="#000" stroke="#000" stroke-width="1" d="M451,-91 l15,61" transform="matrix(0.8,0.0,0.0,-0.8,85.0,650.0)"/><path fill="#000" stroke="#000" stroke-width="1" d="M464,-32 l4,0 l0,4 l-4,0 Z M464,-32" transform="matrix(0.8,0.0,0.0,-0.8,85.0,650.0)"/><path fill="#FFF" stroke="#000" stroke-width="1" d="M453.83,-93.83 c1.56,1.56,1.56,4.09,0,5.66 c-1.56,1.56,-4.09,1.56,-5.66,0 c-1.56,-1.56,-1.56,-4.09,0,-5.66 c1.56,-1.56,4.09,-1.56,5.66,0 Z M453.83,-93.83" transform="matrix(0.8,0.0,0.0,-0.8,85.0,650.0)"/><path fill="#000" stroke="#000" stroke-width="1" d="M346,35 l91,-6" transform="matrix(0.8,0.0,0.0,-0.8,85.0,650.0)"/><path fill="#000" stroke="#000" stroke-width="1" d="M435,27 l4,0 l0,4 l-4,0 Z M435,27" transform="matrix(0.8,0.0,0.0,-0.8,85.0,650.0)"/><path fill="#FFF" stroke="#000" stroke-width="1" d="M348.83,32.17 c1.56,1.56,1.56,4.09,0,5.66 c-1.56,1.56,-4.09,1.56,-5.66,0 c-1.56,-1.56,-1.56,-4.09,0,-5.66 c1.56,-1.56,4.09,-1.56,5.66,0 Z M348.83,32.17" transform="matrix(0.8,0.0,0.0,-0.8,85.0,650.0)"/><path fill="#000" stroke="#000" stroke-width="1" d="M247,42 l-38,3" transform="matrix(0.8,0.0,0.0,-0.8,85.0,650.0)"/><path fill="#000" stroke="#000" stroke-width="1" d="M207,43 l4,0 l0,4 l-4,0 Z M207,43" transform="matrix(0.8,0.0,0.0,-0.8,85.0,650.0)"/><path fill="#FFF" stroke="#000" stroke-width="1" d="M249.83,39.17 c1.56,1.56,1.56,4.09,0,5.66 c-1.56,1.56,-4.09,1.56,-5.66,0 c-1.56,-1.56,-1.56,-4.09,0,-5.66 c1.56,-1.56,4.09,-1.56,5.66,0 Z M249.83,39.17" transform="matrix(0.8,0.0,0.0,-0.8,85.0,650.0)"/><path fill="#000" stroke="#000" stroke-width="1" d="M206,82 l-6,-23" transform="matrix(0.8,0.0,0.0,-0.8,85.0,650.0)"/><path fill="#000" stroke="#000" stroke-width="1" d="M198,57 l4,0 l0,4 l-4,0 Z M198,57" transform="matrix(0.8,0.0,0.0,-0.8,85.0,650.0)"/><path fill="#000" stroke="#000" stroke-width="1" d="M206,82 l7,30" transform="matrix(0.8,0.0,0.0,-0.8,85.0,650.0)"/><path fill="#000" stroke="#000" stroke-width="1" d="M211,110 l4,0 l0,4 l-4,0 Z M211,110" transform="matrix(0.8,0.0,0.0,-0.8,85.0,650.0)"/><path fill="#FFF" stroke="#000" stroke-width="1" d="M208.83,79.17 c1.56,1.56,1.56,4.09,0,5.66 c-1.56,1.56,-4.09,1.56,-5.66,0 c-1.56,-1.56,-1.56,-4.09,0,-5.66 c1.56,-1.56,4.09,-1.56,5.66,0 Z M208.83,79.17" transform="matrix(0.8,0.0,0.0,-0.8,85.0,650.0)"/><path fill="#000" stroke="#000" stroke-width="1" d="M278,175 l-39,-23" transform="matrix(0.8,0.0,0.0,-0.8,85.0,650.0)"/><path fill="#000" stroke="#000" stroke-width="1" d="M237,150 l4,0 l0,4 l-4,0 Z M237,150" transform="matrix(0.8,0.0,0.0,-0.8,85.0,650.0)"/><path fill="#FFF" stroke="#000" stroke-width="1" d="M274,171 l8,0 l0,8 l-8,0 Z M274,171" transform="matrix(0.8,0.0,0.0,-0.8,85.0,650.0)"/><path fill="#FFF" stroke="#000" stroke-width="1" d="M211,173 l8,0 l0,8 l-8,0 Z M211,173" transform="matrix(0.8,0.0,0.0,-0.8,85.0,650.0)"/><path fill="#000" stroke="#000" stroke-width="1" d="M217,163 l-30,-19" transform="matrix(0.8,0.0,0.0,-0.8,85.0,650.0)"/><path fill="#000" stroke="#000" stroke-width="1" d="M185,142 l4,0 l0,4 l-4,0 Z M185,142" transform="matrix(0.8,0.0,0.0,-0.8,85.0,650.0)"/><path fill="#FFF" stroke="#000" stroke-width="1" d="M213,159 l8,0 l0,8 l-8,0 Z M213,159" transform="matrix(0.8,0.0,0.0,-0.8,85.0,650.0)"/><path fill="#000" stroke="#000" stroke-width="1" d="M422,497 l51,-40" transform="matrix(0.8,0.0,0.0,-0.8,85.0,650.0)"/><path fill="#000" stroke="#000" stroke-width="1" d="M471,455 l4,0 l0,4 l-4,0 Z M471,455" transform="matrix(0.8,0.0,0.0,-0.8,85.0,650.0)"/><path fill="#FFF" stroke="#000" stroke-width="1" d="M418,493 l8,0 l0,8 l-8,0 Z M418,493" transform="matrix(0.8,0.0,0.0,-0.8,85.0,650.0)"/><path fill="#000" stroke="#000" stroke-width="1" d="M474,325 l20,68" transform="matrix(0.8,0.0,0.0,-0.8,85.0,650.0)"/><path fill="#000" stroke="#000" stroke-width="1" d="M492,391 l4,0 l0,4 l-4,0 Z M492,391" transform="matrix(0.8,0.0,0.0,-0.8,85.0,650.0)"/><path fill="#FFF" stroke="#000" stroke-width="1" d="M476.83,322.17 c1.56,1.56,1.56,4.09,0,5.66 c-1.56,1.56,-4.09,1.56,-5.66,0 c-1.56,-1.56,-1.56,-4.09,0,-5.66 c1.56,-1.56,4.09,-1.56,5.66,0 Z M476.83,322.17" transform="matrix(0.8,0.0,0.0,-0.8,85.0,650.0)"/><path fill="#000" stroke="#000" stroke-width="1" d="M472,318 l-23,-81" transform="matrix(0.8,0.0,0.0,-0.8,85.0,650.0)"/><path fill="#000" stroke="#000" stroke-width="1" d="M447,235 l4,0 l0,4 l-4,0 Z M447,235" transform="matrix(0.8,0.0,0.0,-0.8,85.0,650.0)"/><path fill="#FFF" stroke="#000" stroke-width="1" d="M474.83,315.17 c1.56,1.56,1.56,4.09,0,5.66 c-1.56,1.56,-4.09,1.56,-5.66,0 c-1.56,-1.56,-1.56,-4.09,0,-5.66 c1.56,-1.56,4.09,-1.56,5.66,0 Z M474.83,315.17" transform="matrix(0.8,0.0,0.0,-0.8,85.0,650.0)"/><path fill="#000" stroke="#000" stroke-width="1" d="M289,203 l98,0" transform="matrix(0.8,0.0,0.0,-0.8,85.0,650.0)"/><path fill="#000" stroke="#000" stroke-width="1" d="M385,201 l4,0 l0,4 l-4,0 Z M385,201" transform="matrix(0.8,0.0,0.0,-0.8,85.0,650.0)"/><path fill="#000" stroke="#000" stroke-width="1" d="M289,203 l-41,0" transform="matrix(0.8,0.0,0.0,-0.8,85.0,650.0)"/><path fill="#000" stroke="#000" stroke-width="1" d="M246,201 l4,0 l0,4 l-4,0 Z M246,201" transform="matrix(0.8,0.0,0.0,-0.8,85.0,650.0)"/><path fill="#FFF" stroke="#000" stroke-width="1" d="M291.83,200.17 c1.56,1.56,1.56,4.09,0,5.66 c-1.56,1.56,-4.09,1.56,-5.66,0 c-1.56,-1.56,-1.56,-4.09,0,-5.66 c1.56,-1.56,4.09,-1.56,5.66,0 Z M291.83,200.17" transform="matrix(0.8,0.0,0.0,-0.8,85.0,650.0)"/><path fill="#000" stroke="#000" stroke-width="1" d="M178,227 l36,-17" transform="matrix(0.8,0.0,0.0,-0.8,85.0,650.0)"/><path fill="#000" stroke="#000" stroke-width="1" d="M212,208 l4,0 l0,4 l-4,0 Z M212,208" transform="matrix(0.8,0.0,0.0,-0.8,85.0,650.0)"/><path fill="#000" stroke="#000" stroke-width="1" d="M178,227 l-34,33" transform="matrix(0.8,0.0,0.0,-0.8,85.0,650.0)"/><path fill="#000" stroke="#000" stroke-width="1" d="M142,258 l4,0 l0,4 l-4,0 Z M142,258" transform="matrix(0.8,0.0,0.0,-0.8,85.0,650.0)"/><path fill="#FFF" stroke="#000" stroke-width="1" d="M174,223 l8,0 l0,8 l-8,0 Z M174,223" transform="matrix(0.8,0.0,0.0,-0.8,85.0,650.0)"/><path fill="#000" stroke="#000" stroke-width="1" d="M153,350 l-10,-40" transform="matrix(0.8,0.0,0.0,-0.8,85.0,650.0)"/><path fill="#000" stroke="#000" stroke-width="1" d="M141,308 l4,0 l0,4 l-4,0 Z M141,308" transform="matrix(0.8,0.0,0.0,-0.8,85.0,650.0)"/><path fill="#FFF" stroke="#000" stroke-width="1" d="M155.83,347.17 c1.56,1.56,1.56,4.09,0,5.66 c-1.56,1.56,-4.09,1.56,-5.66,0 c-1.56,-1.56,-1.56,-4.09,0,-5.66 c1.56,-1.56,4.09,-1.56,5.66,0 Z M155.83,347.17" transform="matrix(0.8,0.0,0.0,-0.8,85.0,650.0)"/><path fill="#000" stroke="#000" stroke-width="1" d="M155,357 l27,95" transform="matrix(0.8,0.0,0.0,-0.8,85.0,650.0)"/><path fill="#000" stroke="#000" stroke-width="1" d="M180,450 l4,0 l0,4 l-4,0 Z M180,450" transform="matrix(0.8,0.0,0.0,-0.8,85.0,650.0)"/><path fill="#FFF" stroke="#000" stroke-width="1" d="M157.83,354.17 c1.56,1.56,1.56,4.09,0,5.66 c-1.56,1.56,-4.09,1.56,-5.66,0 c-1.56,-1.56,-1.56,-4.09,0,-5.66 c1.56,-1.56,4.09,-1.56,5.66,0 Z M157.83,354.17" transform="matrix(0.8,0.0,0.0,-0.8,85.0,650.0)"/><path fill="#000" stroke="#000" stroke-width="1" d="M362,494 l-111,0" transform="matrix(0.8,0.0,0.0,-0.8,85.0,650.0)"/><path fill="#000" stroke="#000" stroke-width="1" d="M249,492 l4,0 l0,4 l-4,0 Z M249,492" transform="matrix(0.8,0.0,0.0,-0.8,85.0,650.0)"/><path fill="#000" stroke="#000" stroke-width="1" d="M362,494 l144,0" transform="matrix(0.8,0.0,0.0,-0.8,85.0,650.0)"/><path fill="#000" stroke="#000" stroke-width="1" d="M504,492 l4,0 l0,4 l-4,0 Z M504,492" transform="matrix(0.8,0.0,0.0,-0.8,85.0,650.0)"/><path fill="#FFF" stroke="#000" stroke-width="1" d="M364.83,491.17 c1.56,1.56,1.56,4.09,0,5.66 c-1.56,1.56,-4.09,1.56,-5.66,0 c-1.56,-1.56,-1.56,-4.09,0,-5.66 c1.56,-1.56,4.09,-1.56,5.66,0 Z M364.83,491.17" transform="matrix(0.8,0.0,0.0,-0.8,85.0,650.0)"/><path fill="#000" stroke="#000" stroke-width="1" d="M591,478 l-37,0" transform="matrix(0.8,0.0,0.0,-0.8,85.0,650.0)"/><path fill="#000" stroke="#000" stroke-width="1" d="M552,476 l4,0 l0,4 l-4,0 Z M552,476" transform="matrix(0.8,0.0,0.0,-0.8,85.0,650.0)"/><path fill="#000" stroke="#000" stroke-width="1" d="M591,478 l17,0" transform="matrix(0.8,0.0,0.0,-0.8,85.0,650.0)"/><path fill="#000" stroke="#000" stroke-width="1" d="M606,476 l4,0 l0,4 l-4,0 Z M606,476" transform="matrix(0.8,0.0,0.0,-0.8,85.0,650.0)"/><path fill="#FFF" stroke="#000" stroke-width="1" d="M593.83,475.17 c1.56,1.56,1.56,4.09,0,5.66 c-1.56,1.56,-4.09,1.56,-5.66,0 c-1.56,-1.56,-1.56,-4.09,0,-5.66 c1.56,-1.56,4.09,-1.56,5.66,0 Z M593.83,475.17" transform="matrix(0.8,0.0,0.0,-0.8,85.0,650.0)"/><path fill="#000" stroke="#000" stroke-width="1" d="M622,511 l-5,-16" transform="matrix(0.8,0.0,0.0,-0.8,85.0,650.0)"/><path fill="#000" stroke="#000" stroke-width="1" d="M615,493 l4,0 l0,4 l-4,0 Z M615,493" transform="matrix(0.8,0.0,0.0,-0.8,85.0,650.0)"/><path fill="#000" stroke="#000" stroke-width="1" d="M622,511 l2,7" transform="matrix(0.8,0.0,0.0,-0.8,85.0,650.0)"/><path fill="#000" stroke="#000" stroke-width="1" d="M622,516 l4,0 l0,4 l-4,0 Z M622,516" transform="matrix(0.8,0.0,0.0,-0.8,85.0,650.0)"/><path fill="#FFF" stroke="#000" stroke-width="1" d="M618,507 l8,0 l0,8 l-8,0 Z M618,507" transform="matrix(0.8,0.0,0.0,-0.8,85.0,650.0)"/><path fill="#000" stroke="#000" stroke-width="1" d="M624,526 l0,-5" transform="matrix(0.8,0.0,0.0,-0.8,85.0,650.0)"/><path fill="#000" stroke="#000" stroke-width="1" d="M622,519 l4,0 l0,4 l-4,0 Z M622,519" transform="matrix(0.8,0.0,0.0,-0.8,85.0,650.0)"/><path fill="#000" stroke="#000" stroke-width="1" d="M624,526 l-96,9" transform="matrix(0.8,0.0,0.0,-0.8,85.0,650.0)"/><path fill="#000" stroke="#000" stroke-width="1" d="M526,533 l4,0 l0,4 l-4,0 Z M526,533" transform="matrix(0.8,0.0,0.0,-0.8,85.0,650.0)"/><path fill="#FFF" stroke="#000" stroke-width="1" d="M620,522 l8,0 l0,8 l-8,0 Z M620,522" transform="matrix(0.8,0.0,0.0,-0.8,85.0,650.0)"/><path fill="#000" stroke="#000" stroke-width="1" d="M366,541 l88,0" transform="matrix(0.8,0.0,0.0,-0.8,85.0,650.0)"/><path fill="#000" stroke="#000" stroke-width="1" d="M452,539 l4,0 l0,4 l-4,0 Z M452,539" transform="matrix(0.8,0.0,0.0,-0.8,85.0,650.0)"/><path fill="#000" stroke="#000" stroke-width="1" d="M366,541 l-146,0" transform="matrix(0.8,0.0,0.0,-0.8,85.0,650.0)"/><path fill="#000" stroke="#000" stroke-width="1" d="M218,539 l4,0 l0,4 l-4,0 Z M218,539" transform="matrix(0.8,0.0,0.0,-0.8,85.0,650.0)"/><path fill="#FFF" stroke="#000" stroke-width="1" d="M368.83,538.17 c1.56,1.56,1.56,4.09,0,5.66 c-1.56,1.56,-4.09,1.56,-5.66,0 c-1.56,-1.56,-1.56,-4.09,0,-5.66 c1.56,-1.56,4.09,-1.56,5.66,0 Z M368.83,538.17" transform="matrix(0.8,0.0,0.0,-0.8,85.0,650.0)"/><path fill="#000" stroke="#000" stroke-width="1" d="M105,372 l27,99" transform="matrix(0.8,0.0,0.0,-0.8,85.0,650.0)"/><path fill="#000" stroke="#000" stroke-width="1" d="M130,469 l4,0 l0,4 l-4,0 Z M130,469" transform="matrix(0.8,0.0,0.0,-0.8,85.0,650.0)"/><path fill="#FFF" stroke="#000" stroke-width="1" d="M107.83,369.17 c1.56,1.56,1.56,4.09,0,5.66 c-1.56,1.56,-4.09,1.56,-5.66,0 c-1.56,-1.56,-1.56,-4.09,0,-5.66 c1.56,-1.56,4.09,-1.56,5.66,0 Z M107.83,369.17" transform="matrix(0.8,0.0,0.0,-0.8,85.0,650.0)"/><path fill="#000" stroke="#000" stroke-width="1" d="M102,361 l-28,-101" transform="matrix(0.8,0.0,0.0,-0.8,85.0,650.0)"/><path fill="#000" stroke="#000" stroke-width="1" d="M72,258 l4,0 l0,4 l-4,0 Z M72,258" transform="matrix(0.8,0.0,0.0,-0.8,85.0,650.0)"/><path fill="#FFF" stroke="#000" stroke-width="1" d="M104.83,358.17 c1.56,1.56,1.56,4.09,0,5.66 c-1.56,1.56,-4.09,1.56,-5.66,0 c-1.56,-1.56,-1.56,-4.09,0,-5.66 c1.56,-1.56,4.09,-1.56,5.66,0 Z M104.83,358.17" transform="matrix(0.8,0.0,0.0,-0.8,85.0,650.0)"/><path fill="#000" stroke="#000" stroke-width="1" d="M281,161 l-135,0" transform="matrix(0.8,0.0,0.0,-0.8,85.0,650.0)"/><path fill="#000" stroke="#000" stroke-width="1" d="M144,159 l4,0 l0,4 l-4,0 Z M144,159" transform="matrix(0.8,0.0,0.0,-0.8,85.0,650.0)"/><path fill="#000" stroke="#000" stroke-width="1" d="M281,161 l132,0" transform="matrix(0.8,0.0,0.0,-0.8,85.0,650.0)"/><path fill="#000" stroke="#000" stroke-width="1" d="M411,159 l4,0 l0,4 l-4,0 Z M411,159" transform="matrix(0.8,0.0,0.0,-0.8,85.0,650.0)"/><path fill="#FFF" stroke="#000" stroke-width="1" d="M283.83,158.17 c1.56,1.56,1.56,4.09,0,5.66 c-1.56,1.56,-4.09,1.56,-5.66,0 c-1.56,-1.56,-1.56,-4.09,0,-5.66 c1.56,-1.56,4.09,-1.56,5.66,0 Z M283.83,158.17" transform="matrix(0.8,0.0,0.0,-0.8,85.0,650.0)"/><path fill="#000" stroke="#000" stroke-width="1" d="M516,309 l-32,-106" transform="matrix(0.8,0.0,0.0,-0.8,85.0,650.0)"/><path fill="#000" stroke="#000" stroke-width="1" d="M482,201 l4,0 l0,4 l-4,0 Z M482,201" transform="matrix(0.8,0.0,0.0,-0.8,85.0,650.0)"/><path fill="#FFF" stroke="#000" stroke-width="1" d="M518.83,306.17 c1.56,1.56,1.56,4.09,0,5.66 c-1.56,1.56,-4.09,1.56,-5.66,0 c-1.56,-1.56,-1.56,-4.09,0,-5.66 c1.56,-1.56,4.09,-1.56,5.66,0 Z M518.83,306.17" transform="matrix(0.8,0.0,0.0,-0.8,85.0,650.0)"/><path fill="#000" stroke="#000" stroke-width="1" d="M519,319 l21,68" transform="matrix(0.8,0.0,0.0,-0.8,85.0,650.0)"/><path fill="#000" stroke="#000" stroke-width="1" d="M538,385 l4,0 l0,4 l-4,0 Z M538,385" transform="matrix(0.8,0.0,0.0,-0.8,85.0,650.0)"/><path fill="#FFF" stroke="#000" stroke-width="1" d="M521.83,316.17 c1.56,1.56,1.56,4.09,0,5.66 c-1.56,1.56,-4.09,1.56,-5.66,0 c-1.56,-1.56,-1.56,-4.09,0,-5.66 c1.56,-1.56,4.09,-1.56,5.66,0 Z M521.83,316.17" transform="matrix(0.8,0.0,0.0,-0.8,85.0,650.0)"/><path fill="#000" stroke="#000" stroke-width="1" d="M479,483 l45,-42" transform="matrix(0.8,0.0,0.0,-0.8,85.0,650.0)"/><path fill="#000" stroke="#000" stroke-width="1" d="M522,439 l4,0 l0,4 l-4,0 Z M522,439" transform="matrix(0.8,0.0,0.0,-0.8,85.0,650.0)"/><path fill="#FFF" stroke="#000" stroke-width="1" d="M475,479 l8,0 l0,8 l-8,0 Z M475,479" transform="matrix(0.8,0.0,0.0,-0.8,85.0,650.0)"/><path fill="#FFF" stroke="#000" stroke-width="1" d="M481,496 l8,0 l0,8 l-8,0 Z M481,496" transform="matrix(0.8,0.0,0.0,-0.8,85.0,650.0)"/><text text-anchor="start" transform="matrix(1,0,0,1,14,-858)"><tspan x="0" y="885" fill="#000" font-family="RecursiveMonoLnr-Regular" font-size="14">g</tspan></text><text text-anchor="start" transform="matrix(1,0,0,1,14,-858)"><tspan x="588.4" y="885" fill="#000" font-family="RecursiveMonoLnr-Regular" font-size="14">0067</tspan></text><text text-anchor="start" transform="matrix(1,0,0,1,14,0)"><tspan x="285.8" y="885" fill="#000" font-family="RecursiveMonoLnr-Regular" font-size="14">600.00</tspan></text><text text-anchor="start" transform="matrix(1,0,0,1,14,0)"><tspan x="0" y="885" fill="#000" font-family="RecursiveMonoLnr-Regular" font-size="14">-38.72</tspan></text><text text-anchor="start" transform="matrix(1,0,0,1,14,0)"><tspan x="571.6" y="885" fill="#000" font-family="RecursiveMonoLnr-Regular" font-size="14">-24.00</tspan></text></svg>