<svg xmlns="http://www.w3.org/2000/svg" xmlns:xlink="http://www.w3.org/1999/xlink" width="650" height="900" version="1.1"><path fill="#0050FF" d="M0,0 l650,0 l0,900 l-650,0 Z M0,0" transform="matrix(1,0,0,-1,0,900)"/><path fill="#0050FF" d="M85,50 l480,0 l0,800 l-480,0 Z M85,50" transform="matrix(1,0,0,-1,0,900)"/><path fill="#0050FF" stroke="#FFF" stroke-dasharray="2 2" stroke-opacity=".25" stroke-width="1" d="M565,0 l0,900" transform="matrix(1,0,0,-1,0,900)"/><path fill="#0050FF" stroke="#FFF" stroke-dasharray="2 2" stroke-opacity=".25" stroke-width="1" d="M85,0 l0,900" transform="matrix(1,0,0,-1,0,900)"/><path fill="#0050FF" stroke="#FFF" stroke-dasharray="2 2" stroke-opacity=".25" stroke-width="1" d="M0,250 l650,0" transform="matrix(1,0,0,-1,0,900)"/><path fill="#0050FF" stroke="#FFF" stroke-dasharray="2 2" stroke-opacity=".25" stroke-width="1" d="M0,50 l650,0" transform="matrix(1,0,0,-1,0,900)"/><path fill="#0050FF" stroke="#FFF" stroke-dasharray="2 2" stroke-opacity=".25" stroke-width="1" d="M0,850 l650,0" transform="matrix(1,0,0,-1,0,900)"/><path fill="#0050FF" stroke="#FFF" stroke-dasharray="2 2" stroke-opacity=".25" stroke-width="1" d="M0,810 l650,0" transform="matrix(1,0,0,-1,0,900)"/><path fill="#0050FF" stroke="#FFF" stroke-dasharray="2 2" stroke-opacity=".25" stroke-width="1" d="M0,682 l650,0" transform="matrix(1,0,0,-1,0,900)"/><path fill="#FFF" stroke="#226" stroke-linejoin="round" stroke-width="1" d="M150,750 c-10,-39,-20,-80,-30,-119 c-2,-8,2,-11,9,-11 c49,0,108,0,157,0 l22,0 c-38,-150,-74,-300,-112,-450 c-23,-95,7,-170,144,-170 c60,0,145,0,151,0 c8,0,12,4,14,11 c10,39,20,80,30,119 l-20,0 c-40,0,-109,0,-149,0 c-11,0,-18,2,-22,6 c-5,5,-4,12,-1,24 c49,193,95,386,144,579 c2,8,-2,11,-8,11 c-106,0,-223,0,-329,0 Z M150,750" transform="matrix(0.8,0.0,0.0,-0.8,85.0,650.0)"/><path fill="#000" stroke="#000" stroke-width="1" d="M150,750 l106,0" transform="matrix(0.8,0.0,0.0,-0.8,85.0,650.0)"/><path fill="#000" stroke="#000" stroke-width="1" d="M254,748 l4,0 l0,4 l-4,0 Z M254,748" transform="matrix(0.8,0.0,0.0,-0.8,85.0,650.0)"/><path fill="#000" stroke="#000" stroke-width="1" d="M150,750 l-10,-39" transform="matrix(0.8,0.0,0.0,-0.8,85.0,650.0)"/><path fill="#000" stroke="#000" stroke-width="1" d="M138,709 l4,0 l0,4 l-4,0 Z M138,709" transform="matrix(0.8,0.0,0.0,-0.8,85.0,650.0)"/><path fill="#FFF" stroke="#000" stroke-width="1" d="M146,746 l8,0 l0,8 l-8,0 Z M146,746" transform="matrix(0.8,0.0,0.0,-0.8,85.0,650.0)"/><path fill="#000" stroke="#000" stroke-width="1" d="M120,631 l10,39" transform="matrix(0.8,0.0,0.0,-0.8,85.0,650.0)"/><path fill="#000" stroke="#000" stroke-width="1" d="M128,668 l4,0 l0,4 l-4,0 Z M128,668" transform="matrix(0.8,0.0,0.0,-0.8,85.0,650.0)"/><path fill="#000" stroke="#000" stroke-width="1" d="M120,631 l-2,-8" transform="matrix(0.8,0.0,0.0,-0.8,85.0,650.0)"/><path fill="#000" stroke="#000" stroke-width="1" d="M116,621 l4,0 l0,4 l-4,0 Z M116,621" transform="matrix(0.8,0.0,0.0,-0.8,85.0,650.0)"/><path fill="#FFF" stroke="#000" stroke-width="1" d="M122.83,628.17 c1.56,1.56,1.56,4.09,0,5.66 c-1.56,1.56,-4.09,1.56,-5.66,0 c-1.56,-1.56,-1.56,-4.09,0,-5.66 c1.56,-1.56,4.09,-1.56,5.66,0 Z M122.83,628.17" transform="matrix(0.8,0.0,0.0,-0.8,85.0,650.0)"/><path fill="#000" stroke="#000" stroke-width="1" d="M129,620 l-7,0" transform="matrix(0.8,0.0,0.0,-0.8,85.0,650.0)"/><path fill="#000" stroke="#000" stroke-width="1" d="M120,618 l4,0 l0,4 l-4,0 Z M120,618" transform="matrix(0.8,0.0,0.0,-0.8,85.0,650.0)"/><path fill="#000" stroke="#000" stroke-width="1" d="M129,620 l49,0" transform="matrix(0.8,0.0,0.0,-0.8,85.0,650.0)"/><path fill="#000" stroke="#000" stroke-width="1" d="M176,618 l4,0 l0,4 l-4,0 Z M176,618" transform="matrix(0.8,0.0,0.0,-0.8,85.0,650.0)"/><path fill="#FFF" stroke="#000" stroke-width="1" d="M131.83,617.17 c1.56,1.56,1.56,4.09,0,5.66 c-1.56,1.56,-4.09,1.56,-5.66,0 c-1.56,-1.56,-1.56,-4.09,0,-5.66 c1.56,-1.56,4.09,-1.56,5.66,0 Z M131.83,617.17" transform="matrix(0.8,0.0,0.0,-0.8,85.0,650.0)"/><path fill="#000" stroke="#000" stroke-width="1" d="M286,620 l-49,0" transform="matrix(0.8,0.0,0.0,-0.8,85.0,650.0)"/><path fill="#000" stroke="#000" stroke-width="1" d="M235,618 l4,0 l0,4 l-4,0 Z M235,618" transform="matrix(0.8,0.0,0.0,-0.8,85.0,650.0)"/><path fill="#FFF" stroke="#000" stroke-width="1" d="M282,616 l8,0 l0,8 l-8,0 Z M282,616" transform="matrix(0.8,0.0,0.0,-0.8,85.0,650.0)"/><path fill="#000" stroke="#000" stroke-width="1" d="M308,620 l-38,-150" transform="matrix(0.8,0.0,0.0,-0.8,85.0,650.0)"/><path fill="#000" stroke="#000" stroke-width="1" d="M268,468 l4,0 l0,4 l-4,0 Z M268,468" transform="matrix(0.8,0.0,0.0,-0.8,85.0,650.0)"/><path fill="#FFF" stroke="#000" stroke-width="1" d="M304,616 l8,0 l0,8 l-8,0 Z M304,616" transform="matrix(0.8,0.0,0.0,-0.8,85.0,650.0)"/><path fill="#000" stroke="#000" stroke-width="1" d="M196,170 l38,150" transform="matrix(0.8,0.0,0.0,-0.8,85.0,650.0)"/><path fill="#000" stroke="#000" stroke-width="1" d="M232,318 l4,0 l0,4 l-4,0 Z M232,318" transform="matrix(0.8,0.0,0.0,-0.8,85.0,650.0)"/><path fill="#000" stroke="#000" stroke-width="1" d="M196,170 l-23,-95" transform="matrix(0.8,0.0,0.0,-0.8,85.0,650.0)"/><path fill="#000" stroke="#000" stroke-width="1" d="M171,73 l4,0 l0,4 l-4,0 Z M171,73" transform="matrix(0.8,0.0,0.0,-0.8,85.0,650.0)"/><path fill="#FFF" stroke="#000" stroke-width="1" d="M198.83,167.17 c1.56,1.56,1.56,4.09,0,5.66 c-1.56,1.56,-4.09,1.56,-5.66,0 c-1.56,-1.56,-1.56,-4.09,0,-5.66 c1.56,-1.56,4.09,-1.56,5.66,0 Z M198.83,167.17" transform="matrix(0.8,0.0,0.0,-0.8,85.0,650.0)"/><path fill="#000" stroke="#000" stroke-width="1" d="M340,0 l-137,0" transform="matrix(0.8,0.0,0.0,-0.8,85.0,650.0)"/><path fill="#000" stroke="#000" stroke-width="1" d="M201,-2 l4,0 l0,4 l-4,0 Z M201,-2" transform="matrix(0.8,0.0,0.0,-0.8,85.0,650.0)"/><path fill="#000" stroke="#000" stroke-width="1" d="M340,0 l60,0" transform="matrix(0.8,0.0,0.0,-0.8,85.0,650.0)"/><path fill="#000" stroke="#000" stroke-width="1" d="M398,-2 l4,0 l0,4 l-4,0 Z M398,-2" transform="matrix(0.8,0.0,0.0,-0.8,85.0,650.0)"/><path fill="#FFF" stroke="#000" stroke-width="1" d="M342.83,-2.83 c1.56,1.56,1.56,4.09,0,5.66 c-1.56,1.56,-4.09,1.56,-5.66,0.0 c-1.56,-1.56,-1.56,-4.09,0,-5.66 c1.56,-1.56,4.09,-1.56,5.66,-0.0 Z M342.83,-2.83" transform="matrix(0.8,0.0,0.0,-0.8,85.0,650.0)"/><path fill="#000" stroke="#000" stroke-width="1" d="M491,0 l-6,0" transform="matrix(0.8,0.0,0.0,-0.8,85.0,650.0)"/><path fill="#000" stroke="#000" stroke-width="1" d="M483,-2 l4,0 l0,4 l-4,0 Z M483,-2" transform="matrix(0.8,0.0,0.0,-0.8,85.0,650.0)"/><path fill="#000" stroke="#000" stroke-width="1" d="M491,0 l8,0" transform="matrix(0.8,0.0,0.0,-0.8,85.0,650.0)"/><path fill="#000" stroke="#000" stroke-width="1" d="M497,-2 l4,0 l0,4 l-4,0 Z M497,-2" transform="matrix(0.8,0.0,0.0,-0.8,85.0,650.0)"/><path fill="#FFF" stroke="#000" stroke-width="1" d="M493.83,-2.83 c1.56,1.56,1.56,4.09,0,5.66 c-1.56,1.56,-4.09,1.56,-5.66,0.0 c-1.56,-1.56,-1.56,-4.09,0,-5.66 c1.56,-1.56,4.09,-1.56,5.66,-0.0 Z M493.83,-2.83" transform="matrix(0.8,0.0,0.0,-0.8,85.0,650.0)"/><path fill="#000" stroke="#000" stroke-width="1" d="M505,11 l-2,-7" transform="matrix(0.8,0.0,0.0,-0.8,85.0,650.0)"/><path fill="#000" stroke="#000" stroke-width="1" d="M501,2 l4,0 l0,4 l-4,0 Z M501,2" transform="matrix(0.8,0.0,0.0,-0.8,85.0,650.0)"/><path fill="#000" stroke="#000" stroke-width="1" d="M505,11 l10,39" transform="matrix(0.8,0.0,0.0,-0.8,85.0,650.0)"/><path fill="#000" stroke="#000" stroke-width="1" d="M513,48 l4,0 l0,4 l-4,0 Z M513,48" transform="matrix(0.8,0.0,0.0,-0.8,85.0,650.0)"/><path fill="#FFF" stroke="#000" stroke-width="1" d="M507.83,8.17 c1.56,1.56,1.56,4.09,0,5.66 c-1.56,1.56,-4.09,1.56,-5.66,0 c-1.56,-1.56,-1.56,-4.09,0,-5.66 c1.56,-1.56,4.09,-1.56,5.66,-0.0 Z M507.83,8.17" transform="matrix(0.8,0.0,0.0,-0.8,85.0,650.0)"/><path fill="#000" stroke="#000" stroke-width="1" d="M535,130 l-10,-39" transform="matrix(0.8,0.0,0.0,-0.8,85.0,650.0)"/><path fill="#000" stroke="#000" stroke-width="1" d="M523,89 l4,0 l0,4 l-4,0 Z M523,89" transform="matrix(0.8,0.0,0.0,-0.8,85.0,650.0)"/><path fill="#FFF" stroke="#000" stroke-width="1" d="M531,126 l8,0 l0,8 l-8,0 Z M531,126" transform="matrix(0.8,0.0,0.0,-0.8,85.0,650.0)"/><path fill="#000" stroke="#000" stroke-width="1" d="M515,130 l-40,0" transform="matrix(0.8,0.0,0.0,-0.8,85.0,650.0)"/><path fill="#000" stroke="#000" stroke-width="1" d="M473,128 l4,0 l0,4 l-4,0 Z M473,128" transform="matrix(0.8,0.0,0.0,-0.8,85.0,650.0)"/><path fill="#FFF" stroke="#000" stroke-width="1" d="M511,126 l8,0 l0,8 l-8,0 Z M511,126" transform="matrix(0.8,0.0,0.0,-0.8,85.0,650.0)"/><path fill="#000" stroke="#000" stroke-width="1" d="M366,130 l40,0" transform="matrix(0.8,0.0,0.0,-0.8,85.0,650.0)"/><path fill="#000" stroke="#000" stroke-width="1" d="M404,128 l4,0 l0,4 l-4,0 Z M404,128" transform="matrix(0.8,0.0,0.0,-0.8,85.0,650.0)"/><path fill="#000" stroke="#000" stroke-width="1" d="M366,130 l-11,0" transform="matrix(0.8,0.0,0.0,-0.8,85.0,650.0)"/><path fill="#000" stroke="#000" stroke-width="1" d="M353,128 l4,0 l0,4 l-4,0 Z M353,128" transform="matrix(0.8,0.0,0.0,-0.8,85.0,650.0)"/><path fill="#FFF" stroke="#000" stroke-width="1" d="M368.83,127.17 c1.56,1.56,1.56,4.09,0,5.66 c-1.56,1.56,-4.09,1.56,-5.66,0 c-1.56,-1.56,-1.56,-4.09,0,-5.66 c1.56,-1.56,4.09,-1.56,5.66,0 Z M368.83,127.17" transform="matrix(0.8,0.0,0.0,-0.8,85.0,650.0)"/><path fill="#000" stroke="#000" stroke-width="1" d="M344,136 l4,-4" transform="matrix(0.8,0.0,0.0,-0.8,85.0,650.0)"/><path fill="#000" stroke="#000" stroke-width="1" d="M346,130 l4,0 l0,4 l-4,0 Z M346,130" transform="matrix(0.8,0.0,0.0,-0.8,85.0,650.0)"/><path fill="#000" stroke="#000" stroke-width="1" d="M344,136 l-5,5" transform="matrix(0.8,0.0,0.0,-0.8,85.0,650.0)"/><path fill="#000" stroke="#000" stroke-width="1" d="M337,139 l4,0 l0,4 l-4,0 Z M337,139" transform="matrix(0.8,0.0,0.0,-0.8,85.0,650.0)"/><path fill="#FFF" stroke="#000" stroke-width="1" d="M346.83,133.17 c1.56,1.56,1.56,4.09,0,5.66 c-1.56,1.56,-4.09,1.56,-5.66,0 c-1.56,-1.56,-1.56,-4.09,0,-5.66 c1.56,-1.56,4.09,-1.56,5.66,0 Z M346.83,133.17" transform="matrix(0.8,0.0,0.0,-0.8,85.0,650.0)"/><path fill="#000" stroke="#000" stroke-width="1" d="M343,160 l-3,-12" transform="matrix(0.8,0.0,0.0,-0.8,85.0,650.0)"/><path fill="#000" stroke="#000" stroke-width="1" d="M338,146 l4,0 l0,4 l-4,0 Z M338,146" transform="matrix(0.8,0.0,0.0,-0.8,85.0,650.0)"/><path fill="#000" stroke="#000" stroke-width="1" d="M343,160 l49,193" transform="matrix(0.8,0.0,0.0,-0.8,85.0,650.0)"/><path fill="#000" stroke="#000" stroke-width="1" d="M390,351 l4,0 l0,4 l-4,0 Z M390,351" transform="matrix(0.8,0.0,0.0,-0.8,85.0,650.0)"/><path fill="#FFF" stroke="#000" stroke-width="1" d="M339,156 l8,0 l0,8 l-8,0 Z M339,156" transform="matrix(0.8,0.0,0.0,-0.8,85.0,650.0)"/><path fill="#000" stroke="#000" stroke-width="1" d="M487,739 l-49,-193" transform="matrix(0.8,0.0,0.0,-0.8,85.0,650.0)"/><path fill="#000" stroke="#000" stroke-width="1" d="M436,544 l4,0 l0,4 l-4,0 Z M436,544" transform="matrix(0.8,0.0,0.0,-0.8,85.0,650.0)"/><path fill="#000" stroke="#000" stroke-width="1" d="M487,739 l2,8" transform="matrix(0.8,0.0,0.0,-0.8,85.0,650.0)"/><path fill="#000" stroke="#000" stroke-width="1" d="M487,745 l4,0 l0,4 l-4,0 Z M487,745" transform="matrix(0.8,0.0,0.0,-0.8,85.0,650.0)"/><path fill="#FFF" stroke="#000" stroke-width="1" d="M483,735 l8,0 l0,8 l-8,0 Z M483,735" transform="matrix(0.8,0.0,0.0,-0.8,85.0,650.0)"/><path fill="#000" stroke="#000" stroke-width="1" d="M479,750 l6,0" transform="matrix(0.8,0.0,0.0,-0.8,85.0,650.0)"/><path fill="#000" stroke="#000" stroke-width="1" d="M483,748 l4,0 l0,4 l-4,0 Z M483,748" transform="matrix(0.8,0.0,0.0,-0.8,85.0,650.0)"/><path fill="#000" stroke="#000" stroke-width="1" d="M479,750 l-106,0" transform="matrix(0.8,0.0,0.0,-0.8,85.0,650.0)"/><path fill="#000" stroke="#000" stroke-width="1" d="M371,748 l4,0 l0,4 l-4,0 Z M371,748" transform="matrix(0.8,0.0,0.0,-0.8,85.0,650.0)"/><path fill="#FFF" stroke="#000" stroke-width="1" d="M481.83,747.17 c1.56,1.56,1.56,4.09,0,5.66 c-1.56,1.56,-4.09,1.56,-5.66,0 c-1.56,-1.56,-1.56,-4.09,0,-5.66 c1.56,-1.56,4.09,-1.56,5.66,0 Z M481.83,747.17" transform="matrix(0.8,0.0,0.0,-0.8,85.0,650.0)"/><text text-anchor="start" transform="matrix(1,0,0,1,14,-858)"><tspan x="0" y="885" fill="#000" font-family="RecursiveMonoLnr-Regular" font-size="14">l.italic</tspan></text><text text-anchor="start" transform="matrix(1,0,0,1,14,0)"><tspan x="285.8" y="885" fill="#000" font-family="RecursiveMonoLnr-Regular" font-size="14">600.00</tspan></text><text text-anchor="start" transform="matrix(1,0,0,1,14,0)"><tspan x="0" y="885" fill="#000" font-family="RecursiveMonoLnr-Regular" font-size="14">119.49</tspan></text><text text-anchor="start" transform="matrix(1,0,0,1,14,0)"><tspan x="580" y="885" fill="#000" font-family="RecursiveMonoLnr-Regular" font-size="14">65.00</tspan></text></svg>