<svg xmlns="http://www.w3.org/2000/svg" xmlns:xlink="http://www.w3.org/1999/xlink" width="650" height="900" version="1.1"><path fill="#0050FF" d="M0,0 l650,0 l0,900 l-650,0 Z M0,0" transform="matrix(1,0,0,-1,0,900)"/><path fill="#0050FF" d="M85,50 l480,0 l0,800 l-480,0 Z M85,50" transform="matrix(1,0,0,-1,0,900)"/><path fill="#0050FF" stroke="#FFF" stroke-dasharray="2 2" stroke-opacity=".25" stroke-width="1" d="M565,0 l0,900" transform="matrix(1,0,0,-1,0,900)"/><path fill="#0050FF" stroke="#FFF" stroke-dasharray="2 2" stroke-opacity=".25" stroke-width="1" d="M85,0 l0,900" transform="matrix(1,0,0,-1,0,900)"/><path fill="#0050FF" stroke="#FFF" stroke-dasharray="2 2" stroke-opacity=".25" stroke-width="1" d="M0,250 l650,0" transform="matrix(1,0,0,-1,0,900)"/><path fill="#0050FF" stroke="#FFF" stroke-dasharray="2 2" stroke-opacity=".25" stroke-width="1" d="M0,50 l650,0" transform="matrix(1,0,0,-1,0,900)"/><path fill="#0050FF" stroke="#FFF" stroke-dasharray="2 2" stroke-opacity=".25" stroke-width="1" d="M0,850 l650,0" transform="matrix(1,0,0,-1,0,900)"/><path fill="#0050FF" stroke="#FFF" stroke-dasharray="2 2" stroke-opacity=".25" stroke-width="1" d="M0,670.8 l650,0" transform="matrix(1,0,0,-1,0,900)"/><path fill="#0050FF" stroke="#FFF" stroke-dasharray="2 2" stroke-opacity=".25" stroke-width="1" d="M0,810 l650,0" transform="matrix(1,0,0,-1,0,900)"/><path fill="#FFF" stroke="#226" stroke-linejoin="round" stroke-width="1" d="M378,720 c-141,0,-288,-157,-288,-282 l0,-10 c0,-68,47,-109,181,-159 l86,-32 c79,-29,114,-59,123,-100 l0,-3 c-17,-62,-80,-96,-180,-96 c-102,0,-167,31,-211,92 l-6,0 c-4,-11,-6,-22,-6,-37 c0,-16,4,-27,17,-40 c41,-41,114,-65,206,-65 c133,0,224,59,224,151 l0,5 c0,61,-52,105,-156,143 l-85,31 c-125,45,-143,77,-143,112 l0,7 c0,104,128,233,238,233 c25,0,55,-3,74,-22 l-23,28 c23,-34,21,-42,21,-182 c0,-28,12,-44,36,-44 c6,0,10,1,14,3 c0,48,0,95,0,143 c0,32,-6,68,-30,92 c-19,19,-45,32,-92,32 Z M378,720" transform="matrix(0.8,0.0,0.0,-0.8,85.0,650.0)"/><path fill="#000" stroke="#000" stroke-width="1" d="M378,720 l47,0" transform="matrix(0.8,0.0,0.0,-0.8,85.0,650.0)"/><path fill="#000" stroke="#000" stroke-width="1" d="M423,718 l4,0 l0,4 l-4,0 Z M423,718" transform="matrix(0.8,0.0,0.0,-0.8,85.0,650.0)"/><path fill="#000" stroke="#000" stroke-width="1" d="M378,720 l-141,0" transform="matrix(0.8,0.0,0.0,-0.8,85.0,650.0)"/><path fill="#000" stroke="#000" stroke-width="1" d="M235,718 l4,0 l0,4 l-4,0 Z M235,718" transform="matrix(0.8,0.0,0.0,-0.8,85.0,650.0)"/><path fill="#FFF" stroke="#000" stroke-width="1" d="M380.83,717.17 c1.56,1.56,1.56,4.09,0,5.66 c-1.56,1.56,-4.09,1.56,-5.66,0 c-1.56,-1.56,-1.56,-4.09,0,-5.66 c1.56,-1.56,4.09,-1.56,5.66,0 Z M380.83,717.17" transform="matrix(0.8,0.0,0.0,-0.8,85.0,650.0)"/><path fill="#000" stroke="#000" stroke-width="1" d="M90,438 l0,125" transform="matrix(0.8,0.0,0.0,-0.8,85.0,650.0)"/><path fill="#000" stroke="#000" stroke-width="1" d="M88,561 l4,0 l0,4 l-4,0 Z M88,561" transform="matrix(0.8,0.0,0.0,-0.8,85.0,650.0)"/><path fill="#FFF" stroke="#000" stroke-width="1" d="M92.83,435.17 c1.56,1.56,1.56,4.09,0,5.66 c-1.56,1.56,-4.09,1.56,-5.66,0 c-1.56,-1.56,-1.56,-4.09,0,-5.66 c1.56,-1.56,4.09,-1.56,5.66,0 Z M92.83,435.17" transform="matrix(0.8,0.0,0.0,-0.8,85.0,650.0)"/><path fill="#000" stroke="#000" stroke-width="1" d="M90,428 l0,-68" transform="matrix(0.8,0.0,0.0,-0.8,85.0,650.0)"/><path fill="#000" stroke="#000" stroke-width="1" d="M88,358 l4,0 l0,4 l-4,0 Z M88,358" transform="matrix(0.8,0.0,0.0,-0.8,85.0,650.0)"/><path fill="#FFF" stroke="#000" stroke-width="1" d="M92.83,425.17 c1.56,1.56,1.56,4.09,0,5.66 c-1.56,1.56,-4.09,1.56,-5.66,0 c-1.56,-1.56,-1.56,-4.09,0,-5.66 c1.56,-1.56,4.09,-1.56,5.66,0 Z M92.83,425.17" transform="matrix(0.8,0.0,0.0,-0.8,85.0,650.0)"/><path fill="#000" stroke="#000" stroke-width="1" d="M271,269 l-134,50" transform="matrix(0.8,0.0,0.0,-0.8,85.0,650.0)"/><path fill="#000" stroke="#000" stroke-width="1" d="M135,317 l4,0 l0,4 l-4,0 Z M135,317" transform="matrix(0.8,0.0,0.0,-0.8,85.0,650.0)"/><path fill="#FFF" stroke="#000" stroke-width="1" d="M273.83,266.17 c1.56,1.56,1.56,4.09,0,5.66 c-1.56,1.56,-4.09,1.56,-5.66,0 c-1.56,-1.56,-1.56,-4.09,0,-5.66 c1.56,-1.56,4.09,-1.56,5.66,0 Z M273.83,266.17" transform="matrix(0.8,0.0,0.0,-0.8,85.0,650.0)"/><path fill="#000" stroke="#000" stroke-width="1" d="M357,237 l79,-29" transform="matrix(0.8,0.0,0.0,-0.8,85.0,650.0)"/><path fill="#000" stroke="#000" stroke-width="1" d="M434,206 l4,0 l0,4 l-4,0 Z M434,206" transform="matrix(0.8,0.0,0.0,-0.8,85.0,650.0)"/><path fill="#FFF" stroke="#000" stroke-width="1" d="M359.83,234.17 c1.56,1.56,1.56,4.09,0,5.66 c-1.56,1.56,-4.09,1.56,-5.66,0 c-1.56,-1.56,-1.56,-4.09,0,-5.66 c1.56,-1.56,4.09,-1.56,5.66,0 Z M359.83,234.17" transform="matrix(0.8,0.0,0.0,-0.8,85.0,650.0)"/><path fill="#000" stroke="#000" stroke-width="1" d="M480,137 l-9,41" transform="matrix(0.8,0.0,0.0,-0.8,85.0,650.0)"/><path fill="#000" stroke="#000" stroke-width="1" d="M469,176 l4,0 l0,4 l-4,0 Z M469,176" transform="matrix(0.8,0.0,0.0,-0.8,85.0,650.0)"/><path fill="#FFF" stroke="#000" stroke-width="1" d="M476,133 l8,0 l0,8 l-8,0 Z M476,133" transform="matrix(0.8,0.0,0.0,-0.8,85.0,650.0)"/><path fill="#000" stroke="#000" stroke-width="1" d="M480,134 l-17,-62" transform="matrix(0.8,0.0,0.0,-0.8,85.0,650.0)"/><path fill="#000" stroke="#000" stroke-width="1" d="M461,70 l4,0 l0,4 l-4,0 Z M461,70" transform="matrix(0.8,0.0,0.0,-0.8,85.0,650.0)"/><path fill="#FFF" stroke="#000" stroke-width="1" d="M476,130 l8,0 l0,8 l-8,0 Z M476,130" transform="matrix(0.8,0.0,0.0,-0.8,85.0,650.0)"/><path fill="#000" stroke="#000" stroke-width="1" d="M300,38 l100,0" transform="matrix(0.8,0.0,0.0,-0.8,85.0,650.0)"/><path fill="#000" stroke="#000" stroke-width="1" d="M398,36 l4,0 l0,4 l-4,0 Z M398,36" transform="matrix(0.8,0.0,0.0,-0.8,85.0,650.0)"/><path fill="#000" stroke="#000" stroke-width="1" d="M300,38 l-102,0" transform="matrix(0.8,0.0,0.0,-0.8,85.0,650.0)"/><path fill="#000" stroke="#000" stroke-width="1" d="M196,36 l4,0 l0,4 l-4,0 Z M196,36" transform="matrix(0.8,0.0,0.0,-0.8,85.0,650.0)"/><path fill="#FFF" stroke="#000" stroke-width="1" d="M302.83,35.17 c1.56,1.56,1.56,4.09,0,5.66 c-1.56,1.56,-4.09,1.56,-5.66,0 c-1.56,-1.56,-1.56,-4.09,0,-5.66 c1.56,-1.56,4.09,-1.56,5.66,0 Z M302.83,35.17" transform="matrix(0.8,0.0,0.0,-0.8,85.0,650.0)"/><path fill="#000" stroke="#000" stroke-width="1" d="M89,130 l44,-61" transform="matrix(0.8,0.0,0.0,-0.8,85.0,650.0)"/><path fill="#000" stroke="#000" stroke-width="1" d="M131,67 l4,0 l0,4 l-4,0 Z M131,67" transform="matrix(0.8,0.0,0.0,-0.8,85.0,650.0)"/><path fill="#FFF" stroke="#000" stroke-width="1" d="M85,126 l8,0 l0,8 l-8,0 Z M85,126" transform="matrix(0.8,0.0,0.0,-0.8,85.0,650.0)"/><path fill="#000" stroke="#000" stroke-width="1" d="M83,130 l-4,-11" transform="matrix(0.8,0.0,0.0,-0.8,85.0,650.0)"/><path fill="#000" stroke="#000" stroke-width="1" d="M77,117 l4,0 l0,4 l-4,0 Z M77,117" transform="matrix(0.8,0.0,0.0,-0.8,85.0,650.0)"/><path fill="#FFF" stroke="#000" stroke-width="1" d="M79,126 l8,0 l0,8 l-8,0 Z M79,126" transform="matrix(0.8,0.0,0.0,-0.8,85.0,650.0)"/><path fill="#000" stroke="#000" stroke-width="1" d="M77,93 l0,15" transform="matrix(0.8,0.0,0.0,-0.8,85.0,650.0)"/><path fill="#000" stroke="#000" stroke-width="1" d="M75,106 l4,0 l0,4 l-4,0 Z M75,106" transform="matrix(0.8,0.0,0.0,-0.8,85.0,650.0)"/><path fill="#000" stroke="#000" stroke-width="1" d="M77,93 l0,-16" transform="matrix(0.8,0.0,0.0,-0.8,85.0,650.0)"/><path fill="#000" stroke="#000" stroke-width="1" d="M75,75 l4,0 l0,4 l-4,0 Z M75,75" transform="matrix(0.8,0.0,0.0,-0.8,85.0,650.0)"/><path fill="#FFF" stroke="#000" stroke-width="1" d="M79.83,90.17 c1.56,1.56,1.56,4.09,0,5.66 c-1.56,1.56,-4.09,1.56,-5.66,0 c-1.56,-1.56,-1.56,-4.09,0,-5.66 c1.56,-1.56,4.09,-1.56,5.66,0 Z M79.83,90.17" transform="matrix(0.8,0.0,0.0,-0.8,85.0,650.0)"/><path fill="#000" stroke="#000" stroke-width="1" d="M94,53 l-13,13" transform="matrix(0.8,0.0,0.0,-0.8,85.0,650.0)"/><path fill="#000" stroke="#000" stroke-width="1" d="M79,64 l4,0 l0,4 l-4,0 Z M79,64" transform="matrix(0.8,0.0,0.0,-0.8,85.0,650.0)"/><path fill="#000" stroke="#000" stroke-width="1" d="M94,53 l41,-41" transform="matrix(0.8,0.0,0.0,-0.8,85.0,650.0)"/><path fill="#000" stroke="#000" stroke-width="1" d="M133,10 l4,0 l0,4 l-4,0 Z M133,10" transform="matrix(0.8,0.0,0.0,-0.8,85.0,650.0)"/><path fill="#FFF" stroke="#000" stroke-width="1" d="M96.83,50.17 c1.56,1.56,1.56,4.09,0,5.66 c-1.56,1.56,-4.09,1.56,-5.66,0 c-1.56,-1.56,-1.56,-4.09,0,-5.66 c1.56,-1.56,4.09,-1.56,5.66,0 Z M96.83,50.17" transform="matrix(0.8,0.0,0.0,-0.8,85.0,650.0)"/><path fill="#000" stroke="#000" stroke-width="1" d="M300,-12 l-92,0" transform="matrix(0.8,0.0,0.0,-0.8,85.0,650.0)"/><path fill="#000" stroke="#000" stroke-width="1" d="M206,-14 l4,0 l0,4 l-4,0 Z M206,-14" transform="matrix(0.8,0.0,0.0,-0.8,85.0,650.0)"/><path fill="#000" stroke="#000" stroke-width="1" d="M300,-12 l133,0" transform="matrix(0.8,0.0,0.0,-0.8,85.0,650.0)"/><path fill="#000" stroke="#000" stroke-width="1" d="M431,-14 l4,0 l0,4 l-4,0 Z M431,-14" transform="matrix(0.8,0.0,0.0,-0.8,85.0,650.0)"/><path fill="#FFF" stroke="#000" stroke-width="1" d="M302.83,-14.83 c1.56,1.56,1.56,4.09,0,5.66 c-1.56,1.56,-4.09,1.56,-5.66,0 c-1.56,-1.56,-1.56,-4.09,0,-5.66 c1.56,-1.56,4.09,-1.56,5.66,-0.0 Z M302.83,-14.83" transform="matrix(0.8,0.0,0.0,-0.8,85.0,650.0)"/><path fill="#000" stroke="#000" stroke-width="1" d="M524,139 l0,-92" transform="matrix(0.8,0.0,0.0,-0.8,85.0,650.0)"/><path fill="#000" stroke="#000" stroke-width="1" d="M522,45 l4,0 l0,4 l-4,0 Z M522,45" transform="matrix(0.8,0.0,0.0,-0.8,85.0,650.0)"/><path fill="#FFF" stroke="#000" stroke-width="1" d="M526.83,136.17 c1.56,1.56,1.56,4.09,0,5.66 c-1.56,1.56,-4.09,1.56,-5.66,0 c-1.56,-1.56,-1.56,-4.09,0,-5.66 c1.56,-1.56,4.09,-1.56,5.66,0 Z M526.83,136.17" transform="matrix(0.8,0.0,0.0,-0.8,85.0,650.0)"/><path fill="#000" stroke="#000" stroke-width="1" d="M524,144 l0,61" transform="matrix(0.8,0.0,0.0,-0.8,85.0,650.0)"/><path fill="#000" stroke="#000" stroke-width="1" d="M522,203 l4,0 l0,4 l-4,0 Z M522,203" transform="matrix(0.8,0.0,0.0,-0.8,85.0,650.0)"/><path fill="#FFF" stroke="#000" stroke-width="1" d="M526.83,141.17 c1.56,1.56,1.56,4.09,0,5.66 c-1.56,1.56,-4.09,1.56,-5.66,0 c-1.56,-1.56,-1.56,-4.09,0,-5.66 c1.56,-1.56,4.09,-1.56,5.66,0 Z M526.83,141.17" transform="matrix(0.8,0.0,0.0,-0.8,85.0,650.0)"/><path fill="#000" stroke="#000" stroke-width="1" d="M368,287 l104,-38" transform="matrix(0.8,0.0,0.0,-0.8,85.0,650.0)"/><path fill="#000" stroke="#000" stroke-width="1" d="M470,247 l4,0 l0,4 l-4,0 Z M470,247" transform="matrix(0.8,0.0,0.0,-0.8,85.0,650.0)"/><path fill="#FFF" stroke="#000" stroke-width="1" d="M370.83,284.17 c1.56,1.56,1.56,4.09,0,5.66 c-1.56,1.56,-4.09,1.56,-5.66,0 c-1.56,-1.56,-1.56,-4.09,0,-5.66 c1.56,-1.56,4.09,-1.56,5.66,0 Z M370.83,284.17" transform="matrix(0.8,0.0,0.0,-0.8,85.0,650.0)"/><path fill="#000" stroke="#000" stroke-width="1" d="M283,318 l-125,45" transform="matrix(0.8,0.0,0.0,-0.8,85.0,650.0)"/><path fill="#000" stroke="#000" stroke-width="1" d="M156,361 l4,0 l0,4 l-4,0 Z M156,361" transform="matrix(0.8,0.0,0.0,-0.8,85.0,650.0)"/><path fill="#FFF" stroke="#000" stroke-width="1" d="M285.83,315.17 c1.56,1.56,1.56,4.09,0,5.66 c-1.56,1.56,-4.09,1.56,-5.66,0 c-1.56,-1.56,-1.56,-4.09,0,-5.66 c1.56,-1.56,4.09,-1.56,5.66,0 Z M285.83,315.17" transform="matrix(0.8,0.0,0.0,-0.8,85.0,650.0)"/><path fill="#000" stroke="#000" stroke-width="1" d="M140,430 l0,-35" transform="matrix(0.8,0.0,0.0,-0.8,85.0,650.0)"/><path fill="#000" stroke="#000" stroke-width="1" d="M138,393 l4,0 l0,4 l-4,0 Z M138,393" transform="matrix(0.8,0.0,0.0,-0.8,85.0,650.0)"/><path fill="#FFF" stroke="#000" stroke-width="1" d="M142.83,427.17 c1.56,1.56,1.56,4.09,0,5.66 c-1.56,1.56,-4.09,1.56,-5.66,0 c-1.56,-1.56,-1.56,-4.09,0,-5.66 c1.56,-1.56,4.09,-1.56,5.66,0 Z M142.83,427.17" transform="matrix(0.8,0.0,0.0,-0.8,85.0,650.0)"/><path fill="#000" stroke="#000" stroke-width="1" d="M140,437 l0,104" transform="matrix(0.8,0.0,0.0,-0.8,85.0,650.0)"/><path fill="#000" stroke="#000" stroke-width="1" d="M138,539 l4,0 l0,4 l-4,0 Z M138,539" transform="matrix(0.8,0.0,0.0,-0.8,85.0,650.0)"/><path fill="#FFF" stroke="#000" stroke-width="1" d="M142.83,434.17 c1.56,1.56,1.56,4.09,0,5.66 c-1.56,1.56,-4.09,1.56,-5.66,0 c-1.56,-1.56,-1.56,-4.09,0,-5.66 c1.56,-1.56,4.09,-1.56,5.66,0 Z M142.83,434.17" transform="matrix(0.8,0.0,0.0,-0.8,85.0,650.0)"/><path fill="#000" stroke="#000" stroke-width="1" d="M378,670 l-110,0" transform="matrix(0.8,0.0,0.0,-0.8,85.0,650.0)"/><path fill="#000" stroke="#000" stroke-width="1" d="M266,668 l4,0 l0,4 l-4,0 Z M266,668" transform="matrix(0.8,0.0,0.0,-0.8,85.0,650.0)"/><path fill="#000" stroke="#000" stroke-width="1" d="M378,670 l25,0" transform="matrix(0.8,0.0,0.0,-0.8,85.0,650.0)"/><path fill="#000" stroke="#000" stroke-width="1" d="M401,668 l4,0 l0,4 l-4,0 Z M401,668" transform="matrix(0.8,0.0,0.0,-0.8,85.0,650.0)"/><path fill="#FFF" stroke="#000" stroke-width="1" d="M380.83,667.17 c1.56,1.56,1.56,4.09,0,5.66 c-1.56,1.56,-4.09,1.56,-5.66,0 c-1.56,-1.56,-1.56,-4.09,0,-5.66 c1.56,-1.56,4.09,-1.56,5.66,0 Z M380.83,667.17" transform="matrix(0.8,0.0,0.0,-0.8,85.0,650.0)"/><path fill="#000" stroke="#000" stroke-width="1" d="M452,648 l-19,19" transform="matrix(0.8,0.0,0.0,-0.8,85.0,650.0)"/><path fill="#000" stroke="#000" stroke-width="1" d="M431,665 l4,0 l0,4 l-4,0 Z M431,665" transform="matrix(0.8,0.0,0.0,-0.8,85.0,650.0)"/><path fill="#FFF" stroke="#000" stroke-width="1" d="M448,644 l8,0 l0,8 l-8,0 Z M448,644" transform="matrix(0.8,0.0,0.0,-0.8,85.0,650.0)"/><path fill="#000" stroke="#000" stroke-width="1" d="M429,676 l23,-34" transform="matrix(0.8,0.0,0.0,-0.8,85.0,650.0)"/><path fill="#000" stroke="#000" stroke-width="1" d="M450,640 l4,0 l0,4 l-4,0 Z M450,640" transform="matrix(0.8,0.0,0.0,-0.8,85.0,650.0)"/><path fill="#FFF" stroke="#000" stroke-width="1" d="M425,672 l8,0 l0,8 l-8,0 Z M425,672" transform="matrix(0.8,0.0,0.0,-0.8,85.0,650.0)"/><path fill="#000" stroke="#000" stroke-width="1" d="M450,494 l0,140" transform="matrix(0.8,0.0,0.0,-0.8,85.0,650.0)"/><path fill="#000" stroke="#000" stroke-width="1" d="M448,632 l4,0 l0,4 l-4,0 Z M448,632" transform="matrix(0.8,0.0,0.0,-0.8,85.0,650.0)"/><path fill="#000" stroke="#000" stroke-width="1" d="M450,494 l0,-28" transform="matrix(0.8,0.0,0.0,-0.8,85.0,650.0)"/><path fill="#000" stroke="#000" stroke-width="1" d="M448,464 l4,0 l0,4 l-4,0 Z M448,464" transform="matrix(0.8,0.0,0.0,-0.8,85.0,650.0)"/><path fill="#FFF" stroke="#000" stroke-width="1" d="M452.83,491.17 c1.56,1.56,1.56,4.09,0,5.66 c-1.56,1.56,-4.09,1.56,-5.66,0 c-1.56,-1.56,-1.56,-4.09,0,-5.66 c1.56,-1.56,4.09,-1.56,5.66,0 Z M452.83,491.17" transform="matrix(0.8,0.0,0.0,-0.8,85.0,650.0)"/><path fill="#000" stroke="#000" stroke-width="1" d="M486,450 l-24,0" transform="matrix(0.8,0.0,0.0,-0.8,85.0,650.0)"/><path fill="#000" stroke="#000" stroke-width="1" d="M460,448 l4,0 l0,4 l-4,0 Z M460,448" transform="matrix(0.8,0.0,0.0,-0.8,85.0,650.0)"/><path fill="#000" stroke="#000" stroke-width="1" d="M486,450 l6,0" transform="matrix(0.8,0.0,0.0,-0.8,85.0,650.0)"/><path fill="#000" stroke="#000" stroke-width="1" d="M490,448 l4,0 l0,4 l-4,0 Z M490,448" transform="matrix(0.8,0.0,0.0,-0.8,85.0,650.0)"/><path fill="#FFF" stroke="#000" stroke-width="1" d="M488.83,447.17 c1.56,1.56,1.56,4.09,0,5.66 c-1.56,1.56,-4.09,1.56,-5.66,0 c-1.56,-1.56,-1.56,-4.09,0,-5.66 c1.56,-1.56,4.09,-1.56,5.66,0 Z M488.83,447.17" transform="matrix(0.8,0.0,0.0,-0.8,85.0,650.0)"/><path fill="#000" stroke="#000" stroke-width="1" d="M500,453 l-4,-2" transform="matrix(0.8,0.0,0.0,-0.8,85.0,650.0)"/><path fill="#000" stroke="#000" stroke-width="1" d="M494,449 l4,0 l0,4 l-4,0 Z M494,449" transform="matrix(0.8,0.0,0.0,-0.8,85.0,650.0)"/><path fill="#000" stroke="#000" stroke-width="1" d="M500,453 l0,48" transform="matrix(0.8,0.0,0.0,-0.8,85.0,650.0)"/><path fill="#000" stroke="#000" stroke-width="1" d="M498,499 l4,0 l0,4 l-4,0 Z M498,499" transform="matrix(0.8,0.0,0.0,-0.8,85.0,650.0)"/><path fill="#FFF" stroke="#000" stroke-width="1" d="M496,449 l8,0 l0,8 l-8,0 Z M496,449" transform="matrix(0.8,0.0,0.0,-0.8,85.0,650.0)"/><path fill="#000" stroke="#000" stroke-width="1" d="M500,596 l0,-48" transform="matrix(0.8,0.0,0.0,-0.8,85.0,650.0)"/><path fill="#000" stroke="#000" stroke-width="1" d="M498,546 l4,0 l0,4 l-4,0 Z M498,546" transform="matrix(0.8,0.0,0.0,-0.8,85.0,650.0)"/><path fill="#000" stroke="#000" stroke-width="1" d="M500,596 l0,32" transform="matrix(0.8,0.0,0.0,-0.8,85.0,650.0)"/><path fill="#000" stroke="#000" stroke-width="1" d="M498,626 l4,0 l0,4 l-4,0 Z M498,626" transform="matrix(0.8,0.0,0.0,-0.8,85.0,650.0)"/><path fill="#FFF" stroke="#000" stroke-width="1" d="M502.83,593.17 c1.56,1.56,1.56,4.09,0,5.66 c-1.56,1.56,-4.09,1.56,-5.66,0 c-1.56,-1.56,-1.56,-4.09,0,-5.66 c1.56,-1.56,4.09,-1.56,5.66,0 Z M502.83,593.17" transform="matrix(0.8,0.0,0.0,-0.8,85.0,650.0)"/><path fill="#000" stroke="#000" stroke-width="1" d="M470,688 l24,-24" transform="matrix(0.8,0.0,0.0,-0.8,85.0,650.0)"/><path fill="#000" stroke="#000" stroke-width="1" d="M492,662 l4,0 l0,4 l-4,0 Z M492,662" transform="matrix(0.8,0.0,0.0,-0.8,85.0,650.0)"/><path fill="#000" stroke="#000" stroke-width="1" d="M470,688 l-19,19" transform="matrix(0.8,0.0,0.0,-0.8,85.0,650.0)"/><path fill="#000" stroke="#000" stroke-width="1" d="M449,705 l4,0 l0,4 l-4,0 Z M449,705" transform="matrix(0.8,0.0,0.0,-0.8,85.0,650.0)"/><path fill="#FFF" stroke="#000" stroke-width="1" d="M466,684 l8,0 l0,8 l-8,0 Z M466,684" transform="matrix(0.8,0.0,0.0,-0.8,85.0,650.0)"/><text text-anchor="start" transform="matrix(1,0,0,1,14,-858)"><tspan x="0" y="885" fill="#000" font-family="RecursiveMonoLnr-Regular" font-size="14">S</tspan></text><text text-anchor="start" transform="matrix(1,0,0,1,14,-858)"><tspan x="588.4" y="885" fill="#000" font-family="RecursiveMonoLnr-Regular" font-size="14">0053</tspan></text><text text-anchor="start" transform="matrix(1,0,0,1,14,0)"><tspan x="285.8" y="885" fill="#000" font-family="RecursiveMonoLnr-Regular" font-size="14">600.00</tspan></text><text text-anchor="start" transform="matrix(1,0,0,1,14,0)"><tspan x="0" y="885" fill="#000" font-family="RecursiveMonoLnr-Regular" font-size="14">77.00</tspan></text><text text-anchor="start" transform="matrix(1,0,0,1,14,0)"><tspan x="580" y="885" fill="#000" font-family="RecursiveMonoLnr-Regular" font-size="14">76.00</tspan></text></svg>