<svg xmlns="http://www.w3.org/2000/svg" xmlns:xlink="http://www.w3.org/1999/xlink" width="650" height="900" version="1.1"><path fill="#0050FF" d="M0,0 l650,0 l0,900 l-650,0 Z M0,0" transform="matrix(1,0,0,-1,0,900)"/><path fill="#0050FF" d="M85,50 l480,0 l0,800 l-480,0 Z M85,50" transform="matrix(1,0,0,-1,0,900)"/><path fill="#0050FF" stroke="#FFF" stroke-dasharray="2 2" stroke-opacity=".25" stroke-width="1" d="M565,0 l0,900" transform="matrix(1,0,0,-1,0,900)"/><path fill="#0050FF" stroke="#FFF" stroke-dasharray="2 2" stroke-opacity=".25" stroke-width="1" d="M85,0 l0,900" transform="matrix(1,0,0,-1,0,900)"/><path fill="#0050FF" stroke="#FFF" stroke-dasharray="2 2" stroke-opacity=".25" stroke-width="1" d="M0,250 l650,0" transform="matrix(1,0,0,-1,0,900)"/><path fill="#0050FF" stroke="#FFF" stroke-dasharray="2 2" stroke-opacity=".25" stroke-width="1" d="M0,50 l650,0" transform="matrix(1,0,0,-1,0,900)"/><path fill="#0050FF" stroke="#FFF" stroke-dasharray="2 2" stroke-opacity=".25" stroke-width="1" d="M0,850 l650,0" transform="matrix(1,0,0,-1,0,900)"/><path fill="#0050FF" stroke="#FFF" stroke-dasharray="2 2" stroke-opacity=".25" stroke-width="1" d="M0,810 l650,0" transform="matrix(1,0,0,-1,0,900)"/><path fill="#0050FF" stroke="#FFF" stroke-dasharray="2 2" stroke-opacity=".25" stroke-width="1" d="M0,682 l650,0" transform="matrix(1,0,0,-1,0,900)"/><path fill="#FFF" stroke="#226" stroke-linejoin="round" stroke-width="1" d="M540,0 c0,33,0,66,0,99 c0,100,0,198,0,295 c0,99,-56,158,-142,158 c-66,0,-121,-40,-158,-98 l-37,0 l0,-126 c37,52,102,79,145,79 c31,0,42,-14,42,-44 c0,-117,0,-235,0,-352 c0,-7,4,-11,11,-11 c50,0,89,0,139,0 Z M220,0 c0,176,0,353,0,529 c0,7,-4,11,-11,11 c-45,0,-84,0,-139,0 c0,-28,0,-62,0,-98 c0,-144,0,-287,0,-431 c0,-7,4,-11,11,-11 c50,0,89,0,139,0 Z M220,0" transform="matrix(0.8,0.0,0.0,-0.8,85.0,650.0)"/><path fill="#000" stroke="#000" stroke-width="1" d="M540,0 l-50,0" transform="matrix(0.8,0.0,0.0,-0.8,85.0,650.0)"/><path fill="#000" stroke="#000" stroke-width="1" d="M488,-2 l4,0 l0,4 l-4,0 Z M488,-2" transform="matrix(0.8,0.0,0.0,-0.8,85.0,650.0)"/><path fill="#000" stroke="#000" stroke-width="1" d="M540,0 l0,33" transform="matrix(0.8,0.0,0.0,-0.8,85.0,650.0)"/><path fill="#000" stroke="#000" stroke-width="1" d="M538,31 l4,0 l0,4 l-4,0 Z M538,31" transform="matrix(0.8,0.0,0.0,-0.8,85.0,650.0)"/><path fill="#FFF" stroke="#000" stroke-width="1" d="M536,-4 l8,0 l0,8 l-8,0 Z M536,-4" transform="matrix(0.8,0.0,0.0,-0.8,85.0,650.0)"/><path fill="#000" stroke="#000" stroke-width="1" d="M540,99 l0,-33" transform="matrix(0.8,0.0,0.0,-0.8,85.0,650.0)"/><path fill="#000" stroke="#000" stroke-width="1" d="M538,64 l4,0 l0,4 l-4,0 Z M538,64" transform="matrix(0.8,0.0,0.0,-0.8,85.0,650.0)"/><path fill="#000" stroke="#000" stroke-width="1" d="M540,99 l0,100" transform="matrix(0.8,0.0,0.0,-0.8,85.0,650.0)"/><path fill="#000" stroke="#000" stroke-width="1" d="M538,197 l4,0 l0,4 l-4,0 Z M538,197" transform="matrix(0.8,0.0,0.0,-0.8,85.0,650.0)"/><path fill="#FFF" stroke="#000" stroke-width="1" d="M542.83,96.17 c1.56,1.56,1.56,4.09,0,5.66 c-1.56,1.56,-4.09,1.56,-5.66,0 c-1.56,-1.56,-1.56,-4.09,0,-5.66 c1.56,-1.56,4.09,-1.56,5.66,0 Z M542.83,96.17" transform="matrix(0.8,0.0,0.0,-0.8,85.0,650.0)"/><path fill="#000" stroke="#000" stroke-width="1" d="M540,394 l0,-97" transform="matrix(0.8,0.0,0.0,-0.8,85.0,650.0)"/><path fill="#000" stroke="#000" stroke-width="1" d="M538,295 l4,0 l0,4 l-4,0 Z M538,295" transform="matrix(0.8,0.0,0.0,-0.8,85.0,650.0)"/><path fill="#000" stroke="#000" stroke-width="1" d="M540,394 l0,99" transform="matrix(0.8,0.0,0.0,-0.8,85.0,650.0)"/><path fill="#000" stroke="#000" stroke-width="1" d="M538,491 l4,0 l0,4 l-4,0 Z M538,491" transform="matrix(0.8,0.0,0.0,-0.8,85.0,650.0)"/><path fill="#FFF" stroke="#000" stroke-width="1" d="M542.83,391.17 c1.56,1.56,1.56,4.09,0,5.66 c-1.56,1.56,-4.09,1.56,-5.66,0 c-1.56,-1.56,-1.56,-4.09,0,-5.66 c1.56,-1.56,4.09,-1.56,5.66,0 Z M542.83,391.17" transform="matrix(0.8,0.0,0.0,-0.8,85.0,650.0)"/><path fill="#000" stroke="#000" stroke-width="1" d="M398,552 l86,0" transform="matrix(0.8,0.0,0.0,-0.8,85.0,650.0)"/><path fill="#000" stroke="#000" stroke-width="1" d="M482,550 l4,0 l0,4 l-4,0 Z M482,550" transform="matrix(0.8,0.0,0.0,-0.8,85.0,650.0)"/><path fill="#000" stroke="#000" stroke-width="1" d="M398,552 l-66,0" transform="matrix(0.8,0.0,0.0,-0.8,85.0,650.0)"/><path fill="#000" stroke="#000" stroke-width="1" d="M330,550 l4,0 l0,4 l-4,0 Z M330,550" transform="matrix(0.8,0.0,0.0,-0.8,85.0,650.0)"/><path fill="#FFF" stroke="#000" stroke-width="1" d="M400.83,549.17 c1.56,1.56,1.56,4.09,0,5.66 c-1.56,1.56,-4.09,1.56,-5.66,0 c-1.56,-1.56,-1.56,-4.09,0,-5.66 c1.56,-1.56,4.09,-1.56,5.66,0 Z M400.83,549.17" transform="matrix(0.8,0.0,0.0,-0.8,85.0,650.0)"/><path fill="#000" stroke="#000" stroke-width="1" d="M240,454 l37,58" transform="matrix(0.8,0.0,0.0,-0.8,85.0,650.0)"/><path fill="#000" stroke="#000" stroke-width="1" d="M275,510 l4,0 l0,4 l-4,0 Z M275,510" transform="matrix(0.8,0.0,0.0,-0.8,85.0,650.0)"/><path fill="#FFF" stroke="#000" stroke-width="1" d="M236,450 l8,0 l0,8 l-8,0 Z M236,450" transform="matrix(0.8,0.0,0.0,-0.8,85.0,650.0)"/><path fill="#FFF" stroke="#000" stroke-width="1" d="M199,450 l8,0 l0,8 l-8,0 Z M199,450" transform="matrix(0.8,0.0,0.0,-0.8,85.0,650.0)"/><path fill="#000" stroke="#000" stroke-width="1" d="M203,328 l37,52" transform="matrix(0.8,0.0,0.0,-0.8,85.0,650.0)"/><path fill="#000" stroke="#000" stroke-width="1" d="M238,378 l4,0 l0,4 l-4,0 Z M238,378" transform="matrix(0.8,0.0,0.0,-0.8,85.0,650.0)"/><path fill="#FFF" stroke="#000" stroke-width="1" d="M199,324 l8,0 l0,8 l-8,0 Z M199,324" transform="matrix(0.8,0.0,0.0,-0.8,85.0,650.0)"/><path fill="#000" stroke="#000" stroke-width="1" d="M348,407 l-43,0" transform="matrix(0.8,0.0,0.0,-0.8,85.0,650.0)"/><path fill="#000" stroke="#000" stroke-width="1" d="M303,405 l4,0 l0,4 l-4,0 Z M303,405" transform="matrix(0.8,0.0,0.0,-0.8,85.0,650.0)"/><path fill="#000" stroke="#000" stroke-width="1" d="M348,407 l31,0" transform="matrix(0.8,0.0,0.0,-0.8,85.0,650.0)"/><path fill="#000" stroke="#000" stroke-width="1" d="M377,405 l4,0 l0,4 l-4,0 Z M377,405" transform="matrix(0.8,0.0,0.0,-0.8,85.0,650.0)"/><path fill="#FFF" stroke="#000" stroke-width="1" d="M350.83,404.17 c1.56,1.56,1.56,4.09,0,5.66 c-1.56,1.56,-4.09,1.56,-5.66,0 c-1.56,-1.56,-1.56,-4.09,0,-5.66 c1.56,-1.56,4.09,-1.56,5.66,0 Z M350.83,404.17" transform="matrix(0.8,0.0,0.0,-0.8,85.0,650.0)"/><path fill="#000" stroke="#000" stroke-width="1" d="M390,363 l0,30" transform="matrix(0.8,0.0,0.0,-0.8,85.0,650.0)"/><path fill="#000" stroke="#000" stroke-width="1" d="M388,391 l4,0 l0,4 l-4,0 Z M388,391" transform="matrix(0.8,0.0,0.0,-0.8,85.0,650.0)"/><path fill="#000" stroke="#000" stroke-width="1" d="M390,363 l0,-117" transform="matrix(0.8,0.0,0.0,-0.8,85.0,650.0)"/><path fill="#000" stroke="#000" stroke-width="1" d="M388,244 l4,0 l0,4 l-4,0 Z M388,244" transform="matrix(0.8,0.0,0.0,-0.8,85.0,650.0)"/><path fill="#FFF" stroke="#000" stroke-width="1" d="M386,359 l8,0 l0,8 l-8,0 Z M386,359" transform="matrix(0.8,0.0,0.0,-0.8,85.0,650.0)"/><path fill="#000" stroke="#000" stroke-width="1" d="M390,11 l0,117" transform="matrix(0.8,0.0,0.0,-0.8,85.0,650.0)"/><path fill="#000" stroke="#000" stroke-width="1" d="M388,126 l4,0 l0,4 l-4,0 Z M388,126" transform="matrix(0.8,0.0,0.0,-0.8,85.0,650.0)"/><path fill="#000" stroke="#000" stroke-width="1" d="M390,11 l0,-7" transform="matrix(0.8,0.0,0.0,-0.8,85.0,650.0)"/><path fill="#000" stroke="#000" stroke-width="1" d="M388,2 l4,0 l0,4 l-4,0 Z M388,2" transform="matrix(0.8,0.0,0.0,-0.8,85.0,650.0)"/><path fill="#FFF" stroke="#000" stroke-width="1" d="M392.83,8.17 c1.56,1.56,1.56,4.09,0,5.66 c-1.56,1.56,-4.09,1.56,-5.66,0 c-1.56,-1.56,-1.56,-4.09,0,-5.66 c1.56,-1.56,4.09,-1.56,5.66,-0.0 Z M392.83,8.17" transform="matrix(0.8,0.0,0.0,-0.8,85.0,650.0)"/><path fill="#000" stroke="#000" stroke-width="1" d="M401,0 l-7,0" transform="matrix(0.8,0.0,0.0,-0.8,85.0,650.0)"/><path fill="#000" stroke="#000" stroke-width="1" d="M392,-2 l4,0 l0,4 l-4,0 Z M392,-2" transform="matrix(0.8,0.0,0.0,-0.8,85.0,650.0)"/><path fill="#000" stroke="#000" stroke-width="1" d="M401,0 l50,0" transform="matrix(0.8,0.0,0.0,-0.8,85.0,650.0)"/><path fill="#000" stroke="#000" stroke-width="1" d="M449,-2 l4,0 l0,4 l-4,0 Z M449,-2" transform="matrix(0.8,0.0,0.0,-0.8,85.0,650.0)"/><path fill="#FFF" stroke="#000" stroke-width="1" d="M397,-4 l8,0 l0,8 l-8,0 Z M397,-4" transform="matrix(0.8,0.0,0.0,-0.8,85.0,650.0)"/><path fill="#000" stroke="#000" stroke-width="1" d="M220,0 l-50,0" transform="matrix(0.8,0.0,0.0,-0.8,85.0,650.0)"/><path fill="#000" stroke="#000" stroke-width="1" d="M168,-2 l4,0 l0,4 l-4,0 Z M168,-2" transform="matrix(0.8,0.0,0.0,-0.8,85.0,650.0)"/><path fill="#000" stroke="#000" stroke-width="1" d="M220,0 l0,176" transform="matrix(0.8,0.0,0.0,-0.8,85.0,650.0)"/><path fill="#000" stroke="#000" stroke-width="1" d="M218,174 l4,0 l0,4 l-4,0 Z M218,174" transform="matrix(0.8,0.0,0.0,-0.8,85.0,650.0)"/><path fill="#FFF" stroke="#000" stroke-width="1" d="M216,-4 l8,0 l0,8 l-8,0 Z M216,-4" transform="matrix(0.8,0.0,0.0,-0.8,85.0,650.0)"/><path fill="#000" stroke="#000" stroke-width="1" d="M220,529 l0,-176" transform="matrix(0.8,0.0,0.0,-0.8,85.0,650.0)"/><path fill="#000" stroke="#000" stroke-width="1" d="M218,351 l4,0 l0,4 l-4,0 Z M218,351" transform="matrix(0.8,0.0,0.0,-0.8,85.0,650.0)"/><path fill="#000" stroke="#000" stroke-width="1" d="M220,529 l0,7" transform="matrix(0.8,0.0,0.0,-0.8,85.0,650.0)"/><path fill="#000" stroke="#000" stroke-width="1" d="M218,534 l4,0 l0,4 l-4,0 Z M218,534" transform="matrix(0.8,0.0,0.0,-0.8,85.0,650.0)"/><path fill="#FFF" stroke="#000" stroke-width="1" d="M216,525 l8,0 l0,8 l-8,0 Z M216,525" transform="matrix(0.8,0.0,0.0,-0.8,85.0,650.0)"/><path fill="#000" stroke="#000" stroke-width="1" d="M209,540 l7,0" transform="matrix(0.8,0.0,0.0,-0.8,85.0,650.0)"/><path fill="#000" stroke="#000" stroke-width="1" d="M214,538 l4,0 l0,4 l-4,0 Z M214,538" transform="matrix(0.8,0.0,0.0,-0.8,85.0,650.0)"/><path fill="#000" stroke="#000" stroke-width="1" d="M209,540 l-45,0" transform="matrix(0.8,0.0,0.0,-0.8,85.0,650.0)"/><path fill="#000" stroke="#000" stroke-width="1" d="M162,538 l4,0 l0,4 l-4,0 Z M162,538" transform="matrix(0.8,0.0,0.0,-0.8,85.0,650.0)"/><path fill="#FFF" stroke="#000" stroke-width="1" d="M205,536 l8,0 l0,8 l-8,0 Z M205,536" transform="matrix(0.8,0.0,0.0,-0.8,85.0,650.0)"/><path fill="#000" stroke="#000" stroke-width="1" d="M70,540 l55,0" transform="matrix(0.8,0.0,0.0,-0.8,85.0,650.0)"/><path fill="#000" stroke="#000" stroke-width="1" d="M123,538 l4,0 l0,4 l-4,0 Z M123,538" transform="matrix(0.8,0.0,0.0,-0.8,85.0,650.0)"/><path fill="#000" stroke="#000" stroke-width="1" d="M70,540 l0,-28" transform="matrix(0.8,0.0,0.0,-0.8,85.0,650.0)"/><path fill="#000" stroke="#000" stroke-width="1" d="M68,510 l4,0 l0,4 l-4,0 Z M68,510" transform="matrix(0.8,0.0,0.0,-0.8,85.0,650.0)"/><path fill="#FFF" stroke="#000" stroke-width="1" d="M66,536 l8,0 l0,8 l-8,0 Z M66,536" transform="matrix(0.8,0.0,0.0,-0.8,85.0,650.0)"/><path fill="#000" stroke="#000" stroke-width="1" d="M70,442 l0,36" transform="matrix(0.8,0.0,0.0,-0.8,85.0,650.0)"/><path fill="#000" stroke="#000" stroke-width="1" d="M68,476 l4,0 l0,4 l-4,0 Z M68,476" transform="matrix(0.8,0.0,0.0,-0.8,85.0,650.0)"/><path fill="#000" stroke="#000" stroke-width="1" d="M70,442 l0,-144" transform="matrix(0.8,0.0,0.0,-0.8,85.0,650.0)"/><path fill="#000" stroke="#000" stroke-width="1" d="M68,296 l4,0 l0,4 l-4,0 Z M68,296" transform="matrix(0.8,0.0,0.0,-0.8,85.0,650.0)"/><path fill="#FFF" stroke="#000" stroke-width="1" d="M66,438 l8,0 l0,8 l-8,0 Z M66,438" transform="matrix(0.8,0.0,0.0,-0.8,85.0,650.0)"/><path fill="#000" stroke="#000" stroke-width="1" d="M70,11 l0,144" transform="matrix(0.8,0.0,0.0,-0.8,85.0,650.0)"/><path fill="#000" stroke="#000" stroke-width="1" d="M68,153 l4,0 l0,4 l-4,0 Z M68,153" transform="matrix(0.8,0.0,0.0,-0.8,85.0,650.0)"/><path fill="#000" stroke="#000" stroke-width="1" d="M70,11 l0,-7" transform="matrix(0.8,0.0,0.0,-0.8,85.0,650.0)"/><path fill="#000" stroke="#000" stroke-width="1" d="M68,2 l4,0 l0,4 l-4,0 Z M68,2" transform="matrix(0.8,0.0,0.0,-0.8,85.0,650.0)"/><path fill="#FFF" stroke="#000" stroke-width="1" d="M66,7 l8,0 l0,8 l-8,0 Z M66,7" transform="matrix(0.8,0.0,0.0,-0.8,85.0,650.0)"/><path fill="#000" stroke="#000" stroke-width="1" d="M81,0 l-7,0" transform="matrix(0.8,0.0,0.0,-0.8,85.0,650.0)"/><path fill="#000" stroke="#000" stroke-width="1" d="M72,-2 l4,0 l0,4 l-4,0 Z M72,-2" transform="matrix(0.8,0.0,0.0,-0.8,85.0,650.0)"/><path fill="#000" stroke="#000" stroke-width="1" d="M81,0 l50,0" transform="matrix(0.8,0.0,0.0,-0.8,85.0,650.0)"/><path fill="#000" stroke="#000" stroke-width="1" d="M129,-2 l4,0 l0,4 l-4,0 Z M129,-2" transform="matrix(0.8,0.0,0.0,-0.8,85.0,650.0)"/><path fill="#FFF" stroke="#000" stroke-width="1" d="M77,-4 l8,0 l0,8 l-8,0 Z M77,-4" transform="matrix(0.8,0.0,0.0,-0.8,85.0,650.0)"/><text text-anchor="start" transform="matrix(1,0,0,1,14,-858)"><tspan x="0" y="885" fill="#000" font-family="RecursiveMonoLnr-Regular" font-size="14">n</tspan></text><text text-anchor="start" transform="matrix(1,0,0,1,14,-858)"><tspan x="588.4" y="885" fill="#000" font-family="RecursiveMonoLnr-Regular" font-size="14">006E</tspan></text><text text-anchor="start" transform="matrix(1,0,0,1,14,0)"><tspan x="285.8" y="885" fill="#000" font-family="RecursiveMonoLnr-Regular" font-size="14">600.00</tspan></text><text text-anchor="start" transform="matrix(1,0,0,1,14,0)"><tspan x="0" y="885" fill="#000" font-family="RecursiveMonoLnr-Regular" font-size="14">70.00</tspan></text><text text-anchor="start" transform="matrix(1,0,0,1,14,0)"><tspan x="580" y="885" fill="#000" font-family="RecursiveMonoLnr-Regular" font-size="14">60.00</tspan></text></svg>