<svg xmlns="http://www.w3.org/2000/svg" xmlns:xlink="http://www.w3.org/1999/xlink" width="650" height="900" version="1.1"><path fill="#0050FF" d="M0,0 l650,0 l0,900 l-650,0 Z M0,0" transform="matrix(1,0,0,-1,0,900)"/><path fill="#0050FF" d="M85,50 l480,0 l0,800 l-480,0 Z M85,50" transform="matrix(1,0,0,-1,0,900)"/><path fill="#0050FF" stroke="#FFF" stroke-dasharray="2 2" stroke-opacity=".25" stroke-width="1" d="M565,0 l0,900" transform="matrix(1,0,0,-1,0,900)"/><path fill="#0050FF" stroke="#FFF" stroke-dasharray="2 2" stroke-opacity=".25" stroke-width="1" d="M85,0 l0,900" transform="matrix(1,0,0,-1,0,900)"/><path fill="#0050FF" stroke="#FFF" stroke-dasharray="2 2" stroke-opacity=".25" stroke-width="1" d="M0,250 l650,0" transform="matrix(1,0,0,-1,0,900)"/><path fill="#0050FF" stroke="#FFF" stroke-dasharray="2 2" stroke-opacity=".25" stroke-width="1" d="M0,690 l650,0" transform="matrix(1,0,0,-1,0,900)"/><path fill="#0050FF" stroke="#FFF" stroke-dasharray="2 2" stroke-opacity=".25" stroke-width="1" d="M0,50 l650,0" transform="matrix(1,0,0,-1,0,900)"/><path fill="#0050FF" stroke="#FFF" stroke-dasharray="2 2" stroke-opacity=".25" stroke-width="1" d="M0,850 l650,0" transform="matrix(1,0,0,-1,0,900)"/><path fill="#0050FF" stroke="#FFF" stroke-dasharray="2 2" stroke-opacity=".25" stroke-width="1" d="M0,810 l650,0" transform="matrix(1,0,0,-1,0,900)"/><path fill="#FFF" stroke="#226" stroke-linejoin="round" stroke-width="1" d="M253,562 c-88,0,-179,-61,-238,-302 l-9,-37 c-25,-103,35,-233,113,-233 c65,0,132,48,177,123 l31,0 l5,129 c-16,-34,-58,-50,-82,-50 c-9,0,-18,1,-25,4 c1,19,5,40,12,65 l2,7 c31,108,56,123,85,123 c29,0,51,-5,64,-19 l25,93 l-28,0 c-25,56,-75,97,-132,97 Z M396,551 c3,-38,-3,-84,-15,-139 c-18,-76,-56,-162,-77,-263 c-17,-78,52,-160,116,-160 c32,0,62,10,90,37 c21,21,44,61,56,107 c8,28,11,57,11,72 l-6,0 c-9,-9,-21,-15,-32,-15 c-5,0,-12,1,-17,2 c19,70,44,130,56,174 c36,138,7,194,-95,194 c-33,0,-63,-4,-87,-9 Z M396,551" transform="matrix(0.8,0.0,0.0,-0.8,85.0,650.0)"/><path fill="#000" stroke="#000" stroke-width="1" d="M253,562 l57,0" transform="matrix(0.8,0.0,0.0,-0.8,85.0,650.0)"/><path fill="#000" stroke="#000" stroke-width="1" d="M308,560 l4,0 l0,4 l-4,0 Z M308,560" transform="matrix(0.8,0.0,0.0,-0.8,85.0,650.0)"/><path fill="#000" stroke="#000" stroke-width="1" d="M253,562 l-88,0" transform="matrix(0.8,0.0,0.0,-0.8,85.0,650.0)"/><path fill="#000" stroke="#000" stroke-width="1" d="M163,560 l4,0 l0,4 l-4,0 Z M163,560" transform="matrix(0.8,0.0,0.0,-0.8,85.0,650.0)"/><path fill="#FFF" stroke="#000" stroke-width="1" d="M255.83,559.17 c1.56,1.56,1.56,4.09,0,5.66 c-1.56,1.56,-4.09,1.56,-5.66,0 c-1.56,-1.56,-1.56,-4.09,0,-5.66 c1.56,-1.56,4.09,-1.56,5.66,0 Z M255.83,559.17" transform="matrix(0.8,0.0,0.0,-0.8,85.0,650.0)"/><path fill="#000" stroke="#000" stroke-width="1" d="M15,260 l59,241" transform="matrix(0.8,0.0,0.0,-0.8,85.0,650.0)"/><path fill="#000" stroke="#000" stroke-width="1" d="M72,499 l4,0 l0,4 l-4,0 Z M72,499" transform="matrix(0.8,0.0,0.0,-0.8,85.0,650.0)"/><path fill="#FFF" stroke="#000" stroke-width="1" d="M17.83,257.17 c1.56,1.56,1.56,4.09,0,5.66 c-1.56,1.56,-4.09,1.56,-5.66,0 c-1.56,-1.56,-1.56,-4.09,-0.0,-5.66 c1.56,-1.56,4.09,-1.56,5.66,0 Z M17.83,257.17" transform="matrix(0.8,0.0,0.0,-0.8,85.0,650.0)"/><path fill="#000" stroke="#000" stroke-width="1" d="M6,223 l-25,-103" transform="matrix(0.8,0.0,0.0,-0.8,85.0,650.0)"/><path fill="#000" stroke="#000" stroke-width="1" d="M-21,118 l4,0 l0,4 l-4,0 Z M-21,118" transform="matrix(0.8,0.0,0.0,-0.8,85.0,650.0)"/><path fill="#FFF" stroke="#000" stroke-width="1" d="M8.83,220.17 c1.56,1.56,1.56,4.09,0,5.66 c-1.56,1.56,-4.09,1.56,-5.66,0 c-1.56,-1.56,-1.56,-4.09,-0.0,-5.66 c1.56,-1.56,4.09,-1.56,5.66,0 Z M8.83,220.17" transform="matrix(0.8,0.0,0.0,-0.8,85.0,650.0)"/><path fill="#000" stroke="#000" stroke-width="1" d="M119,-10 l-78,0" transform="matrix(0.8,0.0,0.0,-0.8,85.0,650.0)"/><path fill="#000" stroke="#000" stroke-width="1" d="M39,-12 l4,0 l0,4 l-4,0 Z M39,-12" transform="matrix(0.8,0.0,0.0,-0.8,85.0,650.0)"/><path fill="#000" stroke="#000" stroke-width="1" d="M119,-10 l65,0" transform="matrix(0.8,0.0,0.0,-0.8,85.0,650.0)"/><path fill="#000" stroke="#000" stroke-width="1" d="M182,-12 l4,0 l0,4 l-4,0 Z M182,-12" transform="matrix(0.8,0.0,0.0,-0.8,85.0,650.0)"/><path fill="#FFF" stroke="#000" stroke-width="1" d="M115,-14 l8,0 l0,8 l-8,0 Z M115,-14" transform="matrix(0.8,0.0,0.0,-0.8,85.0,650.0)"/><path fill="#000" stroke="#000" stroke-width="1" d="M296,113 l-45,-75" transform="matrix(0.8,0.0,0.0,-0.8,85.0,650.0)"/><path fill="#000" stroke="#000" stroke-width="1" d="M249,36 l4,0 l0,4 l-4,0 Z M249,36" transform="matrix(0.8,0.0,0.0,-0.8,85.0,650.0)"/><path fill="#FFF" stroke="#000" stroke-width="1" d="M292,109 l8,0 l0,8 l-8,0 Z M292,109" transform="matrix(0.8,0.0,0.0,-0.8,85.0,650.0)"/><path fill="#FFF" stroke="#000" stroke-width="1" d="M323,109 l8,0 l0,8 l-8,0 Z M323,109" transform="matrix(0.8,0.0,0.0,-0.8,85.0,650.0)"/><path fill="#000" stroke="#000" stroke-width="1" d="M332,242 l-16,-34" transform="matrix(0.8,0.0,0.0,-0.8,85.0,650.0)"/><path fill="#000" stroke="#000" stroke-width="1" d="M314,206 l4,0 l0,4 l-4,0 Z M314,206" transform="matrix(0.8,0.0,0.0,-0.8,85.0,650.0)"/><path fill="#FFF" stroke="#000" stroke-width="1" d="M328,238 l8,0 l0,8 l-8,0 Z M328,238" transform="matrix(0.8,0.0,0.0,-0.8,85.0,650.0)"/><path fill="#000" stroke="#000" stroke-width="1" d="M250,192 l24,0" transform="matrix(0.8,0.0,0.0,-0.8,85.0,650.0)"/><path fill="#000" stroke="#000" stroke-width="1" d="M272,190 l4,0 l0,4 l-4,0 Z M272,190" transform="matrix(0.8,0.0,0.0,-0.8,85.0,650.0)"/><path fill="#000" stroke="#000" stroke-width="1" d="M250,192 l-9,0" transform="matrix(0.8,0.0,0.0,-0.8,85.0,650.0)"/><path fill="#000" stroke="#000" stroke-width="1" d="M239,190 l4,0 l0,4 l-4,0 Z M239,190" transform="matrix(0.8,0.0,0.0,-0.8,85.0,650.0)"/><path fill="#FFF" stroke="#000" stroke-width="1" d="M252.83,189.17 c1.56,1.56,1.56,4.09,0,5.66 c-1.56,1.56,-4.09,1.56,-5.66,0 c-1.56,-1.56,-1.56,-4.09,0,-5.66 c1.56,-1.56,4.09,-1.56,5.66,0 Z M252.83,189.17" transform="matrix(0.8,0.0,0.0,-0.8,85.0,650.0)"/><path fill="#000" stroke="#000" stroke-width="1" d="M225,196 l7,-3" transform="matrix(0.8,0.0,0.0,-0.8,85.0,650.0)"/><path fill="#000" stroke="#000" stroke-width="1" d="M230,191 l4,0 l0,4 l-4,0 Z M230,191" transform="matrix(0.8,0.0,0.0,-0.8,85.0,650.0)"/><path fill="#000" stroke="#000" stroke-width="1" d="M225,196 l1,19" transform="matrix(0.8,0.0,0.0,-0.8,85.0,650.0)"/><path fill="#000" stroke="#000" stroke-width="1" d="M224,213 l4,0 l0,4 l-4,0 Z M224,213" transform="matrix(0.8,0.0,0.0,-0.8,85.0,650.0)"/><path fill="#FFF" stroke="#000" stroke-width="1" d="M221,192 l8,0 l0,8 l-8,0 Z M221,192" transform="matrix(0.8,0.0,0.0,-0.8,85.0,650.0)"/><path fill="#000" stroke="#000" stroke-width="1" d="M237,261 l-7,-25" transform="matrix(0.8,0.0,0.0,-0.8,85.0,650.0)"/><path fill="#000" stroke="#000" stroke-width="1" d="M228,234 l4,0 l0,4 l-4,0 Z M228,234" transform="matrix(0.8,0.0,0.0,-0.8,85.0,650.0)"/><path fill="#FFF" stroke="#000" stroke-width="1" d="M239.83,258.17 c1.56,1.56,1.56,4.09,0,5.66 c-1.56,1.56,-4.09,1.56,-5.66,0 c-1.56,-1.56,-1.56,-4.09,0,-5.66 c1.56,-1.56,4.09,-1.56,5.66,0 Z M239.83,258.17" transform="matrix(0.8,0.0,0.0,-0.8,85.0,650.0)"/><path fill="#000" stroke="#000" stroke-width="1" d="M239,268 l31,108" transform="matrix(0.8,0.0,0.0,-0.8,85.0,650.0)"/><path fill="#000" stroke="#000" stroke-width="1" d="M268,374 l4,0 l0,4 l-4,0 Z M268,374" transform="matrix(0.8,0.0,0.0,-0.8,85.0,650.0)"/><path fill="#FFF" stroke="#000" stroke-width="1" d="M241.83,265.17 c1.56,1.56,1.56,4.09,0,5.66 c-1.56,1.56,-4.09,1.56,-5.66,0 c-1.56,-1.56,-1.56,-4.09,0,-5.66 c1.56,-1.56,4.09,-1.56,5.66,0 Z M241.83,265.17" transform="matrix(0.8,0.0,0.0,-0.8,85.0,650.0)"/><path fill="#000" stroke="#000" stroke-width="1" d="M324,391 l-29,0" transform="matrix(0.8,0.0,0.0,-0.8,85.0,650.0)"/><path fill="#000" stroke="#000" stroke-width="1" d="M293,389 l4,0 l0,4 l-4,0 Z M293,389" transform="matrix(0.8,0.0,0.0,-0.8,85.0,650.0)"/><path fill="#000" stroke="#000" stroke-width="1" d="M324,391 l29,0" transform="matrix(0.8,0.0,0.0,-0.8,85.0,650.0)"/><path fill="#000" stroke="#000" stroke-width="1" d="M351,389 l4,0 l0,4 l-4,0 Z M351,389" transform="matrix(0.8,0.0,0.0,-0.8,85.0,650.0)"/><path fill="#FFF" stroke="#000" stroke-width="1" d="M326.83,388.17 c1.56,1.56,1.56,4.09,0,5.66 c-1.56,1.56,-4.09,1.56,-5.66,0 c-1.56,-1.56,-1.56,-4.09,0,-5.66 c1.56,-1.56,4.09,-1.56,5.66,0 Z M326.83,388.17" transform="matrix(0.8,0.0,0.0,-0.8,85.0,650.0)"/><path fill="#000" stroke="#000" stroke-width="1" d="M388,372 l-13,14" transform="matrix(0.8,0.0,0.0,-0.8,85.0,650.0)"/><path fill="#000" stroke="#000" stroke-width="1" d="M373,384 l4,0 l0,4 l-4,0 Z M373,384" transform="matrix(0.8,0.0,0.0,-0.8,85.0,650.0)"/><path fill="#FFF" stroke="#000" stroke-width="1" d="M384,368 l8,0 l0,8 l-8,0 Z M384,368" transform="matrix(0.8,0.0,0.0,-0.8,85.0,650.0)"/><path fill="#FFF" stroke="#000" stroke-width="1" d="M409,461 l8,0 l0,8 l-8,0 Z M409,461" transform="matrix(0.8,0.0,0.0,-0.8,85.0,650.0)"/><path fill="#000" stroke="#000" stroke-width="1" d="M385,465 l-25,56" transform="matrix(0.8,0.0,0.0,-0.8,85.0,650.0)"/><path fill="#000" stroke="#000" stroke-width="1" d="M358,519 l4,0 l0,4 l-4,0 Z M358,519" transform="matrix(0.8,0.0,0.0,-0.8,85.0,650.0)"/><path fill="#FFF" stroke="#000" stroke-width="1" d="M381,461 l8,0 l0,8 l-8,0 Z M381,461" transform="matrix(0.8,0.0,0.0,-0.8,85.0,650.0)"/><path fill="#000" stroke="#000" stroke-width="1" d="M396,551 l24,5" transform="matrix(0.8,0.0,0.0,-0.8,85.0,650.0)"/><path fill="#000" stroke="#000" stroke-width="1" d="M418,554 l4,0 l0,4 l-4,0 Z M418,554" transform="matrix(0.8,0.0,0.0,-0.8,85.0,650.0)"/><path fill="#000" stroke="#000" stroke-width="1" d="M396,551 l3,-38" transform="matrix(0.8,0.0,0.0,-0.8,85.0,650.0)"/><path fill="#000" stroke="#000" stroke-width="1" d="M397,511 l4,0 l0,4 l-4,0 Z M397,511" transform="matrix(0.8,0.0,0.0,-0.8,85.0,650.0)"/><path fill="#FFF" stroke="#000" stroke-width="1" d="M392,547 l8,0 l0,8 l-8,0 Z M392,547" transform="matrix(0.8,0.0,0.0,-0.8,85.0,650.0)"/><path fill="#000" stroke="#000" stroke-width="1" d="M381,412 l12,55" transform="matrix(0.8,0.0,0.0,-0.8,85.0,650.0)"/><path fill="#000" stroke="#000" stroke-width="1" d="M391,465 l4,0 l0,4 l-4,0 Z M391,465" transform="matrix(0.8,0.0,0.0,-0.8,85.0,650.0)"/><path fill="#000" stroke="#000" stroke-width="1" d="M381,412 l-18,-76" transform="matrix(0.8,0.0,0.0,-0.8,85.0,650.0)"/><path fill="#000" stroke="#000" stroke-width="1" d="M361,334 l4,0 l0,4 l-4,0 Z M361,334" transform="matrix(0.8,0.0,0.0,-0.8,85.0,650.0)"/><path fill="#FFF" stroke="#000" stroke-width="1" d="M383.83,409.17 c1.56,1.56,1.56,4.09,0,5.66 c-1.56,1.56,-4.09,1.56,-5.66,0 c-1.56,-1.56,-1.56,-4.09,0,-5.66 c1.56,-1.56,4.09,-1.56,5.66,0 Z M383.83,409.17" transform="matrix(0.8,0.0,0.0,-0.8,85.0,650.0)"/><path fill="#000" stroke="#000" stroke-width="1" d="M304,149 l21,101" transform="matrix(0.8,0.0,0.0,-0.8,85.0,650.0)"/><path fill="#000" stroke="#000" stroke-width="1" d="M323,248 l4,0 l0,4 l-4,0 Z M323,248" transform="matrix(0.8,0.0,0.0,-0.8,85.0,650.0)"/><path fill="#000" stroke="#000" stroke-width="1" d="M304,149 l-17,-78" transform="matrix(0.8,0.0,0.0,-0.8,85.0,650.0)"/><path fill="#000" stroke="#000" stroke-width="1" d="M285,69 l4,0 l0,4 l-4,0 Z M285,69" transform="matrix(0.8,0.0,0.0,-0.8,85.0,650.0)"/><path fill="#FFF" stroke="#000" stroke-width="1" d="M306.83,146.17 c1.56,1.56,1.56,4.09,0,5.66 c-1.56,1.56,-4.09,1.56,-5.66,0 c-1.56,-1.56,-1.56,-4.09,0,-5.66 c1.56,-1.56,4.09,-1.56,5.66,0 Z M306.83,146.17" transform="matrix(0.8,0.0,0.0,-0.8,85.0,650.0)"/><path fill="#000" stroke="#000" stroke-width="1" d="M420,-11 l-64,0" transform="matrix(0.8,0.0,0.0,-0.8,85.0,650.0)"/><path fill="#000" stroke="#000" stroke-width="1" d="M354,-13 l4,0 l0,4 l-4,0 Z M354,-13" transform="matrix(0.8,0.0,0.0,-0.8,85.0,650.0)"/><path fill="#000" stroke="#000" stroke-width="1" d="M420,-11 l32,0" transform="matrix(0.8,0.0,0.0,-0.8,85.0,650.0)"/><path fill="#000" stroke="#000" stroke-width="1" d="M450,-13 l4,0 l0,4 l-4,0 Z M450,-13" transform="matrix(0.8,0.0,0.0,-0.8,85.0,650.0)"/><path fill="#FFF" stroke="#000" stroke-width="1" d="M422.83,-13.83 c1.56,1.56,1.56,4.09,0,5.66 c-1.56,1.56,-4.09,1.56,-5.66,0 c-1.56,-1.56,-1.56,-4.09,0,-5.66 c1.56,-1.56,4.09,-1.56,5.66,-0.0 Z M422.83,-13.83" transform="matrix(0.8,0.0,0.0,-0.8,85.0,650.0)"/><path fill="#000" stroke="#000" stroke-width="1" d="M510,26 l-28,-27" transform="matrix(0.8,0.0,0.0,-0.8,85.0,650.0)"/><path fill="#000" stroke="#000" stroke-width="1" d="M480,-3 l4,0 l0,4 l-4,0 Z M480,-3" transform="matrix(0.8,0.0,0.0,-0.8,85.0,650.0)"/><path fill="#000" stroke="#000" stroke-width="1" d="M510,26 l21,21" transform="matrix(0.8,0.0,0.0,-0.8,85.0,650.0)"/><path fill="#000" stroke="#000" stroke-width="1" d="M529,45 l4,0 l0,4 l-4,0 Z M529,45" transform="matrix(0.8,0.0,0.0,-0.8,85.0,650.0)"/><path fill="#FFF" stroke="#000" stroke-width="1" d="M512.83,23.17 c1.56,1.56,1.56,4.09,0,5.66 c-1.56,1.56,-4.09,1.56,-5.66,0 c-1.56,-1.56,-1.56,-4.09,0,-5.66 c1.56,-1.56,4.09,-1.56,5.66,0 Z M512.83,23.17" transform="matrix(0.8,0.0,0.0,-0.8,85.0,650.0)"/><path fill="#000" stroke="#000" stroke-width="1" d="M566,133 l-12,-46" transform="matrix(0.8,0.0,0.0,-0.8,85.0,650.0)"/><path fill="#000" stroke="#000" stroke-width="1" d="M552,85 l4,0 l0,4 l-4,0 Z M552,85" transform="matrix(0.8,0.0,0.0,-0.8,85.0,650.0)"/><path fill="#000" stroke="#000" stroke-width="1" d="M566,133 l8,28" transform="matrix(0.8,0.0,0.0,-0.8,85.0,650.0)"/><path fill="#000" stroke="#000" stroke-width="1" d="M572,159 l4,0 l0,4 l-4,0 Z M572,159" transform="matrix(0.8,0.0,0.0,-0.8,85.0,650.0)"/><path fill="#FFF" stroke="#000" stroke-width="1" d="M568.83,130.17 c1.56,1.56,1.56,4.09,0,5.66 c-1.56,1.56,-4.09,1.56,-5.66,0 c-1.56,-1.56,-1.56,-4.09,0,-5.66 c1.56,-1.56,4.09,-1.56,5.66,0 Z M568.83,130.17" transform="matrix(0.8,0.0,0.0,-0.8,85.0,650.0)"/><path fill="#000" stroke="#000" stroke-width="1" d="M577,205 l0,-15" transform="matrix(0.8,0.0,0.0,-0.8,85.0,650.0)"/><path fill="#000" stroke="#000" stroke-width="1" d="M575,188 l4,0 l0,4 l-4,0 Z M575,188" transform="matrix(0.8,0.0,0.0,-0.8,85.0,650.0)"/><path fill="#FFF" stroke="#000" stroke-width="1" d="M573,201 l8,0 l0,8 l-8,0 Z M573,201" transform="matrix(0.8,0.0,0.0,-0.8,85.0,650.0)"/><path fill="#000" stroke="#000" stroke-width="1" d="M571,205 l-9,-9" transform="matrix(0.8,0.0,0.0,-0.8,85.0,650.0)"/><path fill="#000" stroke="#000" stroke-width="1" d="M560,194 l4,0 l0,4 l-4,0 Z M560,194" transform="matrix(0.8,0.0,0.0,-0.8,85.0,650.0)"/><path fill="#FFF" stroke="#000" stroke-width="1" d="M567,201 l8,0 l0,8 l-8,0 Z M567,201" transform="matrix(0.8,0.0,0.0,-0.8,85.0,650.0)"/><path fill="#000" stroke="#000" stroke-width="1" d="M539,190 l11,0" transform="matrix(0.8,0.0,0.0,-0.8,85.0,650.0)"/><path fill="#000" stroke="#000" stroke-width="1" d="M548,188 l4,0 l0,4 l-4,0 Z M548,188" transform="matrix(0.8,0.0,0.0,-0.8,85.0,650.0)"/><path fill="#000" stroke="#000" stroke-width="1" d="M539,190 l-5,0" transform="matrix(0.8,0.0,0.0,-0.8,85.0,650.0)"/><path fill="#000" stroke="#000" stroke-width="1" d="M532,188 l4,0 l0,4 l-4,0 Z M532,188" transform="matrix(0.8,0.0,0.0,-0.8,85.0,650.0)"/><path fill="#FFF" stroke="#000" stroke-width="1" d="M541.83,187.17 c1.56,1.56,1.56,4.09,0,5.66 c-1.56,1.56,-4.09,1.56,-5.66,0 c-1.56,-1.56,-1.56,-4.09,0,-5.66 c1.56,-1.56,4.09,-1.56,5.66,0 Z M541.83,187.17" transform="matrix(0.8,0.0,0.0,-0.8,85.0,650.0)"/><path fill="#000" stroke="#000" stroke-width="1" d="M522,192 l5,-1" transform="matrix(0.8,0.0,0.0,-0.8,85.0,650.0)"/><path fill="#000" stroke="#000" stroke-width="1" d="M525,189 l4,0 l0,4 l-4,0 Z M525,189" transform="matrix(0.8,0.0,0.0,-0.8,85.0,650.0)"/><path fill="#000" stroke="#000" stroke-width="1" d="M522,192 l19,70" transform="matrix(0.8,0.0,0.0,-0.8,85.0,650.0)"/><path fill="#000" stroke="#000" stroke-width="1" d="M539,260 l4,0 l0,4 l-4,0 Z M539,260" transform="matrix(0.8,0.0,0.0,-0.8,85.0,650.0)"/><path fill="#FFF" stroke="#000" stroke-width="1" d="M518,188 l8,0 l0,8 l-8,0 Z M518,188" transform="matrix(0.8,0.0,0.0,-0.8,85.0,650.0)"/><path fill="#000" stroke="#000" stroke-width="1" d="M578,366 l-12,-44" transform="matrix(0.8,0.0,0.0,-0.8,85.0,650.0)"/><path fill="#000" stroke="#000" stroke-width="1" d="M564,320 l4,0 l0,4 l-4,0 Z M564,320" transform="matrix(0.8,0.0,0.0,-0.8,85.0,650.0)"/><path fill="#000" stroke="#000" stroke-width="1" d="M578,366 l36,138" transform="matrix(0.8,0.0,0.0,-0.8,85.0,650.0)"/><path fill="#000" stroke="#000" stroke-width="1" d="M612,502 l4,0 l0,4 l-4,0 Z M612,502" transform="matrix(0.8,0.0,0.0,-0.8,85.0,650.0)"/><path fill="#FFF" stroke="#000" stroke-width="1" d="M580.83,363.17 c1.56,1.56,1.56,4.09,0,5.66 c-1.56,1.56,-4.09,1.56,-5.66,0 c-1.56,-1.56,-1.56,-4.09,0,-5.66 c1.56,-1.56,4.09,-1.56,5.66,0 Z M580.83,363.17" transform="matrix(0.8,0.0,0.0,-0.8,85.0,650.0)"/><path fill="#000" stroke="#000" stroke-width="1" d="M483,560 l102,0" transform="matrix(0.8,0.0,0.0,-0.8,85.0,650.0)"/><path fill="#000" stroke="#000" stroke-width="1" d="M583,558 l4,0 l0,4 l-4,0 Z M583,558" transform="matrix(0.8,0.0,0.0,-0.8,85.0,650.0)"/><path fill="#000" stroke="#000" stroke-width="1" d="M483,560 l-33,0" transform="matrix(0.8,0.0,0.0,-0.8,85.0,650.0)"/><path fill="#000" stroke="#000" stroke-width="1" d="M448,558 l4,0 l0,4 l-4,0 Z M448,558" transform="matrix(0.8,0.0,0.0,-0.8,85.0,650.0)"/><path fill="#FFF" stroke="#000" stroke-width="1" d="M485.83,557.17 c1.56,1.56,1.56,4.09,0,5.66 c-1.56,1.56,-4.09,1.56,-5.66,0 c-1.56,-1.56,-1.56,-4.09,0,-5.66 c1.56,-1.56,4.09,-1.56,5.66,0 Z M485.83,557.17" transform="matrix(0.8,0.0,0.0,-0.8,85.0,650.0)"/><text text-anchor="start" transform="matrix(1,0,0,1,14,-858)"><tspan x="0" y="885" fill="#000" font-family="RecursiveMonoLnr-Regular" font-size="14">a.italic</tspan></text><text text-anchor="start" transform="matrix(1,0,0,1,14,0)"><tspan x="285.8" y="885" fill="#000" font-family="RecursiveMonoLnr-Regular" font-size="14">600.00</tspan></text><text text-anchor="start" transform="matrix(1,0,0,1,14,0)"><tspan x="0" y="885" fill="#000" font-family="RecursiveMonoLnr-Regular" font-size="14">0.25</tspan></text><text text-anchor="start" transform="matrix(1,0,0,1,14,0)"><tspan x="588.4" y="885" fill="#000" font-family="RecursiveMonoLnr-Regular" font-size="14">7.21</tspan></text></svg>